<svg width="38" height="44" viewBox="0 0 38 44" fill="none" xmlns="http://www.w3.org/2000/svg">
<path fill-rule="evenodd" clip-rule="evenodd" d="M19.0885 3.13397C18.7791 2.95534 18.3979 2.95534 18.0885 3.13397L10.4773 7.52829C10.2944 7.57273 10.124 7.66849 9.98939 7.80997L2.5 12.134C2.1906 12.3126 2 12.6427 2 13V31C2 31.3573 2.1906 31.6874 2.5 31.866L18.0885 40.866C18.4191 41.0569 18.8297 41.0429 19.1465 40.8298L24.351 37.3298C24.8093 37.0216 24.931 36.4002 24.6228 35.942C24.3146 35.4837 23.6932 35.362 23.2349 35.6702L19.5885 38.1224V23.6679L33.1769 14.8419V24.5C33.1769 25.0523 33.6246 25.5 34.1769 25.5C34.7292 25.5 35.1769 25.0523 35.1769 24.5V13C35.1769 12.6427 34.9863 12.3126 34.6769 12.134L19.0885 3.13397ZM4.50644 13.285L10.7362 9.68819L24.4484 18.1264L18.574 21.9419L4.50644 13.285ZM25.8626 16.6483C26.0056 16.7363 26.1186 16.8545 26.1986 16.9896L32.2638 13.0502L18.5885 5.1547L12.7051 8.55145L25.8626 16.6483ZM4 15.3217L17.5885 23.6838V38.2679L4 30.4226V15.3217ZM27.1807 31.5893C27.1504 31.6511 27.1244 31.7077 27.1024 31.7577C27.1236 31.8022 27.1484 31.8519 27.1769 31.9059C27.3093 32.1571 27.5172 32.4934 27.8161 32.8295C28.4057 33.4923 29.3439 34.154 30.8052 34.1779C32.2505 34.2016 33.178 33.5489 33.7654 32.8765C34.0637 32.5352 34.2719 32.1898 34.4049 31.9298C34.4362 31.8685 34.4631 31.8125 34.4858 31.763C34.4634 31.7116 34.4366 31.6533 34.4052 31.5893C34.2749 31.3235 34.0699 30.97 33.7735 30.619C33.1895 29.9276 32.2598 29.25 30.793 29.25C29.3261 29.25 28.3964 29.9276 27.8125 30.619C27.516 30.97 27.311 31.3235 27.1807 31.5893ZM36.0085 31.5452C36.0086 31.5456 36.0087 31.5459 35.293 31.7701C36.0047 32.0064 36.0046 32.0068 36.0045 32.0071L36.0042 32.0079L36.0036 32.0097L36.0021 32.0142L35.9978 32.0267C35.9944 32.0365 35.9898 32.0494 35.984 32.0651C35.9725 32.0965 35.9561 32.1393 35.9346 32.1919C35.8917 32.2969 35.8279 32.4417 35.7403 32.6129C35.5659 32.9538 35.2927 33.4084 34.895 33.8635C34.0907 34.784 32.7682 35.7102 30.7807 35.6777C28.8094 35.6455 27.4976 34.7284 26.6953 33.8263C26.2983 33.38 26.0249 32.9373 25.8499 32.6052C25.762 32.4385 25.6979 32.2977 25.6547 32.1954C25.6331 32.1442 25.6166 32.1025 25.6049 32.0718C25.599 32.0564 25.5944 32.0438 25.5909 32.0342L25.5865 32.0219L25.5849 32.0174L25.5843 32.0156L25.584 32.0148C25.5839 32.0145 25.5838 32.0141 26.293 31.7701C25.5772 31.5459 25.5774 31.5456 25.5775 31.5452L25.5777 31.5444L25.5783 31.5426L25.5797 31.5381L25.5839 31.5255C25.5871 31.5155 25.5916 31.5024 25.5971 31.4865C25.6082 31.4546 25.624 31.4111 25.6448 31.3576C25.6864 31.2508 25.7483 31.1034 25.8339 30.9289C26.0042 30.5816 26.2725 30.1176 26.6665 29.6511C27.4635 28.7075 28.7839 27.75 30.793 27.75C32.8021 27.75 34.1224 28.7075 34.9194 29.6511C35.3135 30.1176 35.5817 30.5816 35.7521 30.9289C35.8376 31.1034 35.8996 31.2508 35.9411 31.3576C35.9619 31.4111 35.9777 31.4546 35.9888 31.4865C35.9944 31.5024 35.9988 31.5155 36.0021 31.5255L36.0062 31.5381L36.0076 31.5426L36.0082 31.5444L36.0085 31.5452ZM35.293 31.7701L36.0087 31.5459L36.081 31.7768L36.0047 32.0064L35.293 31.7701ZM25.5772 31.5459L26.293 31.7701L25.5838 32.0141L25.5036 31.7811L25.5772 31.5459ZM30.418 31.728C30.418 31.5568 30.5664 31.3833 30.793 31.3833C31.0195 31.3833 31.168 31.5568 31.168 31.728C31.168 31.8992 31.0195 32.0727 30.793 32.0727C30.5664 32.0727 30.418 31.8992 30.418 31.728ZM30.793 29.8833C29.7769 29.8833 28.918 30.69 28.918 31.728C28.918 32.7659 29.7769 33.5727 30.793 33.5727C31.8091 33.5727 32.668 32.7659 32.668 31.728C32.668 30.69 31.8091 29.8833 30.793 29.8833Z" fill="#243B60"/>
</svg>