<svg width="38" height="43" viewBox="0 0 38 43" fill="none" xmlns="http://www.w3.org/2000/svg">
<path fill-rule="evenodd" clip-rule="evenodd" d="M7.30017 3.59961C4.37307 3.59961 2.00019 5.97248 2.00017 8.89958L2 34.6995C1.99998 37.6266 4.37286 39.9995 7.29998 39.9995H15.9C16.4523 39.9995 16.9 39.5518 16.9 38.9995C16.9 38.4472 16.4523 37.9995 15.9 37.9995H7.29999C5.47744 37.9995 3.99999 36.522 4 34.6995L4.00017 8.89959C4.00018 7.07706 5.47764 5.59961 7.30017 5.59961H26.6506C28.4732 5.59961 29.9506 7.07707 29.9506 8.89961V20.7246C29.9506 21.2769 30.3984 21.7246 30.9506 21.7246C31.5029 21.7246 31.9506 21.2769 31.9506 20.7246V8.89961C31.9506 5.9725 29.5778 3.59961 26.6506 3.59961H7.30017ZM29.4311 26.0996C29.4311 25.5473 28.9834 25.0996 28.4311 25.0996C27.8789 25.0996 27.4311 25.5473 27.4311 26.0996V31.1807L22.35 31.1807C21.7977 31.1807 21.35 31.6284 21.35 32.1807C21.35 32.733 21.7977 33.1807 22.35 33.1807L27.4311 33.1807V38.2618C27.4311 38.8141 27.8789 39.2618 28.4311 39.2618C28.9834 39.2618 29.4311 38.8141 29.4311 38.2618V33.1807L34.5123 33.1807C35.0645 33.1807 35.5123 32.733 35.5123 32.1807C35.5123 31.6284 35.0645 31.1807 34.5123 31.1807L29.4311 31.1807V26.0996ZM9.25613 11.7996C8.70385 11.7996 8.25613 12.2473 8.25613 12.7996C8.25613 13.3518 8.70385 13.7996 9.25613 13.7996H25.2561C25.8084 13.7996 26.2561 13.3518 26.2561 12.7996C26.2561 12.2473 25.8084 11.7996 25.2561 11.7996H9.25613ZM8.25613 21.2996C8.25613 20.7473 8.70385 20.2996 9.25613 20.2996H21.7561C22.3084 20.2996 22.7561 20.7473 22.7561 21.2996C22.7561 21.8518 22.3084 22.2996 21.7561 22.2996H9.25613C8.70385 22.2996 8.25613 21.8518 8.25613 21.2996ZM9.25613 28.7996C8.70385 28.7996 8.25613 29.2473 8.25613 29.7996C8.25613 30.3518 8.70385 30.7996 9.25613 30.7996H17.2561C17.8084 30.7996 18.2561 30.3518 18.2561 29.7996C18.2561 29.2473 17.8084 28.7996 17.2561 28.7996H9.25613Z" fill="#243B60"/>
</svg>