<?xml version="1.0" encoding="UTF-8"?>
<!DOCTYPE svg PUBLIC "-//W3C//DTD SVG 1.1//EN" "http://www.w3.org/Graphics/SVG/1.1/DTD/svg11.dtd">
<svg xmlns="http://www.w3.org/2000/svg" version="1.1" width="67px" height="89px" style="shape-rendering:geometricPrecision; text-rendering:geometricPrecision; image-rendering:optimizeQuality; fill-rule:evenodd; clip-rule:evenodd" xmlns:xlink="http://www.w3.org/1999/xlink">
<g><path style="opacity:1" fill="#fdfefe" d="M -0.5,-0.5 C 21.8333,-0.5 44.1667,-0.5 66.5,-0.5C 66.5,12.8333 66.5,26.1667 66.5,39.5C 60.9812,19.834 47.9812,11.0007 27.5,13C 5.6935,21.759 -1.47317,37.259 6,59.5C 7.25001,62.9162 9.41668,65.5828 12.5,67.5C 16.6477,62.5516 20.3144,57.2183 23.5,51.5C 21.3345,49.5067 19.0011,47.6733 16.5,46C 25.1391,41.1202 33.9725,36.6202 43,32.5C 42.9435,42.85 42.2768,53.1833 41,63.5C 38.586,61.7093 36.086,60.0426 33.5,58.5C 29.8333,63.8333 26.1667,69.1667 22.5,74.5C 45.5509,81.3009 60.2176,72.9675 66.5,49.5C 66.5,62.5 66.5,75.5 66.5,88.5C 44.1667,88.5 21.8333,88.5 -0.5,88.5C -0.5,58.8333 -0.5,29.1667 -0.5,-0.5 Z"/></g>
<g><path style="opacity:1" fill="#17a7d2" d="M 66.5,39.5 C 66.5,42.8333 66.5,46.1667 66.5,49.5C 60.2176,72.9675 45.5509,81.3009 22.5,74.5C 26.1667,69.1667 29.8333,63.8333 33.5,58.5C 36.086,60.0426 38.586,61.7093 41,63.5C 42.2768,53.1833 42.9435,42.85 43,32.5C 33.9725,36.6202 25.1391,41.1202 16.5,46C 19.0011,47.6733 21.3345,49.5067 23.5,51.5C 20.3144,57.2183 16.6477,62.5516 12.5,67.5C 9.41668,65.5828 7.25001,62.9162 6,59.5C -1.47317,37.259 5.6935,21.759 27.5,13C 47.9812,11.0007 60.9812,19.834 66.5,39.5 Z"/></g>
</svg>
