<svg id="Capa_1" data-name="Capa 1" xmlns="http://www.w3.org/2000/svg" viewBox="0 0 283.07 120.31"><defs><style>.cls-1{fill:#05a5d1;}.cls-2{fill:#04638a;}</style></defs><path class="cls-1" d="M186.33,43S181.21,36.22,185,31c3.62-4.94,8.87,2.85,13-2.58,2.25-3-1.89-9.41-1.89-9.41s7.55.58,7.51,10.71c0,8.75-9,5.05-13.56,8C185.76,40.44,186.33,43,186.33,43Z" transform="translate(-108.47 -19.05)"/><path class="cls-1" d="M359.82,45.24c-17.51,0-31.71,14.63-31.71,32.67a33.05,33.05,0,0,0,9.45,23.24l11.57-17-8.06-5.81,14.24-6.84,14.23-6.84-1.37,16.12-1.36,16.12-8.07-5.81-11.46,16.86a31,31,0,0,0,12.54,2.66c17.52,0,31.71-14.62,31.71-32.66S377.34,45.24,359.82,45.24Z" transform="translate(-108.47 -19.05)"/><path class="cls-2" d="M123.18,108.62a24.32,24.32,0,0,1-10.55-8,21.85,21.85,0,0,1-4.16-12.77h19.69a9.55,9.55,0,0,0,2.92,6.44,9.41,9.41,0,0,0,6.5,2.22,10.17,10.17,0,0,0,6.49-1.89,6.32,6.32,0,0,0,2.38-5.25,6.23,6.23,0,0,0-1.89-4.66,15.64,15.64,0,0,0-4.66-3,75.81,75.81,0,0,0-7.84-2.7,85,85,0,0,1-12-4.55,22,22,0,0,1-8-6.71q-3.36-4.42-3.36-11.58,0-10.6,7.69-16.61t20-6q12.56,0,20.24,6t8.22,16.72h-20a7.86,7.86,0,0,0-2.71-5.79,9.55,9.55,0,0,0-6.38-2.11,8,8,0,0,0-5.41,1.79,6.44,6.44,0,0,0-2.06,5.14A6.36,6.36,0,0,0,131.73,61a56.36,56.36,0,0,0,10.83,4.44,100.87,100.87,0,0,1,11.95,4.76,22.89,22.89,0,0,1,8,6.6q3.34,4.33,3.35,11.15a21.9,21.9,0,0,1-3.3,11.8,23.14,23.14,0,0,1-9.57,8.44,32.85,32.85,0,0,1-14.83,3.14A39,39,0,0,1,123.18,108.62Z" transform="translate(-108.47 -19.05)"/><rect class="cls-2" x="68.72" y="31.14" width="18.51" height="60.39"/><path class="cls-2" d="M235.09,51.91a22.89,22.89,0,0,1,11.14-2.59,25,25,0,0,1,13.53,3.78,26.33,26.33,0,0,1,9.58,10.83,36.13,36.13,0,0,1,3.51,16.34,36.47,36.47,0,0,1-3.51,16.39,26.56,26.56,0,0,1-9.58,10.93,24.68,24.68,0,0,1-13.53,3.85,23,23,0,0,1-11.09-2.6,20.31,20.31,0,0,1-7.52-6.71v37.23H209.11V50.18h18.51v8.55A20.05,20.05,0,0,1,235.09,51.91Zm15.09,17.48a12.7,12.7,0,0,0-9.47-4,12.48,12.48,0,0,0-9.36,4q-3.84,4-3.84,10.93t3.84,10.93a13,13,0,0,0,18.78-.06q3.9-4.05,3.89-11T250.18,69.39Z" transform="translate(-108.47 -19.05)"/><path class="cls-2" d="M309.22,52.4A20.92,20.92,0,0,1,320,49.53V69.12H315q-6.93,0-10.39,3T301.1,82.54v28H282.59V50.18H301.1V60.25A24.33,24.33,0,0,1,309.22,52.4Z" transform="translate(-108.47 -19.05)"/></svg>