<?xml version="1.0" encoding="utf-8"?>
<!-- Generator: Adobe Illustrator 25.4.1, SVG Export Plug-In . SVG Version: 6.00 Build 0)  -->
<svg version="1.1" id="Capa_1" xmlns="http://www.w3.org/2000/svg" xmlns:xlink="http://www.w3.org/1999/xlink" x="0px" y="0px"
	 viewBox="0 0 574.7 255" style="enable-background:new 0 0 574.7 255;" xml:space="preserve">
<style type="text/css">
	.st0{fill:#04638A;}
	.st1{fill:#05A5D1;}
</style>
<g>
	<path class="st1" d="M172.9,62.4c0,0-9.2-12.1-2.4-21.4c6.5-8.9,15.9,5.1,23.3-4.6c4-5.4-3.4-16.9-3.4-16.9s13.6,1,13.5,19.3
		c-0.1,15.7-16.2,9.1-24.4,14.3C171.9,57.8,172.9,62.4,172.9,62.4z"/>
	<g>
		<path class="st1" d="M484.8,66.5c-31.5,0-57,26.3-57,58.7c0,16.4,6.5,31.1,17,41.8l20.8-30.6l-14.5-10.5l25.6-12.3l25.6-12.3
			l-2.5,29l-2.5,29l-14.5-10.5l-20.6,30.3c6.9,3.1,14.5,4.8,22.5,4.8c31.5,0,57-26.3,57-58.7S516.2,66.5,484.8,66.5z"/>
	</g>
	<path class="st0" d="M59.4,180.4c-7.9-3.2-14.2-8-19-14.4c-4.7-6.4-7.2-14-7.5-23h35.4c0.5,5.1,2.3,8.9,5.3,11.6
		c3,2.7,6.9,4,11.7,4c4.9,0,8.8-1.1,11.7-3.4c2.9-2.3,4.3-5.4,4.3-9.4c0-3.4-1.1-6.2-3.4-8.4c-2.3-2.2-5.1-4-8.4-5.4
		c-3.3-1.4-8-3-14.1-4.9c-8.8-2.7-16-5.4-21.6-8.2c-5.6-2.7-10.4-6.7-14.4-12.1c-4-5.3-6-12.3-6-20.8c0-12.7,4.6-22.7,13.8-29.9
		c9.2-7.2,21.2-10.8,36-10.8c15,0,27.2,3.6,36.4,10.8c9.2,7.2,14.1,17.2,14.8,30.1h-36c-0.3-4.4-1.9-7.9-4.9-10.4
		c-3-2.5-6.8-3.8-11.5-3.8c-4,0-7.3,1.1-9.7,3.2c-2.5,2.1-3.7,5.2-3.7,9.2c0,4.4,2.1,7.8,6.2,10.3c4.1,2.5,10.6,5.1,19.5,8
		c8.8,3,16,5.8,21.5,8.6c5.5,2.7,10.3,6.7,14.3,11.9c4,5.2,6,11.9,6,20c0,7.8-2,14.9-5.9,21.2c-4,6.4-9.7,11.4-17.2,15.2
		c-7.5,3.8-16.4,5.6-26.6,5.6C76.3,185.3,67.3,183.6,59.4,180.4z"/>
	<rect x="156.5" y="75.3" class="st0" width="33.3" height="108.5"/>
	<path class="st0" d="M260.6,78.5c5.7-3.1,12.4-4.7,20-4.7c8.9,0,17.1,2.3,24.3,6.8c7.3,4.5,13,11,17.2,19.5
		c4.2,8.4,6.3,18.2,6.3,29.4c0,11.2-2.1,21-6.3,29.5c-4.2,8.5-10,15-17.2,19.6c-7.3,4.6-15.4,6.9-24.3,6.9c-7.5,0-14.2-1.6-19.9-4.7
		c-5.8-3.1-10.3-7.1-13.5-12.1v66.9h-33.3V75.3h33.3v15.4C250.4,85.7,254.8,81.6,260.6,78.5z M287.7,109.9c-4.6-4.7-10.3-7.1-17-7.1
		c-6.6,0-12.2,2.4-16.8,7.2c-4.6,4.8-6.9,11.3-6.9,19.6c0,8.3,2.3,14.9,6.9,19.6c4.6,4.8,10.2,7.2,16.8,7.2c6.6,0,12.3-2.4,16.9-7.3
		c4.7-4.9,7-11.4,7-19.7C294.6,121.1,292.3,114.6,287.7,109.9z"/>
	<path class="st0" d="M393.8,79.3c5.8-3.4,12.3-5.2,19.5-5.2v35.2h-9.1c-8.3,0-14.5,1.8-18.7,5.3c-4.2,3.6-6.2,9.8-6.2,18.8v50.4
		h-33.3V75.3h33.3v18.1C383.1,87.5,388,82.8,393.8,79.3z"/>
</g>
</svg>
