<svg width="620" height="540" viewBox="0 0 620 540" fill="none" xmlns="http://www.w3.org/2000/svg">
<g clip-path="url(#clip0_120_754)">
<path d="M105.729 423.053C-10.1926 449.805 -10.1926 493.164 105.729 519.933C221.652 546.699 409.604 546.679 525.538 519.933C641.473 493.184 641.461 449.821 525.538 423.053C409.617 396.287 221.663 396.303 105.729 423.053Z" fill="#FAFAFA"/>
<path d="M44.1983 470.483L0.324587 226.909C-0.204502 223.546 -0.0857704 220.1 0.673493 216.788C1.43328 213.475 2.81692 210.364 4.7406 207.646L144.949 9.86294C147.122 6.79683 149.926 4.31154 153.143 2.60032C156.36 0.88967 159.902 -0.000558169 163.493 3.2221e-07H432.489C435.734 -0.000558169 438.943 0.724918 441.906 2.13008C444.874 3.53525 447.535 5.58882 449.716 8.15956L612.224 199.471C614.354 201.982 615.989 204.934 617.02 208.146C618.057 211.356 618.469 214.759 618.234 218.146L584.269 470.41L44.1983 470.483Z" fill="#F4F4F4"/>
<path d="M611.474 471.365H18.9155C18.7077 471.349 18.514 471.248 18.3728 471.081C18.2317 470.92 18.1531 470.7 18.1531 470.482C18.1531 470.259 18.2317 470.041 18.3728 469.88C18.514 469.713 18.7077 469.612 18.9155 469.596H611.474C611.683 469.612 611.874 469.713 612.015 469.88C612.156 470.041 612.235 470.259 612.235 470.482C612.235 470.7 612.156 470.92 612.015 471.081C611.874 471.248 611.683 471.349 611.474 471.365Z" fill="#7B8399"/>
<path d="M190.207 412.498H78.3586V469.446H190.207V412.498Z" fill="#B3BAC5"/>
<path d="M83.817 456.147H105.684V447.025H83.817V456.147Z" fill="white"/>
<path d="M108.672 424.431H121.884V412.15H108.672V424.431Z" fill="#0F8BBE"/>
<path d="M166.623 424.429H176.762V412.344H166.623V424.429Z" fill="#0F8BBE"/>
<path opacity="0.15" d="M190.423 461.418H78.1679V469.27H190.423V461.418Z" fill="black"/>
<path opacity="0.15" d="M190.423 412.498H150.564V469.446H190.423V412.498Z" fill="black"/>
<path d="M173.339 362.625H99.3189V412.234H173.339V362.625Z" fill="#B3BAC5"/>
<path d="M173.339 362.625H99.3189V412.234H173.339V362.625Z" fill="#B3BAC5"/>
<path d="M120.182 402.817H139.538V395.986H120.182V402.817Z" fill="white"/>
<path d="M117.215 372.041H126.974V362.625H117.215V372.041Z" fill="#0F8BBE"/>
<path d="M156.905 372.041H165.414V362.625H156.905V372.041Z" fill="#0F8BBE"/>
<path opacity="0.15" d="M173.169 362.625H145.923V412.234H173.169V362.625Z" fill="black"/>
<path opacity="0.15" d="M173.334 406.834H99.3189V412.234H173.334V406.834Z" fill="black"/>
<path d="M267.532 234.313L268.094 236.322L269.807 242.544L271.504 248.688L273.655 256.445L283.346 291.535L285.888 300.733L285.987 301.102L286.481 302.839L287.002 304.711L287.131 305.19L294.09 330.323L295.208 334.354L296.084 337.538L296.657 339.605L301.162 355.858L303.011 362.559L303.276 363.508L303.854 365.614L304.458 367.814L305.589 371.868L307.514 378.838L308.722 383.194L313.04 398.804L332.568 469.377H419.06C419.492 469.377 419.92 469.286 420.321 469.109C420.717 468.935 421.081 468.671 421.388 468.343C421.69 468.019 421.934 467.628 422.096 467.203C422.263 466.773 422.346 466.316 422.346 465.853V339.599L421.731 337.393L419.263 328.34L412.852 305.19L412.332 303.331L412.197 302.839L409.072 291.535L400.031 258.853L383.045 197.514L346.071 209.292L337.318 212.085L307.599 221.545L303.302 222.919L292.527 226.348L272.55 232.716L267.532 234.313Z" fill="#B3BAC5"/>
<path d="M350.954 308.683C359.448 305.987 364.318 296.553 361.849 287.623C359.38 278.693 350.492 273.662 342.003 276.348C333.515 279.034 328.651 288.465 331.114 297.408C333.577 306.35 342.462 311.387 350.954 308.683Z" fill="#3B75F1"/>
<path d="M279.18 244.182L292.287 291.537L294.182 298.362L295.267 302.311L295.422 302.869L295.979 304.87L300.666 321.908L301.948 326.55L303.056 330.538L310.759 358.366L312.138 363.393L313.269 367.459L314.507 371.926V371.967L315.351 374.981L315.418 375.211L317.716 383.393L319.075 388.29L320.027 391.741L337.733 455.711L338.385 458.062L341.509 469.366H354.492L339.099 413.718L332.157 388.705L330.158 381.477L324.485 360.991L323.356 356.925L322.064 352.251L314.83 326.135L313.752 322.226L309.029 305.176L308.394 302.863L307.873 300.993L306.78 296.917L305.29 291.537L298.229 266.115C298.438 266.042 298.63 265.986 298.844 265.903C301.549 264.948 303.999 263.304 305.983 261.112C309.763 256.939 311.42 251.097 309.889 245.534L310.425 245.339L338.717 236.336L351.508 232.26L353.184 231.702C355.221 239.044 362.204 243.535 369.719 242.87C370.972 242.762 372.21 242.512 373.417 242.127L376.177 252.04L383.113 277.094L387.111 291.555L393.225 313.655L413.946 388.491L420.982 413.926L422.352 418.874V371.793L414.692 344.102L404.578 307.533L400.152 291.537L397.651 282.496L378.322 212.685C377.736 212.33 377.129 212.018 376.503 211.752L353.069 219.219L344.316 222.012L331.527 226.076L301.322 235.677L280.186 242.413C279.804 242.971 279.468 243.564 279.18 244.182Z" fill="#0F8BBE"/>
<path d="M227.172 254.94L247.543 283.836L252.969 291.539L267.03 311.461L269.384 314.811L284.386 336.101L286.731 339.452L303.035 362.579L303.697 363.522L306.092 366.917L307.967 369.581L308.441 370.258L311.488 374.58V374.614L311.576 374.731L312.846 376.529L317.69 383.404L322.096 389.654L339.082 413.746L369.287 456.6L370.328 458.091L378.296 469.395H419.06C419.492 469.395 419.918 469.306 420.321 469.127C420.715 468.953 421.08 468.691 421.388 468.367C421.69 468.039 421.934 467.648 422.096 467.222C422.263 466.793 422.346 466.334 422.346 465.87V317.548L420.409 314.793L420.362 314.749L413.64 305.194L412.326 303.334L411.973 302.865L405.322 293.371L404.02 291.517L397.651 282.496L376.177 252.043L369.749 242.921L359.267 228.027L353.049 219.213L346.061 209.296L323.277 176.986L279.487 212.512L256.787 230.908L243.249 241.915L230.229 252.494L227.172 254.94Z" fill="#B3BAC5"/>
<path d="M329.63 293.163C336.701 287.432 338.176 276.771 332.936 269.336C327.698 261.903 317.726 260.519 310.665 266.249C303.603 271.98 302.124 282.629 307.362 290.074C312.602 297.519 322.563 298.893 329.63 293.163Z" fill="#3B75F1"/>
<path d="M241.3 259.802L253.663 277.312L263.682 291.519L271.633 302.863L273.294 305.215L274.149 306.426L275.31 308.102L276.509 309.777L291.87 331.558L293.433 333.792L294.214 334.909L296.073 337.55L310.748 358.366L313.664 362.499L316.027 365.85L328.348 383.285L332.157 388.681L372.207 445.49L379.414 455.716L380.263 456.9L380.554 457.325L389.027 469.332H419.066C419.498 469.332 419.924 469.244 420.324 469.064C420.721 468.891 421.085 468.629 421.388 468.299C421.694 467.974 421.94 467.583 422.102 467.16C422.267 466.729 422.352 466.272 422.352 465.808V465.21C417.038 459.677 408.129 459.381 401.431 464.797L396.667 458.029L395.834 456.856L395 455.677L376.951 430.07L356.121 400.537L337.436 374.03L333.338 368.256L327.136 359.461L324.767 356.11L322.052 352.255L305.91 329.323L303.499 325.906L300.681 321.908L288.901 305.197L288.246 304.27L287.246 302.863L286.006 301.126L285.788 300.808L279.269 291.56L266.316 273.151C271.259 269.158 273.711 263.048 273.264 257.312C273.061 254.477 272.103 251.763 270.504 249.494L271.509 248.678L273.362 247.165L295.355 229.349L303.291 222.921L306.566 220.261C306.887 220.715 307.234 221.144 307.608 221.547C312.867 227.467 322.079 227.958 328.959 222.401L331.563 226.07L338.806 236.353L377.702 291.531L393.225 313.653L414.69 344.103L422.387 354.975V332.765L419.263 328.342L404.578 307.532L402.297 304.298L401.255 302.841L393.292 291.537L383.102 277.078L351.564 232.28L344.275 222.01L337.286 212.091L323.803 192.969C323.138 192.857 322.47 192.791 321.799 192.768L287.278 220.765L272.55 232.716L268.092 236.324L265.76 238.212L248.737 252.041L242.856 256.82L241.685 257.747C241.509 258.422 241.379 259.109 241.3 259.802Z" fill="#0F8BBE"/>
<path opacity="0.15" d="M346.06 209.227L353.054 219.147L359.267 227.96L369.755 242.838L376.177 251.958L397.651 282.429L412.17 303.177L409.072 291.47L392.184 262.685L364.506 215.5L358.495 205.262L346.06 209.227Z" fill="black"/>
<path opacity="0.15" d="M283.845 208.878L389.892 291.472H395.09L293.73 200.852L283.845 208.878Z" fill="black"/>
<path d="M329.1 384.961L199.165 281.249C198.509 280.723 198.073 279.937 197.955 279.069C197.836 278.198 198.045 277.312 198.535 276.609L258.542 190.153C259.032 189.447 259.763 188.979 260.575 188.852C261.386 188.724 262.211 188.947 262.869 189.472L392.798 293.196C393.448 293.725 393.88 294.509 393.999 295.376C394.119 296.244 393.916 297.127 393.433 297.836L333.421 384.29C333.179 384.639 332.874 384.933 332.527 385.155C332.177 385.376 331.79 385.523 331.39 385.586C330.988 385.648 330.58 385.624 330.186 385.517C329.793 385.411 329.425 385.221 329.1 384.961Z" fill="#0F8BBE"/>
<path opacity="0.3" d="M329.1 384.961L199.165 281.249C198.509 280.723 198.073 279.937 197.955 279.069C197.836 278.198 198.045 277.312 198.535 276.609L258.542 190.153C259.032 189.447 259.763 188.979 260.575 188.852C261.386 188.724 262.211 188.947 262.869 189.472L392.798 293.196C393.448 293.725 393.88 294.509 393.999 295.376C394.119 296.244 393.916 297.127 393.433 297.836L333.421 384.29C333.179 384.639 332.874 384.933 332.527 385.155C332.177 385.376 331.79 385.523 331.39 385.586C330.988 385.648 330.58 385.624 330.186 385.517C329.793 385.411 329.425 385.221 329.1 384.961Z" fill="black"/>
<path d="M392.652 293.076L263.036 189.583C262.339 189.028 261.465 188.793 260.609 188.928C259.75 189.063 258.976 189.558 258.457 190.303L240.492 216.195C240.421 216.293 240.376 216.41 240.357 216.533C240.34 216.654 240.35 216.781 240.387 216.898C244.308 229.024 254.412 238.651 265.503 244.158C278.711 250.72 293.41 252.719 307.627 256.082C321.844 259.445 336.404 264.662 346.45 275.965C355.923 286.632 360.147 301.281 366.24 314.501C368.09 318.553 370.264 322.428 372.733 326.083C372.798 326.179 372.883 326.258 372.981 326.31C373.078 326.365 373.187 326.393 373.298 326.393C373.407 326.393 373.516 326.365 373.614 326.31C373.713 326.258 373.798 326.179 373.862 326.083L393.354 298.003C393.612 297.63 393.798 297.207 393.901 296.757C394.004 296.308 394.023 295.841 393.959 295.383C393.894 294.924 393.743 294.485 393.52 294.09C393.296 293.695 393.001 293.35 392.652 293.076Z" fill="#0F8BBE"/>
<path d="M273.253 276.773V273.706L270.499 274.556L269.832 274.024L273.227 272.997L273.165 269.406L273.831 269.936L273.867 272.82L276.471 272.032L277.117 272.552L273.888 273.517L273.967 277.315L273.253 276.773Z" fill="white"/>
<path d="M277.687 280.314V277.247L274.931 278.095L274.264 277.565L277.664 276.538L277.602 272.947L278.263 273.505L278.305 276.387L280.909 275.599L281.561 276.113L278.331 277.086L278.404 280.878L277.687 280.314Z" fill="white"/>
<path d="M282.117 283.876V280.811L279.336 281.643L278.658 281.083L282.055 280.061L281.991 276.471L282.658 277.029L282.694 279.906L285.298 279.124L285.95 279.638L282.72 280.603L282.799 284.401L282.117 283.876Z" fill="white"/>
<path d="M286.553 287.393V284.326L283.798 285.169L283.131 284.61L286.526 283.589L286.464 279.992L287.131 280.522L287.167 283.405L289.771 282.618L290.417 283.135L287.193 284.103L287.267 287.901L286.553 287.393Z" fill="white"/>
<path d="M301.316 299.175V296.108L298.56 296.953L297.895 296.423L301.29 295.399L301.228 291.809L301.893 292.341L301.936 295.222L304.538 294.434L305.185 294.948L301.961 295.913L302.034 299.711L301.316 299.175Z" fill="white"/>
<path d="M305.737 302.721V299.654L302.983 300.499L302.321 299.941L305.716 298.917L305.654 295.32L306.316 295.88L306.357 298.762L308.961 297.974L309.613 298.494L306.383 299.459L306.462 303.257L305.737 302.721Z" fill="white"/>
<path d="M310.186 306.252V303.185L307.432 304.036L306.765 303.478L310.162 302.45L310.098 298.857L310.765 299.416L310.8 302.299L313.404 301.511L314.051 302.031L310.823 302.996L310.9 306.794L310.186 306.252Z" fill="white"/>
<path d="M314.618 309.795V306.728L311.864 307.579L311.197 307.019L314.592 305.991L314.53 302.4L315.195 302.93L315.238 305.814L317.84 305.026L318.486 305.54L315.262 306.511L315.336 310.303L314.618 309.795Z" fill="white"/>
<path d="M331.629 297.407C337.387 297.407 342.054 292.401 342.054 286.226C342.054 280.052 337.387 275.045 331.629 275.045C325.87 275.045 321.203 280.052 321.203 286.226C321.203 292.401 325.87 297.407 331.629 297.407Z" fill="#0F8BBE"/>
<path opacity="0.3" d="M291.285 231.406L266.487 211.611C265.85 211.104 264.95 211.245 264.477 211.928L260.182 218.116C259.709 218.799 259.84 219.764 260.477 220.272L285.275 240.066C285.912 240.574 286.812 240.433 287.285 239.75L291.58 233.564C292.054 232.881 291.922 231.914 291.285 231.406Z" fill="black"/>
<path opacity="0.5" d="M266.553 310.66L222.398 275.413C221.691 274.851 220.694 275.008 220.168 275.764L217.78 279.205C217.254 279.963 217.4 281.033 218.107 281.597L262.262 316.842C262.968 317.406 263.966 317.249 264.492 316.494L266.88 313.052C267.406 312.294 267.259 311.225 266.553 310.66Z" fill="white"/>
<path opacity="0.5" d="M252.99 284.455L228.945 265.263C228.419 264.842 227.675 264.958 227.284 265.523L224.41 269.663C224.019 270.227 224.128 271.023 224.654 271.444L248.701 290.639C249.225 291.058 249.969 290.941 250.362 290.377L253.234 286.236C253.625 285.674 253.516 284.876 252.99 284.455Z" fill="white"/>
<path d="M262.337 260.195L245.614 246.846C245.296 246.592 244.846 246.662 244.609 247.005L242.035 250.714C241.798 251.055 241.864 251.538 242.181 251.792L258.904 265.141C259.222 265.395 259.673 265.325 259.91 264.982L262.484 261.273C262.72 260.932 262.655 260.448 262.337 260.195Z" fill="white"/>
<path d="M346.533 327.41L329.812 314.063C329.492 313.808 329.043 313.88 328.805 314.221L326.231 317.93C325.994 318.273 326.06 318.754 326.379 319.008L343.101 332.357C343.42 332.611 343.869 332.54 344.108 332.2L346.681 328.49C346.918 328.148 346.852 327.664 346.533 327.41Z" fill="white"/>
<path d="M39.605 159.666L104.538 66.8672H206.107V222.418L39.8393 219.737L39.605 159.666Z" fill="white"/>
<path d="M39.605 159.668L102.179 70.2422L109.183 70.2031L39.6518 164.314L39.605 159.668Z" fill="#F4F4F4"/>
<path d="M202.962 164.947L161.624 219.042L127.556 218.808L202.971 127.746L202.962 164.947Z" fill="#F4F4F4"/>
<path d="M202.96 80.6245L88.0969 218.812L40.1508 219.348L39.6509 211.311L154.025 70.2031L202.971 70.4377L202.96 80.6245Z" fill="#F4F4F4"/>
<path d="M125.556 218.811H127.556V70.4355H125.556V218.811Z" fill="#7B8399"/>
<path opacity="0.15" d="M125.556 218.811H127.556V70.4355H125.556V218.811Z" fill="black"/>
<path d="M33.3466 225.791H209.304V63.4941H106.898L102.18 70.2407H119.053V219.045H40.0382L39.6322 159.666L33.383 168.602L33.3466 225.791ZM125.343 70.2407H202.962V219.045H125.37L125.343 70.2407Z" fill="#7B8399"/>
<path d="M99.2216 74.5783H202.962V72.1152H100.82L99.2216 74.5783Z" fill="#7B8399"/>
<path d="M96.0769 78.9082H202.962V76.4453H97.7276L96.0769 78.9082Z" fill="#7B8399"/>
<path d="M92.9816 83.2599H202.96V80.7969H94.6428L92.9816 83.2599Z" fill="#7B8399"/>
<path d="M90.046 87.5993H202.962V85.1309H91.7957L90.046 87.5993Z" fill="#7B8399"/>
<path d="M87.2389 91.9392H202.962V89.4707H88.8845L87.2389 91.9392Z" fill="#7B8399"/>
<path d="M84.1419 96.2749H202.964V93.7617H85.7926L84.1419 96.2749Z" fill="#7B8399"/>
<path d="M200.025 139.395H200.125V70.2988H200.671V139.395H200.775C200.886 139.395 200.996 139.418 201.1 139.463C201.203 139.509 201.297 139.576 201.376 139.661C201.455 139.745 201.519 139.845 201.56 139.957C201.603 140.067 201.624 140.186 201.624 140.306V149.945C201.624 150.065 201.603 150.184 201.56 150.294C201.519 150.405 201.455 150.506 201.376 150.591C201.297 150.675 201.203 150.742 201.1 150.788C200.996 150.833 200.886 150.856 200.775 150.856H200.025C199.912 150.857 199.802 150.834 199.698 150.789C199.595 150.744 199.501 150.677 199.422 150.592C199.343 150.508 199.279 150.406 199.238 150.295C199.195 150.184 199.174 150.065 199.176 149.945V140.306C199.17 140.185 199.189 140.064 199.23 139.951C199.272 139.838 199.334 139.735 199.413 139.649C199.493 139.564 199.589 139.497 199.694 139.453C199.8 139.409 199.912 139.39 200.025 139.395Z" fill="#7B8399"/>
<path opacity="0.2" d="M201.71 72.1152H202.962V74.5783H201.71V72.1152Z" fill="black"/>
<path opacity="0.2" d="M201.71 76.457H202.962V78.9088H201.71V76.457Z" fill="black"/>
<path opacity="0.2" d="M201.71 80.7969H202.962V83.2599H201.71V80.7969Z" fill="black"/>
<path opacity="0.2" d="M201.71 85.1309H202.962V87.5993H201.71V85.1309Z" fill="black"/>
<path opacity="0.2" d="M201.71 89.4199H202.962V91.883H201.71V89.4199Z" fill="black"/>
<path opacity="0.2" d="M201.71 93.7617H202.962V96.2248H201.71V93.7617Z" fill="black"/>
<path opacity="0.2" d="M119.052 74.5801H125.342V75.6524H119.052V74.5801Z" fill="black"/>
<path opacity="0.2" d="M119.052 78.9082H125.342V79.9805H119.052V78.9082Z" fill="black"/>
<path opacity="0.2" d="M119.052 83.2617H125.342V84.3339H119.052V83.2617Z" fill="black"/>
<path opacity="0.2" d="M119.052 87.5977H125.342V88.6644H119.052V87.5977Z" fill="black"/>
<path opacity="0.2" d="M119.052 91.9395H125.342V93.0062H119.052V91.9395Z" fill="black"/>
<path opacity="0.2" d="M119.052 96.2715H125.342V97.3382H119.052V96.2715Z" fill="black"/>
<path d="M208.961 225.777H210.96V63.4785H208.961V225.777Z" fill="#7B8399"/>
<path opacity="0.15" d="M208.961 225.777H210.96V63.4785H208.961V225.777Z" fill="black"/>
<path d="M195.886 295.044V465.841C195.886 466.774 196.234 467.672 196.852 468.331C197.468 468.996 198.304 469.365 199.176 469.365H419.077C419.509 469.365 419.935 469.276 420.336 469.097C420.732 468.924 421.097 468.662 421.405 468.337C421.705 468.007 421.951 467.616 422.113 467.193C422.278 466.762 422.363 466.304 422.363 465.841V295.044C422.363 294.58 422.278 294.121 422.113 293.694C421.951 293.267 421.705 292.878 421.405 292.549C421.097 292.223 420.732 291.963 420.336 291.786C419.935 291.608 419.509 291.518 419.077 291.52H199.176C198.304 291.52 197.468 291.89 196.852 292.551C196.234 293.212 195.886 294.109 195.886 295.044Z" fill="#7B8399"/>
<path opacity="0.2" d="M195.05 408.612H265.275C266.476 408.612 267.63 408.1 268.479 407.19C269.328 406.279 269.805 405.042 269.805 403.754V365.368C269.805 364.08 269.326 362.845 268.477 361.934C267.628 361.024 266.476 360.51 265.275 360.51H195.05V408.612Z" fill="black"/>
<path opacity="0.2" d="M200.023 465.857V295.044C200.025 294.109 200.373 293.214 200.987 292.553C201.603 291.892 202.439 291.522 203.309 291.52H199.144C198.272 291.52 197.436 291.89 196.818 292.551C196.202 293.212 195.854 294.109 195.852 295.044V465.841C195.854 466.774 196.202 467.672 196.818 468.331C197.436 468.996 198.272 469.365 199.144 469.365H203.309C202.441 469.365 201.609 468.996 200.993 468.337C200.378 467.678 200.029 466.79 200.023 465.857Z" fill="black"/>
<path opacity="0.5" d="M413.138 304.015C413.138 304.17 413.164 304.323 413.221 304.466C413.275 304.609 413.356 304.74 413.457 304.849C413.561 304.96 413.683 305.046 413.814 305.105C413.95 305.163 414.092 305.194 414.237 305.192H423.09C423.366 305.171 423.625 305.038 423.819 304.821C424.007 304.603 424.11 304.315 424.11 304.017C424.11 303.719 424.007 303.431 423.819 303.213C423.625 302.995 423.366 302.862 423.09 302.842H414.237C414.092 302.84 413.95 302.87 413.816 302.929C413.683 302.987 413.563 303.074 413.459 303.183C413.358 303.292 413.277 303.422 413.222 303.564C413.166 303.707 413.138 303.86 413.138 304.015ZM395.462 304.015C395.464 304.327 395.581 304.625 395.787 304.845C395.992 305.067 396.27 305.192 396.561 305.192H405.414C405.657 305.19 405.89 305.101 406.079 304.938C406.267 304.777 406.401 304.551 406.457 304.299C406.478 304.206 406.487 304.11 406.487 304.015C406.489 303.713 406.382 303.42 406.188 303.203C405.993 302.983 405.728 302.854 405.446 302.842H396.593C396.447 302.836 396.3 302.864 396.165 302.921C396.028 302.977 395.904 303.064 395.799 303.173C395.693 303.281 395.609 303.412 395.551 303.557C395.494 303.703 395.464 303.858 395.462 304.015ZM377.789 304.015C377.789 304.325 377.903 304.625 378.11 304.845C378.313 305.067 378.593 305.192 378.882 305.192H387.735C388.013 305.171 388.274 305.038 388.462 304.821C388.654 304.603 388.759 304.315 388.759 304.017C388.759 303.719 388.654 303.431 388.462 303.213C388.274 302.995 388.013 302.862 387.735 302.842H378.882C378.593 302.842 378.315 302.967 378.11 303.187C377.905 303.406 377.79 303.703 377.789 304.015ZM360.115 304.015C360.113 304.307 360.214 304.589 360.398 304.807C360.583 305.022 360.836 305.155 361.109 305.182C361.142 305.188 361.174 305.188 361.208 305.182H370.061C370.35 305.175 370.627 305.051 370.831 304.831C371.036 304.611 371.155 304.313 371.16 304.003C371.158 303.692 371.042 303.392 370.837 303.173C370.63 302.953 370.35 302.83 370.061 302.83H361.208C361.064 302.832 360.921 302.862 360.787 302.923C360.654 302.981 360.534 303.07 360.432 303.179C360.331 303.289 360.25 303.42 360.196 303.564C360.141 303.707 360.113 303.86 360.115 304.015ZM342.45 304.015C342.445 304.091 342.445 304.17 342.45 304.249C342.449 304.281 342.449 304.313 342.45 304.343C342.514 304.587 342.651 304.801 342.839 304.954C343.027 305.109 343.256 305.192 343.491 305.192H352.344C352.429 305.194 352.513 305.182 352.594 305.159C352.834 305.099 353.051 304.952 353.203 304.744C353.357 304.537 353.439 304.279 353.438 304.015C353.436 303.721 353.336 303.437 353.158 303.215L353.09 303.148C352.885 302.951 352.62 302.842 352.344 302.842H343.491C343.211 302.858 342.946 302.987 342.753 303.205C342.559 303.424 342.45 303.713 342.45 304.015ZM324.745 304.015C324.747 304.232 324.805 304.448 324.912 304.633C325.021 304.819 325.175 304.968 325.359 305.065C325.508 305.149 325.675 305.192 325.844 305.192H334.697C334.973 305.171 335.234 305.038 335.424 304.821C335.614 304.603 335.719 304.315 335.719 304.017C335.719 303.719 335.614 303.431 335.424 303.213C335.234 302.995 334.973 302.862 334.697 302.842H325.844C325.558 302.848 325.286 302.975 325.085 303.195C324.884 303.412 324.773 303.707 324.771 304.015H324.745ZM307.069 304.015C307.069 304.325 307.186 304.625 307.39 304.845C307.595 305.067 307.873 305.192 308.164 305.192H317.017C317.293 305.171 317.555 305.038 317.744 304.821C317.934 304.603 318.039 304.315 318.039 304.017C318.039 303.719 317.934 303.431 317.744 303.213C317.555 302.995 317.293 302.862 317.017 302.842H308.164C307.879 302.85 307.608 302.977 307.409 303.197C307.21 303.414 307.097 303.709 307.095 304.015H307.069ZM289.395 304.015C289.392 304.253 289.454 304.488 289.578 304.688C289.7 304.887 289.876 305.042 290.083 305.131C290.213 305.184 290.35 305.212 290.489 305.216H299.342C299.629 305.214 299.903 305.097 300.112 304.885C300.32 304.658 300.437 304.353 300.441 304.037C300.437 303.765 300.349 303.503 300.187 303.294C300.025 303.084 299.804 302.941 299.556 302.886C299.484 302.88 299.413 302.88 299.342 302.886H290.489C290.211 302.895 289.946 303.015 289.749 303.225C289.549 303.435 289.433 303.717 289.422 304.015H289.395ZM271.725 304.015C271.725 304.17 271.754 304.323 271.808 304.466C271.864 304.609 271.945 304.74 272.047 304.849C272.148 304.96 272.27 305.046 272.404 305.105C272.537 305.163 272.682 305.194 272.824 305.192H281.677C281.968 305.192 282.248 305.067 282.453 304.845C282.66 304.625 282.774 304.327 282.776 304.015C282.784 303.979 282.784 303.942 282.776 303.908C282.754 303.618 282.63 303.346 282.431 303.146C282.23 302.949 281.967 302.84 281.694 302.842H272.841C272.552 302.842 272.274 302.967 272.071 303.187C271.866 303.406 271.752 303.705 271.752 304.015H271.725ZM254.052 304.015C254.053 304.327 254.17 304.625 254.375 304.845C254.581 305.067 254.859 305.192 255.151 305.192H264.004C264.282 305.171 264.541 305.038 264.731 304.821C264.92 304.603 265.027 304.315 265.027 304.017C265.027 303.719 264.92 303.431 264.731 303.213C264.541 302.995 264.282 302.862 264.004 302.842H255.151C254.865 302.848 254.593 302.975 254.392 303.195C254.192 303.412 254.08 303.707 254.078 304.015H254.052ZM236.378 304.015C236.38 304.327 236.494 304.625 236.701 304.845C236.906 305.067 237.186 305.192 237.477 305.192H246.33C246.606 305.171 246.867 305.038 247.057 304.821C247.247 304.603 247.352 304.315 247.352 304.017C247.352 303.719 247.247 303.431 247.057 303.213C246.867 302.995 246.606 302.862 246.33 302.842H237.518C237.381 302.836 237.246 302.864 237.122 302.925C236.913 303.007 236.733 303.154 236.605 303.35C236.476 303.543 236.406 303.777 236.404 304.015H236.378ZM218.702 304.015C218.702 304.325 218.819 304.625 219.023 304.845C219.228 305.067 219.506 305.192 219.796 305.192H228.648C228.801 305.204 228.951 305.181 229.092 305.127C229.235 305.073 229.364 304.988 229.475 304.879C229.586 304.768 229.672 304.635 229.733 304.486C229.793 304.339 229.823 304.178 229.823 304.017C229.823 303.856 229.793 303.697 229.733 303.547C229.672 303.398 229.586 303.265 229.475 303.157C229.364 303.046 229.235 302.961 229.092 302.907C228.951 302.852 228.801 302.83 228.648 302.842H219.813C219.523 302.846 219.249 302.971 219.048 303.191C218.845 303.41 218.73 303.707 218.728 304.015H218.702ZM211.35 307.013V316.507C211.339 316.669 211.36 316.832 211.411 316.983C211.461 317.136 211.54 317.275 211.644 317.392C211.745 317.511 211.869 317.606 212.008 317.67C212.147 317.734 212.295 317.767 212.446 317.767C212.596 317.767 212.746 317.734 212.884 317.67C213.023 317.606 213.147 317.511 213.25 317.392C213.351 317.275 213.43 317.136 213.481 316.983C213.532 316.832 213.552 316.669 213.543 316.507V307.013C213.541 306.701 213.425 306.399 213.22 306.177C213.015 305.953 212.735 305.824 212.444 305.818C212.299 305.818 212.156 305.85 212.025 305.911C211.892 305.973 211.773 306.062 211.674 306.173C211.574 306.284 211.495 306.417 211.444 306.562C211.394 306.705 211.369 306.86 211.375 307.013H211.35ZM211.35 326.002V335.496C211.369 335.794 211.493 336.072 211.696 336.278C211.899 336.479 212.168 336.594 212.446 336.594C212.724 336.594 212.993 336.479 213.195 336.278C213.4 336.072 213.522 335.794 213.543 335.496V326.002C213.552 325.841 213.532 325.679 213.481 325.526C213.43 325.375 213.351 325.234 213.25 325.117C213.147 324.998 213.023 324.904 212.884 324.841C212.746 324.777 212.596 324.742 212.446 324.742C212.295 324.742 212.147 324.777 212.008 324.841C211.869 324.904 211.745 324.998 211.644 325.117C211.54 325.234 211.461 325.375 211.411 325.526C211.36 325.679 211.339 325.841 211.35 326.002ZM211.35 344.946V354.44C211.369 354.739 211.493 355.017 211.696 355.22C211.899 355.424 212.168 355.539 212.446 355.539C212.724 355.539 212.993 355.424 213.195 355.22C213.4 355.017 213.522 354.739 213.543 354.44V344.946C213.552 344.785 213.532 344.624 213.481 344.471C213.43 344.319 213.351 344.178 213.25 344.061C213.147 343.943 213.023 343.848 212.884 343.783C212.746 343.719 212.596 343.687 212.446 343.687C212.295 343.687 212.147 343.719 212.008 343.783C211.869 343.848 211.745 343.943 211.644 344.061C211.54 344.178 211.461 344.319 211.411 344.471C211.36 344.624 211.339 344.785 211.35 344.946ZM211.35 363.9V373.395C211.339 373.556 211.36 373.719 211.411 373.87C211.461 374.023 211.54 374.162 211.644 374.281C211.745 374.398 211.869 374.493 212.008 374.557C212.147 374.622 212.295 374.656 212.446 374.656C212.596 374.656 212.746 374.622 212.884 374.557C213.023 374.493 213.147 374.398 213.25 374.281C213.351 374.162 213.43 374.023 213.481 373.87C213.532 373.719 213.552 373.556 213.543 373.395V363.9C213.522 363.604 213.4 363.324 213.195 363.121C212.993 362.917 212.724 362.804 212.446 362.804C212.168 362.804 211.899 362.917 211.696 363.121C211.493 363.324 211.369 363.604 211.35 363.9ZM211.35 382.857V392.351C211.339 392.512 211.36 392.674 211.411 392.827C211.461 392.978 211.54 393.117 211.644 393.236C211.745 393.355 211.869 393.447 212.008 393.512C212.147 393.576 212.295 393.611 212.446 393.611C212.596 393.611 212.746 393.576 212.884 393.512C213.023 393.447 213.147 393.355 213.25 393.236C213.351 393.117 213.43 392.978 213.481 392.827C213.532 392.674 213.552 392.512 213.543 392.351V382.857C213.522 382.559 213.4 382.281 213.195 382.075C212.993 381.872 212.724 381.759 212.446 381.759C212.168 381.759 211.899 381.872 211.696 382.075C211.493 382.281 211.369 382.559 211.35 382.857ZM211.35 401.811V411.306C211.369 411.604 211.493 411.882 211.696 412.087C211.899 412.289 212.168 412.404 212.446 412.404C212.724 412.404 212.993 412.289 213.195 412.087C213.4 411.882 213.522 411.604 213.543 411.306V401.811C213.522 401.513 213.4 401.235 213.195 401.032C212.993 400.828 212.724 400.715 212.446 400.715C212.168 400.715 211.899 400.828 211.696 401.032C211.493 401.235 211.369 401.513 211.35 401.811ZM211.35 420.762V430.256C211.369 430.554 211.493 430.832 211.696 431.036C211.899 431.239 212.168 431.352 212.446 431.352C212.724 431.352 212.993 431.239 213.195 431.036C213.4 430.832 213.522 430.554 213.543 430.256V420.762C213.552 420.6 213.532 420.437 213.481 420.286C213.43 420.133 213.351 419.994 213.25 419.877C213.147 419.758 213.023 419.664 212.884 419.599C212.746 419.535 212.596 419.502 212.446 419.502C212.295 419.502 212.147 419.535 212.008 419.599C211.869 419.664 211.745 419.758 211.644 419.877C211.54 419.994 211.461 420.133 211.411 420.286C211.36 420.437 211.339 420.6 211.35 420.762ZM211.35 439.716V449.21C211.369 449.509 211.493 449.787 211.696 449.992C211.899 450.194 212.168 450.309 212.446 450.309C212.724 450.309 212.993 450.194 213.195 449.992C213.4 449.787 213.522 449.509 213.543 449.21V439.716C213.552 439.555 213.532 439.394 213.481 439.241C213.43 439.089 213.351 438.948 213.25 438.831C213.147 438.713 213.023 438.618 212.884 438.555C212.746 438.491 212.596 438.457 212.446 438.457C212.295 438.457 212.147 438.491 212.008 438.555C211.869 438.618 211.745 438.713 211.644 438.831C211.54 438.948 211.461 439.089 211.411 439.241C211.36 439.394 211.339 439.555 211.35 439.716ZM426.423 456.901C426.423 457.067 426.455 457.232 426.522 457.381V456.448C426.459 456.591 426.423 456.748 426.423 456.907V456.901ZM408.747 456.901C408.749 457.212 408.866 457.51 409.07 457.73C409.275 457.949 409.551 458.072 409.841 458.074H418.695C418.846 458.084 418.996 458.064 419.137 458.01C419.278 457.955 419.407 457.871 419.518 457.76C419.633 457.649 419.716 457.516 419.778 457.367C419.836 457.22 419.866 457.061 419.866 456.897C419.866 456.736 419.836 456.577 419.778 456.43C419.716 456.281 419.633 456.148 419.518 456.037C419.407 455.926 419.278 455.842 419.137 455.787C418.996 455.733 418.846 455.713 418.695 455.723H409.841C409.698 455.723 409.555 455.755 409.422 455.815C409.288 455.874 409.168 455.962 409.067 456.071C408.965 456.182 408.884 456.313 408.83 456.456C408.775 456.599 408.747 456.752 408.747 456.907V456.901ZM391.068 456.901C391.07 457.212 391.186 457.51 391.393 457.732C391.598 457.951 391.876 458.074 392.167 458.074H401.02C401.163 458.074 401.305 458.044 401.439 457.985C401.572 457.927 401.692 457.842 401.794 457.732C401.895 457.623 401.976 457.494 402.032 457.351C402.087 457.208 402.113 457.056 402.113 456.901C402.115 456.688 402.062 456.478 401.961 456.295C401.86 456.112 401.711 455.962 401.535 455.862C401.377 455.767 401.196 455.721 401.014 455.723H392.182C392.037 455.721 391.893 455.751 391.757 455.809C391.622 455.868 391.498 455.956 391.395 456.065C391.291 456.176 391.209 456.307 391.152 456.452C391.098 456.595 391.068 456.75 391.068 456.907V456.901ZM373.394 456.901C373.396 457.212 373.511 457.51 373.717 457.732C373.924 457.951 374.202 458.074 374.493 458.074H383.346C383.585 458.068 383.816 457.979 384.004 457.82C384.193 457.661 384.327 457.441 384.387 457.191C384.409 457.115 384.419 457.036 384.419 456.956V456.911C384.415 456.652 384.329 456.4 384.176 456.198C384.024 455.995 383.812 455.854 383.575 455.795C383.494 455.767 383.41 455.755 383.325 455.757H374.476C374.24 455.759 374.01 455.846 373.822 456.001C373.635 456.156 373.499 456.371 373.435 456.615C373.407 456.71 373.394 456.809 373.394 456.907V456.901ZM355.73 456.901C355.73 457.212 355.844 457.51 356.049 457.73C356.256 457.951 356.534 458.074 356.823 458.074H365.676C365.826 458.084 365.977 458.064 366.119 458.01C366.262 457.955 366.392 457.871 366.501 457.76C366.612 457.649 366.7 457.516 366.76 457.367C366.82 457.22 366.85 457.061 366.85 456.897C366.85 456.736 366.82 456.577 366.76 456.43C366.7 456.281 366.612 456.148 366.501 456.037C366.392 455.926 366.262 455.842 366.119 455.787C365.977 455.733 365.826 455.713 365.676 455.723H356.823C356.678 455.723 356.536 455.753 356.402 455.813C356.269 455.872 356.147 455.96 356.045 456.071C355.944 456.18 355.865 456.311 355.81 456.454C355.756 456.599 355.728 456.752 355.73 456.907V456.901ZM338.056 456.901C338.056 457.212 338.172 457.51 338.377 457.73C338.582 457.949 338.858 458.072 339.149 458.074H348.002C348.153 458.084 348.303 458.064 348.444 458.01C348.587 457.955 348.716 457.871 348.827 457.76C348.938 457.649 349.024 457.516 349.084 457.367C349.145 457.22 349.176 457.061 349.176 456.897C349.176 456.736 349.145 456.577 349.084 456.43C349.024 456.281 348.938 456.148 348.827 456.037C348.716 455.926 348.587 455.842 348.444 455.787C348.303 455.733 348.153 455.713 348.002 455.723H339.149C339.005 455.723 338.862 455.755 338.729 455.815C338.595 455.874 338.475 455.962 338.373 456.071C338.272 456.182 338.191 456.313 338.137 456.456C338.082 456.599 338.054 456.752 338.056 456.907V456.901ZM320.375 456.901C320.377 457.212 320.493 457.51 320.7 457.732C320.904 457.951 321.184 458.074 321.474 458.074H330.327C330.605 458.054 330.866 457.921 331.054 457.703C331.245 457.484 331.351 457.198 331.351 456.897C331.351 456.599 331.245 456.313 331.054 456.095C330.866 455.876 330.605 455.743 330.327 455.723H321.474C321.183 455.725 320.903 455.85 320.698 456.071C320.491 456.293 320.375 456.593 320.375 456.907V456.901ZM302.701 456.901C302.703 457.212 302.819 457.51 303.024 457.732C303.231 457.951 303.509 458.074 303.8 458.074H312.653C312.931 458.054 313.19 457.921 313.38 457.703C313.57 457.484 313.675 457.198 313.675 456.897C313.675 456.599 313.57 456.313 313.38 456.095C313.19 455.876 312.931 455.743 312.653 455.723H303.8C303.509 455.725 303.229 455.85 303.022 456.071C302.817 456.293 302.701 456.593 302.701 456.907V456.901ZM285.037 456.901C285.037 457.212 285.151 457.51 285.358 457.73C285.563 457.951 285.841 458.074 286.13 458.074H294.983C295.261 458.054 295.522 457.921 295.71 457.703C295.902 457.484 296.007 457.198 296.007 456.897C296.007 456.599 295.902 456.313 295.71 456.095C295.522 455.876 295.261 455.743 294.983 455.723H286.13C285.985 455.723 285.843 455.753 285.709 455.813C285.576 455.872 285.456 455.96 285.354 456.071C285.253 456.18 285.172 456.311 285.117 456.454C285.063 456.599 285.037 456.752 285.037 456.907V456.901ZM267.363 456.901C267.365 457.212 267.479 457.51 267.684 457.73C267.889 457.949 268.167 458.072 268.456 458.074H277.309C277.459 458.084 277.61 458.064 277.752 458.01C277.893 457.955 278.025 457.871 278.134 457.76C278.245 457.649 278.331 457.516 278.393 457.367C278.453 457.22 278.483 457.061 278.483 456.897C278.483 456.736 278.453 456.577 278.393 456.43C278.331 456.281 278.245 456.148 278.134 456.037C278.025 455.926 277.893 455.842 277.752 455.787C277.61 455.733 277.459 455.713 277.309 455.723H268.456C268.312 455.723 268.169 455.755 268.035 455.815C267.902 455.874 267.782 455.962 267.68 456.071C267.579 456.182 267.498 456.313 267.444 456.456C267.389 456.599 267.361 456.752 267.363 456.907V456.901ZM249.687 456.901C249.689 457.212 249.806 457.51 250.01 457.73C250.215 457.949 250.491 458.072 250.781 458.074H259.633C259.786 458.084 259.936 458.064 260.077 458.01C260.22 457.955 260.349 457.871 260.46 457.76C260.571 457.649 260.657 457.516 260.718 457.367C260.778 457.22 260.808 457.061 260.808 456.897C260.808 456.736 260.778 456.577 260.718 456.43C260.657 456.281 260.571 456.148 260.46 456.037C260.349 455.926 260.22 455.842 260.077 455.787C259.936 455.733 259.786 455.713 259.633 455.723H250.781C250.638 455.723 250.495 455.755 250.362 455.815C250.228 455.874 250.108 455.962 250.007 456.071C249.905 456.182 249.824 456.313 249.77 456.456C249.715 456.599 249.687 456.752 249.687 456.907V456.901ZM231.981 456.901C231.983 457.212 232.1 457.51 232.306 457.732C232.511 457.951 232.791 458.074 233.081 458.074H241.933C242.211 458.054 242.473 457.921 242.66 457.703C242.852 457.484 242.957 457.198 242.957 456.897C242.957 456.599 242.852 456.313 242.66 456.095C242.473 455.876 242.211 455.743 241.933 455.723H233.081C232.793 455.731 232.521 455.86 232.322 456.081C232.12 456.303 232.008 456.599 232.008 456.907L231.981 456.901ZM214.317 456.766C214.293 457.077 214.383 457.385 214.567 457.625C214.751 457.864 215.014 458.018 215.302 458.052C215.469 458.052 215.636 458.052 215.824 458.052H224.275C224.553 458.032 224.812 457.899 225.002 457.679C225.193 457.462 225.299 457.175 225.299 456.875C225.299 456.577 225.193 456.291 225.002 456.071C224.812 455.854 224.553 455.721 224.275 455.7H215.824C215.728 455.707 215.632 455.707 215.536 455.7C215.392 455.686 215.247 455.702 215.11 455.749C214.971 455.795 214.843 455.87 214.732 455.968C214.621 456.069 214.529 456.192 214.464 456.329C214.396 456.468 214.357 456.617 214.343 456.772L214.317 456.766Z" fill="white"/>
<path d="M262.559 356.625H193.694C191.191 356.625 189.164 358.801 189.164 361.485V399.869C189.164 402.553 191.191 404.727 193.694 404.727H262.559C265.059 404.727 267.089 402.553 267.089 399.869V361.485C267.089 358.801 265.059 356.625 262.559 356.625Z" fill="#7B8399"/>
<path opacity="0.2" d="M194.599 399.869V361.504C194.601 360.217 195.078 358.982 195.928 358.071C196.777 357.16 197.928 356.648 199.131 356.646H193.694C192.493 356.648 191.341 357.16 190.492 358.071C189.643 358.982 189.164 360.217 189.164 361.504V399.891C189.164 400.528 189.28 401.16 189.508 401.749C189.735 402.339 190.069 402.875 190.49 403.326C190.911 403.778 191.411 404.134 191.96 404.38C192.51 404.624 193.098 404.749 193.694 404.749H199.131C198.533 404.749 197.943 404.622 197.391 404.378C196.841 404.132 196.341 403.772 195.92 403.318C195.497 402.865 195.165 402.327 194.937 401.734C194.712 401.142 194.597 400.507 194.599 399.869Z" fill="black"/>
<path opacity="0.2" d="M233.873 393.416C235.266 395.255 237.002 396.762 238.972 397.836C240.941 398.91 243.1 399.529 245.308 399.65C247.513 399.773 249.719 399.396 251.782 398.544C253.843 397.691 255.716 396.384 257.276 394.705C258.835 393.027 260.049 391.014 260.838 388.801C261.625 386.587 261.971 384.219 261.85 381.854C261.73 379.488 261.148 377.175 260.139 375.066C259.132 372.956 257.721 371.098 256.002 369.613C258.452 372.853 259.697 376.954 259.496 381.123C259.297 385.289 257.666 389.231 254.92 392.186C252.173 395.142 248.502 396.901 244.616 397.129C240.731 397.357 236.904 396.033 233.873 393.416Z" fill="black"/>
<path d="M227.936 380.188C227.936 383.533 228.859 386.803 230.591 389.584C232.323 392.364 234.785 394.533 237.665 395.812C240.547 397.093 243.716 397.428 246.775 396.775C249.832 396.124 252.642 394.514 254.846 392.149C257.052 389.783 258.553 386.771 259.16 383.491C259.769 380.212 259.457 376.811 258.262 373.722C257.069 370.633 255.047 367.992 252.455 366.136C249.862 364.278 246.813 363.287 243.696 363.289C239.515 363.289 235.508 365.07 232.553 368.238C229.597 371.407 227.936 375.707 227.936 380.188Z" fill="#7B8399"/>
<path opacity="0.2" d="M227.936 379.378L244.46 397.1C247.286 396.948 250.022 395.985 252.379 394.309C254.737 392.632 256.631 390.305 257.86 387.571L236.821 365.008C234.272 366.326 232.104 368.357 230.539 370.885C228.975 373.414 228.077 376.348 227.936 379.378Z" fill="white"/>
<path d="M399.938 462.72L372.656 463.458L383.539 455.146C384.419 454.481 385.142 453.605 385.647 452.587C386.155 451.568 386.431 450.437 386.455 449.283L386.934 440.006L401.739 440.062L399.938 462.72Z" fill="#FC9D9D"/>
<path opacity="0.15" d="M396.913 452.02V451.846C396.963 451.365 396.836 450.881 396.56 450.498C396.282 450.115 395.876 449.864 395.429 449.797L386.576 448.435L386.679 446.607H401.381L400.052 462.096L388.163 460.672L392.09 458.995C393.407 458.407 394.549 457.448 395.397 456.221C396.246 454.992 396.77 453.541 396.913 452.02Z" fill="black"/>
<path d="M449.03 462.151H436.771L434.49 439.895L448.978 439.951L449.03 462.151Z" fill="#FC9D9D"/>
<path opacity="0.15" d="M445.951 458.392L445.633 451.562C445.601 451.132 445.442 450.725 445.175 450.407C444.904 450.087 444.546 449.871 444.149 449.797L435.338 448.372L435.125 446.496L448.925 446.551L448.978 462.317L445.951 458.392Z" fill="black"/>
<path d="M447.12 273.416L449.827 447.598H433.908L420.056 299.257C420.003 298.798 419.794 298.373 419.471 298.065C419.148 297.756 418.733 297.585 418.301 297.581C417.872 297.579 417.457 297.748 417.143 298.061C416.826 298.371 416.634 298.8 416.602 299.257L401.85 447.598H385.935L389.58 273.416H447.12Z" fill="#0F8BBE"/>
<path d="M450.253 447.596H433.267L432.948 443.895H450.201L450.253 447.596Z" fill="#3B75F1"/>
<path opacity="0.2" d="M450.253 447.596H433.267L432.948 443.895H450.201L450.253 447.596Z" fill="black"/>
<path opacity="0.2" d="M450.253 447.596H443.138L442.982 443.895H450.201L450.253 447.596Z" fill="black"/>
<path opacity="0.2" d="M395.673 446.559L408.003 305.461C408.246 303.287 409.223 301.282 410.748 299.826C412.272 298.369 414.241 297.561 416.283 297.553H418.248C417.82 297.549 417.403 297.72 417.091 298.03C416.773 298.343 416.582 298.77 416.55 299.227L401.901 446.798L395.673 446.559Z" fill="black"/>
<path d="M402.218 447.596H385.289L385.555 443.895H402.594L402.218 447.596Z" fill="#3B75F1"/>
<path opacity="0.2" d="M402.218 447.596H385.289L385.555 443.895H402.594L402.218 447.596Z" fill="black"/>
<path opacity="0.2" d="M402.342 447.596H395.673L395.917 443.895H402.592L402.342 447.596Z" fill="black"/>
<path opacity="0.2" d="M447.118 273.413L449.88 443.781L443.035 443.837L439.745 265.678L447.118 273.413Z" fill="black"/>
<path d="M362.839 467.559V466.932C362.839 466.44 362.929 465.949 363.104 465.497C363.281 465.04 363.538 464.627 363.863 464.274C364.188 463.928 364.573 463.65 364.998 463.458C365.422 463.269 365.879 463.174 366.339 463.174H371.224C371.733 463.18 372.24 463.073 372.714 462.872C373.187 462.666 373.619 462.364 373.984 461.979L386.482 449.285L390.356 454.752C390.66 455.179 391.049 455.527 391.496 455.769C391.943 456.013 392.434 456.144 392.935 456.154C393.435 456.166 393.931 456.055 394.386 455.832C394.842 455.608 395.244 455.278 395.564 454.864C395.879 454.466 396.268 454.143 396.706 453.917C397.146 453.694 397.623 453.569 398.109 453.557H400.713V467.329L362.839 467.559Z" fill="#7B8399"/>
<path d="M362.839 467.558V469.607H400.787V467.33L362.839 467.558Z" fill="black"/>
<path d="M388.95 452.7L380.513 460.044C380.062 460.431 379.496 460.626 378.921 460.592C378.347 460.558 377.802 460.302 377.388 459.871L376.753 459.19L386.455 449.282C386.707 449.206 386.974 449.214 387.222 449.307C387.468 449.397 387.682 449.569 387.836 449.796L388.845 451.332C388.977 451.507 389.059 451.716 389.088 451.938C389.114 452.16 389.086 452.383 389.001 452.589L388.95 452.7Z" fill="black"/>
<path d="M438.364 452.075H437.354C436.895 452.069 436.448 452.246 436.104 452.572C435.766 452.899 435.546 453.35 435.496 453.84L435.287 457.938C435.223 459.208 434.911 460.447 434.38 461.579L434.011 462.317C433.333 463.747 432.989 465.327 433.001 466.931V467.668H452.429C452.425 465.635 451.852 463.656 450.783 461.976C449.987 460.719 449.498 459.274 449.352 457.765L448.946 453.654C448.852 453.201 448.617 452.794 448.279 452.504C447.941 452.216 447.52 452.059 447.088 452.063H446.4" fill="#7B8399"/>
<path d="M452.32 467.611H432.948V469.606H452.32V467.611Z" fill="black"/>
<path d="M440.91 450.196H443.775C444.119 450.194 444.457 450.27 444.769 450.421C445.083 450.57 445.357 450.79 445.583 451.066C445.812 451.34 445.977 451.665 446.082 452.015C446.18 452.366 446.206 452.737 446.165 453.099L445.53 458.685C445.425 459.511 445.045 460.276 444.463 460.828C443.873 461.383 443.123 461.689 442.344 461.701C441.551 461.707 440.786 461.399 440.198 460.828C439.604 460.26 439.24 459.472 439.161 458.628L438.579 453.045C438.532 452.686 438.552 452.323 438.65 451.977C438.744 451.63 438.905 451.31 439.129 451.04C439.355 450.77 439.625 450.552 439.931 450.407C440.239 450.262 440.572 450.19 440.91 450.196Z" fill="black"/>
<path d="M437.198 453.898H447.493" stroke="white" stroke-width="1.34" stroke-linecap="round" stroke-linejoin="round"/>
<path d="M437.515 456.514H447.176" stroke="white" stroke-width="1.34" stroke-linecap="round" stroke-linejoin="round"/>
<path d="M437.782 459.072H446.911" stroke="white" stroke-width="1.34" stroke-linecap="round" stroke-linejoin="round"/>
<path d="M379.29 455.322L383.06 459.136" stroke="white" stroke-width="1.34" stroke-linecap="round" stroke-linejoin="round"/>
<path d="M381.309 453.326L385.184 457.253" stroke="white" stroke-width="1.34" stroke-linecap="round" stroke-linejoin="round"/>
<path d="M383.378 451.449L387.199 455.32" stroke="white" stroke-width="1.34" stroke-linecap="round" stroke-linejoin="round"/>
<path d="M382.675 212.39L387.169 206.615L388.898 272.707C388.918 272.874 388.994 273.029 389.11 273.142C389.227 273.257 389.375 273.323 389.533 273.333H446.644C447.003 273.339 447.347 273.194 447.608 272.928C447.862 272.662 448.014 272.298 448.023 271.915L449.825 213.458L459.985 188.839C459.985 182.595 454.871 180.221 450.783 179.082L429.241 172.939L427.584 174.949C426.532 176.23 425.204 177.218 423.716 177.826C422.226 178.435 420.621 178.648 419.039 178.444C417.461 178.241 415.947 177.628 414.635 176.659C413.324 175.691 412.249 174.395 411.509 172.883H413.258L390.762 177.295H390.7C387.6 177.552 384.717 179.098 382.664 181.601L370.213 201.07L382.675 212.39Z" fill="#06214E"/>
<path opacity="0.3" d="M431.032 185.481C431.032 185.481 429.583 180.812 427.161 180.292L418.002 187.05C418.002 187.05 414.091 181.85 409.253 180.292C407.479 181.416 406.017 183.026 405.014 184.956L405.379 177.695L429.141 177.137C429.141 177.137 431.999 183.403 431.032 185.481Z" fill="black"/>
<path d="M370.213 201.035L362.401 211.256L324.641 231.506L330.447 238.258C330.447 238.258 363.88 228.524 372.306 224.196C373.246 223.716 374.08 223.027 374.754 222.175L382.675 212.388L370.213 201.035Z" fill="#FC9D9D"/>
<path d="M325.609 231.505L316.61 227.243L308.861 224.003C308.657 223.912 308.431 223.884 308.211 223.918C307.992 223.953 307.785 224.049 307.612 224.198C307.33 224.46 307.195 224.823 307.779 225.238L317.111 232.687C317.188 232.75 317.245 232.836 317.275 232.937C317.303 233.036 317.301 233.143 317.271 233.241C317.241 233.34 317.183 233.425 317.104 233.487C317.025 233.548 316.931 233.58 316.835 233.582H312.147C312.147 233.582 310.611 235.446 313.34 236.028L322.084 238.373C322.084 238.373 328.093 240.132 330.826 237.815L325.609 231.505Z" fill="#FC9D9D"/>
<path d="M429.188 171.184L430.173 172.116C430.173 172.116 433.938 178.215 431.734 185.107L431.011 185.481L430.953 184.889C430.823 183.643 430.396 182.454 429.714 181.436C429.032 180.418 428.119 179.605 427.058 179.075C423.787 181.398 420.747 184.07 417.981 187.051C417.981 187.051 413.852 180.684 409.363 179.193C409.363 179.193 406.077 179.751 404.993 184.956L404.332 184.828C404.332 184.828 402.771 177.132 406.254 172.742L408.379 170.754C408.96 170.384 409.625 170.191 410.301 170.195H426.693C427.61 170.188 428.495 170.539 429.188 171.184Z" fill="#21252B"/>
<path d="M429.188 171.184L430.173 172.116C430.173 172.116 433.938 178.215 431.734 185.107L431.011 185.481L430.953 184.889C430.823 183.643 430.396 182.454 429.714 181.436C429.032 180.418 428.119 179.605 427.058 179.075C423.787 181.398 420.747 184.07 417.981 187.051C417.981 187.051 413.852 180.684 409.363 179.193C409.363 179.193 406.077 179.751 404.993 184.956L404.332 184.828C404.332 184.828 402.771 177.132 406.254 172.742L408.379 170.754C408.96 170.384 409.625 170.191 410.301 170.195H426.693C427.61 170.188 428.495 170.539 429.188 171.184Z" fill="white"/>
<path opacity="0.3" d="M435.49 273.306L440.177 273.475H446.603C447.009 273.483 447.4 273.32 447.691 273.02C447.982 272.722 448.155 272.311 448.164 271.877L451.165 213.537L446.201 209.852C446.066 209.532 445.836 209.27 445.551 209.104C445.265 208.939 444.936 208.883 444.613 208.939C444.29 208.998 443.999 209.169 443.775 209.427C443.556 209.683 443.42 210.011 443.39 210.36L443.005 239.886L435.49 273.306Z" fill="black"/>
<path opacity="0.2" d="M435.49 273.311L433.887 278.279L432.997 276.655C432.809 276.857 432.683 277.115 432.632 277.395C432.585 277.673 432.612 277.963 432.715 278.225C433.574 280.324 436.08 285.686 440.76 289.658L438.158 273.46L435.49 273.311Z" fill="black"/>
<path d="M405.578 148.679C406.84 148.679 408.073 148.278 409.121 147.526C410.171 146.774 410.989 145.706 411.471 144.456C411.954 143.206 412.08 141.83 411.834 140.503C411.588 139.176 410.981 137.957 410.089 137C409.196 136.043 408.06 135.392 406.821 135.128C405.585 134.863 404.302 134.999 403.137 135.517C401.97 136.035 400.975 136.911 400.274 138.037C399.573 139.162 399.199 140.485 399.199 141.838C399.195 142.737 399.359 143.628 399.678 144.46C399.998 145.29 400.467 146.046 401.061 146.682C401.653 147.318 402.357 147.822 403.133 148.165C403.907 148.508 404.74 148.682 405.578 148.679Z" fill="#06214E"/>
<path d="M459.798 188.266L464.183 239.953C464.35 242.222 463.786 244.487 462.59 246.365L443.888 280.591C444.176 282.263 444.035 283.986 443.488 285.581C442.936 287.177 441.998 288.584 440.764 289.654C440.764 289.654 436.369 284.383 434.729 279.339L448.846 241.394L448.585 215.821L459.798 188.266Z" fill="#FC9D9D"/>
<path d="M427.595 173.127C427.595 173.412 418.996 185.174 417.835 185.174C416.668 184.548 409.337 174.149 409.388 173.87L409.707 166.922V163.013C409.499 162.103 408.488 161.248 408.488 160.053C408.17 154.529 407.586 149.52 407.586 149.52C407.586 149.52 424.413 137.451 425.47 151.514L426.782 154.155L427.595 173.127Z" fill="#FC9D9D"/>
<path d="M445.87 216.427L444.842 207.803L459.987 187.568L462.112 213.795L445.87 216.427Z" fill="#06214E"/>
<path d="M445.868 216.424L448.841 241.395L436.863 273.574L443.884 280.59L462.584 246.364C463.783 244.486 464.344 242.224 464.177 239.953L462.095 213.793L445.868 216.424Z" fill="#FC9D9D"/>
<path d="M384.049 210.798L371.29 199.332L370.202 201.181L382.664 212.547L384.049 210.798Z" fill="white"/>
<path d="M461.866 210.984L445.547 213.932L445.859 216.57L462.101 213.932L461.866 210.984Z" fill="white"/>
<path d="M405.995 136.25C405.995 136.25 398.773 166.213 413.363 168.38C426.002 170.24 427.486 149.078 427.486 149.078L426.966 139.227L417.232 135.016L405.995 136.25Z" fill="#FC9D9D"/>
<path opacity="0.15" d="M426.725 154.305C426.387 154.227 426.07 154.065 425.799 153.832C425.529 153.599 425.309 153.302 425.164 152.965L426.804 156.238L426.725 154.305Z" fill="black"/>
<path opacity="0.15" d="M421.793 165.415C420.212 167.387 417.993 168.642 415.582 168.928C413.775 170.197 411.637 170.815 409.478 170.693L409.76 166.85L410.245 167.157C412.048 168.225 414.141 168.592 416.168 168.197C418.196 167.803 420.033 166.67 421.373 164.99C421.429 164.873 421.649 164.884 421.758 164.946C421.805 165.013 421.831 165.093 421.835 165.175C421.84 165.257 421.825 165.34 421.793 165.415Z" fill="black"/>
<path d="M416.217 148.719C416.454 148.728 416.679 148.813 416.873 148.961C417.065 149.109 417.211 149.315 417.294 149.552C417.378 149.79 417.393 150.049 417.341 150.296C417.29 150.543 417.164 150.768 416.993 150.941C416.82 151.114 416.604 151.229 416.371 151.271C416.138 151.312 415.898 151.279 415.682 151.174C415.466 151.07 415.285 150.899 415.16 150.684C415.034 150.469 414.97 150.219 414.977 149.965C414.983 149.796 415.019 149.629 415.082 149.475C415.148 149.321 415.24 149.182 415.357 149.066C415.471 148.95 415.607 148.86 415.755 148.801C415.902 148.741 416.059 148.714 416.217 148.719Z" fill="black"/>
<path d="M415.82 149.631C415.824 149.502 415.728 149.393 415.608 149.389C415.488 149.384 415.387 149.486 415.383 149.615C415.379 149.745 415.473 149.853 415.593 149.857C415.715 149.861 415.815 149.76 415.82 149.631Z" fill="white"/>
<path d="M406.859 151.311C407.52 151.311 408.056 150.736 408.056 150.027C408.056 149.317 407.52 148.742 406.859 148.742C406.198 148.742 405.66 149.317 405.66 150.027C405.66 150.736 406.198 151.311 406.859 151.311Z" fill="black"/>
<path d="M406.556 149.582C406.56 149.453 406.466 149.344 406.346 149.34C406.224 149.335 406.123 149.437 406.119 149.566C406.115 149.696 406.209 149.804 406.331 149.809C406.451 149.812 406.552 149.712 406.556 149.582Z" fill="white"/>
<path opacity="0.2" d="M410.88 157.242L412.405 157.354C412.494 157.343 412.576 157.306 412.646 157.247C412.713 157.187 412.766 157.108 412.796 157.019C412.787 156.924 412.751 156.834 412.696 156.76C412.64 156.686 412.567 156.63 412.482 156.6L410.957 156.488C410.583 156.416 410.265 156.053 410.333 155.701C410.35 155.51 410.436 155.334 410.572 155.209C410.707 155.085 410.883 155.021 411.062 155.031C411.148 155.019 411.233 154.98 411.302 154.92C411.372 154.86 411.423 154.78 411.451 154.69C411.509 154.517 411.301 154.338 411.139 154.271C410.774 154.245 410.414 154.37 410.132 154.621C409.85 154.871 409.668 155.227 409.625 155.617C409.602 155.812 409.617 156.011 409.67 156.2C409.722 156.39 409.809 156.566 409.927 156.718C410.044 156.87 410.188 156.994 410.352 157.085C410.517 157.175 410.696 157.228 410.88 157.242Z" fill="black"/>
<path opacity="0.2" d="M448.795 241.588L451.57 241.197C451.723 241.199 451.879 241.164 452.014 241.098C452.155 241.029 452.279 240.931 452.378 240.806C452.478 240.681 452.549 240.534 452.592 240.375C452.634 240.217 452.639 240.052 452.613 239.889L448.504 238.732L448.795 241.588Z" fill="black"/>
<path d="M403.973 127.584C404.757 127.051 405.653 126.734 406.579 126.664C407.505 126.594 408.433 126.772 409.279 127.182C409.704 127.385 410.183 127.415 410.626 127.267C411.071 127.119 411.449 126.803 411.691 126.378C412.294 125.359 413.125 124.519 414.107 123.934C415.092 123.349 416.197 123.037 417.32 123.027C421.341 122.854 423.105 125.21 423.856 126.534C423.995 126.805 424.2 127.035 424.445 127.205C424.683 127.375 424.965 127.48 425.251 127.511C427.126 127.796 430.932 129.293 432.277 133.431C434.635 140.692 429.756 148.667 429.756 148.667L426.752 146.651L426.231 147.572L425.709 150.365C425.709 150.655 425.335 150.884 425.068 150.884C424.918 150.863 424.777 150.78 424.679 150.652C424.585 150.524 424.538 150.361 424.548 150.197L424.709 147.204C424.721 147.089 424.709 146.974 424.679 146.864C424.647 146.755 424.595 146.653 424.522 146.567C424.454 146.481 424.366 146.411 424.272 146.363C424.174 146.315 424.069 146.29 423.96 146.288C423.584 146.253 423.216 146.139 422.881 145.952C422.543 145.764 422.246 145.507 422.008 145.195C421.762 144.884 421.579 144.523 421.47 144.136C421.356 143.748 421.32 143.341 421.356 142.937C421.397 142.532 421.367 142.121 421.256 141.731C421.147 141.34 420.965 140.977 420.721 140.664C420.48 140.351 420.18 140.094 419.841 139.909C419.501 139.723 419.133 139.613 418.752 139.586L405.952 138.67C401.557 137.933 399.896 130.293 403.973 127.584Z" fill="#06214E"/>
<path d="M415.186 159.711C415.368 159.711 415.424 159.845 415.398 160.007C415.244 160.644 414.912 161.214 414.447 161.644C413.982 162.073 413.407 162.341 412.796 162.41C412.185 162.48 411.571 162.349 411.032 162.034C410.493 161.72 410.057 161.236 409.781 160.649C409.764 160.617 409.754 160.58 409.754 160.544C409.752 160.507 409.76 160.471 409.775 160.438C409.79 160.404 409.812 160.375 409.839 160.353C409.865 160.331 409.897 160.315 409.931 160.309L415.186 159.711Z" fill="white"/>
<path d="M426.393 147.457C426.47 147.118 426.611 146.801 426.814 146.527C427.017 146.254 427.272 146.032 427.563 145.876C427.851 145.719 428.174 145.633 428.497 145.622C428.818 145.612 429.147 145.678 429.444 145.815C432.245 146.792 431.563 152.908 427.762 154.192C425.408 154.634 425.778 153.126 426.008 151.093L426.393 147.457Z" fill="#FC9D9D"/>
<path opacity="0.2" d="M429.714 147.518C429.523 147.373 429.297 147.277 429.064 147.238C428.83 147.2 428.589 147.219 428.36 147.295C428.153 147.379 427.954 147.507 427.792 147.672C427.627 147.837 427.496 148.035 427.402 148.255C427.148 148.814 427.054 149.442 427.131 150.059V150.584C427.152 150.656 427.195 150.719 427.251 150.759C427.31 150.8 427.381 150.815 427.449 150.803C427.516 150.79 427.58 150.75 427.627 150.691C427.668 150.632 427.689 150.558 427.684 150.483V149.959C427.663 149.444 427.73 148.93 427.892 148.445C428.027 148.154 428.245 147.917 428.518 147.769C428.815 147.708 429.115 147.76 429.382 147.914C429.45 147.945 429.523 147.951 429.59 147.934C429.658 147.915 429.72 147.873 429.767 147.814C429.87 147.82 429.823 147.641 429.714 147.518Z" fill="black"/>
<path d="M413.668 146.609C413.767 146.81 414.711 146.654 415.783 146.693C416.856 146.732 417.773 146.916 417.908 146.721C417.965 146.626 417.805 146.442 417.435 146.263C416.939 146.04 416.409 145.92 415.872 145.911C415.314 145.89 414.757 145.981 414.231 146.179C413.814 146.336 413.623 146.514 413.668 146.609Z" fill="black"/>
<path d="M409.072 146.613C408.967 146.814 408.03 146.652 406.953 146.691C405.875 146.73 404.963 146.909 404.828 146.691C404.77 146.597 404.937 146.412 405.302 146.233C405.807 146.01 406.348 145.892 406.895 145.887C407.451 145.868 408.005 145.959 408.529 146.155C408.926 146.34 409.114 146.518 409.072 146.613Z" fill="black"/>
<path opacity="0.15" d="M329.412 237.036L330.452 238.247C330.452 238.247 363.885 228.513 372.312 224.185C373.251 223.703 374.085 223.014 374.76 222.162L382.602 212.49L379.831 210.713L372.395 220.09C371.929 220.725 371.303 221.207 370.593 221.475L329.412 237.036Z" fill="black"/>
<path opacity="0.3" d="M386.329 191.882L386.1 201.873L380.16 210.469L382.596 212.5L387.22 206.731V191.893C387.22 191.831 387.209 191.769 387.186 191.711C387.166 191.654 387.132 191.601 387.09 191.557C387.049 191.513 387.002 191.478 386.948 191.454C386.893 191.43 386.837 191.418 386.779 191.418C386.662 191.417 386.549 191.464 386.465 191.552C386.382 191.638 386.333 191.757 386.329 191.882Z" fill="black"/>
<path opacity="0.15" d="M329.412 237.033C329.412 237.033 327.257 238.496 322.075 238.373C322.075 238.373 327.548 239.808 330.449 238.256L329.412 237.033Z" fill="black"/>
<path d="M561.038 382.836H466.234V424.259H561.038V382.836Z" fill="#B3BAC5"/>
<path opacity="0.15" d="M561.045 382.836H500.648V424.259H561.045V382.836Z" fill="black"/>
<path d="M565.955 379.066H461.319V388.857H565.955V379.066Z" fill="#0F8BBE"/>
<path opacity="0.1" d="M565.955 379.066H500.648V388.857H565.955V379.066Z" fill="black"/>
<path opacity="0.1" d="M561.038 388.852H466.234V390.361H561.038V388.852Z" fill="black"/>
<path d="M494.326 408.439H471.854V417.476H494.326V408.439Z" fill="white"/>
<path opacity="0.15" d="M490.82 397.143H473.964V400.906H490.82V397.143Z" fill="black"/>
<path d="M552.659 428.072H457.855V469.495H552.659V428.072Z" fill="#B3BAC5"/>
<path opacity="0.15" d="M552.666 428.072H492.269V469.495H552.666V428.072Z" fill="black"/>
<path d="M557.575 424.303H452.94V434.093H557.575V424.303Z" fill="#0F8BBE"/>
<path opacity="0.1" d="M557.575 424.303H492.269V434.093H557.575V424.303Z" fill="black"/>
<path opacity="0.1" d="M552.659 434.092H457.855V435.599H552.659V434.092Z" fill="black"/>
<path d="M485.947 453.676H463.474V462.713H485.947V453.676Z" fill="white"/>
<path opacity="0.15" d="M482.441 442.379H465.584V446.143H482.441V442.379Z" fill="black"/>
<path d="M152.384 284.054C169.699 277.673 178.914 257.447 172.965 238.877C167.017 220.306 148.157 210.424 130.842 216.804C113.526 223.183 104.311 243.409 110.26 261.98C116.208 280.55 135.068 290.433 152.384 284.054Z" fill="#B3BAC5"/>
<path opacity="0.2" d="M152.384 284.054C169.699 277.673 178.914 257.447 172.965 238.877C167.017 220.306 148.157 210.424 130.842 216.804C113.526 223.183 104.311 243.409 110.26 261.98C116.208 280.55 135.068 290.433 152.384 284.054Z" fill="black"/>
<path d="M141.43 285.485C159.688 284.02 173.381 266.957 172.015 247.376C170.648 227.795 154.74 213.11 136.482 214.575C118.224 216.042 104.53 233.103 105.897 252.684C107.263 272.265 123.172 286.949 141.43 285.485Z" fill="#7B8399"/>
<path d="M141.43 285.485C159.688 284.02 173.381 266.957 172.015 247.376C170.648 227.795 154.74 213.11 136.482 214.575C118.224 216.042 104.53 233.103 105.897 252.684C107.263 272.265 123.172 286.949 141.43 285.485Z" fill="#B3BAC5"/>
<path opacity="0.2" d="M152.428 274.588C165.095 266.621 169.342 249.149 161.913 235.563C154.484 221.978 138.193 217.424 125.525 225.391C112.858 233.358 108.611 250.83 116.04 264.417C123.469 278.001 139.761 282.555 152.428 274.588Z" fill="black"/>
<path opacity="0.2" d="M113.772 248.81C114.362 241.272 117.719 234.296 123.105 229.414C128.491 224.532 135.464 222.146 142.492 222.777C147.975 223.268 153.475 226.099 157.458 229.535C152.388 224.282 145.579 221.403 138.531 221.531C131.481 221.662 124.769 224.79 119.87 230.228C114.971 235.664 112.287 242.966 112.408 250.526C112.529 258.086 115.446 265.286 120.516 270.539C118.077 267.387 116.3 263.706 115.308 259.749C114.402 256.511 113.491 252.4 113.772 248.81Z" fill="black"/>
<path d="M135.82 269.551L136.138 265.473C131.857 264.876 129.832 263.111 130.269 257.566C130.353 256.371 130.527 255.189 130.79 254.024L136.211 254.509C136.103 255.043 136.028 255.581 135.987 256.123C135.794 258.537 135.836 259.911 138.034 260.107C140.231 260.302 140.491 259.486 140.731 256.397C140.851 254.878 140.893 254.354 140.169 253.55C138.684 251.785 134.768 250.322 132.977 248.684C131.368 247.278 131.118 245.462 131.498 240.592C131.935 235.007 133.649 233.248 138.643 233.433L138.898 230.193L141.976 230.473L141.721 233.711C146.293 234.332 147.766 236.208 147.381 241.179C147.3 242.249 147.15 243.311 146.933 244.356L141.564 243.871C141.654 243.282 141.717 242.69 141.752 242.096C141.924 239.899 141.715 238.745 139.669 238.588C137.908 238.43 137.372 239.013 137.169 241.632C136.956 244.352 137.08 244.63 138.679 245.541C140.413 246.591 142.127 247.328 143.626 248.255C145.736 249.601 147.157 250.254 146.751 255.65C146.157 263.24 144.637 265.737 139.231 265.702L138.908 269.829L135.82 269.551Z" fill="#B3BAC5"/>
<path d="M512.744 329.83C530.059 323.451 539.27 303.225 533.324 284.653C527.372 266.084 508.515 256.201 491.2 262.582C473.885 268.961 464.667 289.187 470.619 307.757C476.568 326.328 495.423 336.209 512.744 329.83Z" fill="#B3BAC5"/>
<path opacity="0.2" d="M512.744 329.83C530.059 323.451 539.27 303.225 533.324 284.653C527.372 266.084 508.515 256.201 491.2 262.582C473.885 268.961 464.667 289.187 470.619 307.757C476.568 326.328 495.423 336.209 512.744 329.83Z" fill="black"/>
<path d="M501.792 331.305C520.05 329.84 533.747 312.78 532.377 293.199C531.013 273.618 515.104 258.931 496.845 260.398C478.587 261.863 464.891 278.923 466.261 298.504C467.627 318.085 483.534 332.772 501.792 331.305Z" fill="#7B8399"/>
<path d="M501.792 331.305C520.05 329.84 533.747 312.78 532.377 293.199C531.013 273.618 515.104 258.931 496.845 260.398C478.587 261.863 464.891 278.923 466.261 298.504C467.627 318.085 483.534 332.772 501.792 331.305Z" fill="#B3BAC5"/>
<path opacity="0.2" d="M512.785 320.37C525.45 312.403 529.7 294.931 522.269 281.345C514.837 267.76 498.548 263.206 485.883 271.171C473.214 279.14 468.97 296.612 476.395 310.196C483.825 323.783 500.116 328.337 512.785 320.37Z" fill="black"/>
<path opacity="0.2" d="M474.135 294.605C474.723 287.069 478.082 280.091 483.467 275.209C488.857 270.329 495.829 267.941 502.854 268.574C508.338 269.065 513.837 271.896 517.82 275.332C515.31 272.73 512.347 270.683 509.099 269.311C505.854 267.937 502.386 267.264 498.891 267.328C495.403 267.393 491.961 268.193 488.757 269.686C485.554 271.177 482.659 273.331 480.233 276.023C477.806 278.717 475.901 281.894 474.619 285.376C473.338 288.86 472.712 292.579 472.771 296.323C472.833 300.067 473.577 303.76 474.967 307.194C476.357 310.627 478.368 313.734 480.878 316.335C478.441 313.182 476.665 309.501 475.671 305.546C474.764 302.306 473.853 298.195 474.135 294.605Z" fill="black"/>
<path d="M496.184 315.346L496.502 311.27C492.222 310.671 490.197 308.906 490.632 303.361C490.717 302.168 490.894 300.983 491.155 299.821L496.575 300.306C496.466 300.838 496.393 301.378 496.351 301.92C496.158 304.332 496.199 305.706 498.397 305.902C500.596 306.097 500.855 305.283 501.095 302.194C501.216 300.675 501.257 300.149 500.534 299.345C499.049 297.58 495.132 296.117 493.342 294.481C491.731 293.073 491.482 291.259 491.863 286.389C492.299 280.804 494.012 279.045 499.006 279.228L499.262 275.99L502.339 276.268L502.085 279.508C506.657 280.129 508.131 282.005 507.744 286.976C507.662 288.044 507.515 289.105 507.297 290.153L501.928 289.668C502.016 289.079 502.08 288.485 502.116 287.89C502.288 285.696 502.08 284.54 500.032 284.384C498.273 284.227 497.736 284.808 497.533 287.427C497.319 290.147 497.445 290.427 499.044 291.336C500.778 292.388 502.491 293.123 503.991 294.052C506.074 295.398 507.521 296.051 507.115 301.445C506.521 309.035 505.001 311.531 499.596 311.499L499.273 315.626L496.184 315.346Z" fill="#B3BAC5"/>
<path d="M348.699 125.436C366.014 119.056 375.23 98.8302 369.281 80.2599C363.331 61.6895 344.472 51.8069 327.157 58.1866C309.84 64.5668 300.627 84.7925 306.575 103.363C312.523 121.933 331.382 131.816 348.699 125.436Z" fill="#B3BAC5"/>
<path opacity="0.2" d="M348.699 125.436C366.014 119.056 375.23 98.8302 369.281 80.2599C363.331 61.6895 344.472 51.8069 327.157 58.1866C309.84 64.5668 300.627 84.7925 306.575 103.363C312.523 121.933 331.382 131.816 348.699 125.436Z" fill="black"/>
<path d="M337.761 126.884C356.019 125.419 369.713 108.357 368.346 88.7766C366.98 69.1957 351.07 54.5103 332.812 55.9758C314.556 57.4407 300.862 74.5026 302.229 94.0833C303.595 113.664 319.503 128.35 337.761 126.884Z" fill="#7B8399"/>
<path d="M337.761 126.884C356.019 125.419 369.713 108.357 368.346 88.7766C366.98 69.1957 351.07 54.5103 332.812 55.9758C314.556 57.4407 300.862 74.5026 302.229 94.0833C303.595 113.664 319.503 128.35 337.761 126.884Z" fill="#B3BAC5"/>
<path opacity="0.2" d="M348.742 115.975C361.409 108.008 365.657 90.5358 358.228 76.9506C350.8 63.3652 334.507 58.8108 321.84 66.7783C309.173 74.7457 304.925 92.2175 312.354 105.803C319.785 119.388 336.076 123.942 348.742 115.975Z" fill="black"/>
<path opacity="0.2" d="M310.096 90.1963C310.686 82.66 314.043 75.6834 319.43 70.8016C324.814 65.9198 331.788 63.533 338.817 64.165C344.299 64.6565 349.798 67.4881 353.783 70.9229C351.271 68.3214 348.309 66.2757 345.06 64.9023C341.814 63.5295 338.345 62.8559 334.855 62.9202C331.364 62.9845 327.92 63.7852 324.718 65.2771C321.517 66.7693 318.62 68.9229 316.194 71.6154C313.769 74.3078 311.862 77.4861 310.581 80.9689C309.301 84.4517 308.672 88.1713 308.732 91.9148C308.792 95.6577 309.54 99.3517 310.93 102.786C312.322 106.219 314.329 109.326 316.841 111.927C314.4 108.774 312.625 105.093 311.633 101.137C310.727 97.8979 309.816 93.7875 310.096 90.1963Z" fill="black"/>
<path d="M332.145 110.937L332.463 106.86C328.181 106.262 326.156 104.498 326.593 98.9516C326.676 97.7582 326.851 96.5742 327.114 95.4108L332.534 95.8968C332.427 96.4289 332.352 96.9679 332.311 97.5108C332.119 99.9234 332.16 101.297 334.358 101.493C336.555 101.688 336.816 100.873 337.054 97.7844C337.175 96.2653 337.216 95.7405 336.493 94.9361C335.008 93.1714 331.093 91.708 329.301 90.0717C327.692 88.6642 327.443 86.8492 327.822 81.9791C328.26 76.3943 329.973 74.6349 334.967 74.8193L335.223 71.5801L338.3 71.8594L338.045 75.0985C342.618 75.7185 344.091 77.595 343.705 82.5657C343.625 83.6346 343.474 84.6962 343.258 85.7434L337.889 85.2574C337.979 84.6694 338.041 84.0762 338.077 83.4814C338.248 81.2866 338.039 80.1584 335.993 79.9743C334.233 79.8177 333.697 80.3986 333.492 83.018C333.28 85.7378 333.404 86.017 335.003 86.9274C336.737 87.9773 338.45 88.7146 339.95 89.6417C342.033 90.9876 343.482 91.6411 343.076 97.036C342.482 104.626 340.961 107.122 335.555 107.061L335.232 111.188L332.145 110.937Z" fill="#B3BAC5"/>
<path d="M465.178 97.252C461.611 97.2509 458.101 98.2373 454.992 100.117C451.882 101.996 449.28 104.704 447.431 107.978C445.583 111.253 444.557 114.985 444.446 118.81C444.337 122.636 445.151 126.427 446.806 129.818L443.217 136.944L450.633 135.347C453.06 137.909 456.034 139.791 459.298 140.827C462.563 141.863 466.016 142.021 469.355 141.288C472.688 140.555 475.801 138.952 478.426 136.622C481.045 134.291 483.093 131.305 484.383 127.926C485.67 124.547 486.165 120.879 485.821 117.246C485.477 113.614 484.306 110.128 482.405 107.097C480.509 104.066 477.947 101.581 474.943 99.8647C471.938 98.1478 468.585 97.2503 465.178 97.252Z" fill="white"/>
<path d="M465.179 142.3C459.696 142.313 454.415 140.038 450.468 135.955L442.235 137.726L446.218 129.812C444.125 125.382 443.432 120.34 444.254 115.452C445.077 110.564 447.364 106.097 450.77 102.73C454.174 99.3635 458.513 97.2815 463.121 96.8008C467.73 96.3192 472.361 97.4659 476.308 100.065C480.256 102.664 483.301 106.574 484.988 111.201C486.67 115.828 486.899 120.918 485.64 125.698C484.385 130.478 481.702 134.685 478.011 137.682C474.313 140.679 469.808 142.3 465.179 142.3ZM450.8 134.76L450.999 134.967C454.629 138.803 459.476 141.028 464.575 141.198C469.667 141.368 474.636 139.47 478.484 135.884C482.332 132.298 484.78 127.286 485.332 121.851C485.885 116.416 484.504 110.957 481.468 106.565C478.437 102.172 473.964 99.1697 468.955 98.1566C463.944 97.1435 458.762 98.1947 454.447 101.1C450.129 104.005 446.988 108.551 445.662 113.828C444.328 119.107 444.906 124.729 447.27 129.572L447.396 129.84L444.204 136.179L450.8 134.76Z" fill="#0F8BBE"/>
<path d="M474.676 127.256H458.357L453.925 112.049H450.618V110.932H454.689L459.121 126.139H474.676V127.256Z" fill="#3B75F1"/>
<path d="M473.485 124.274H457.43L454.468 113.713H475.298L473.485 124.274ZM458.206 123.157H472.62L474.052 114.83H455.867L458.206 123.157Z" fill="#0F8BBE"/>
<path d="M461.111 130.084C460.767 130.083 460.429 129.973 460.147 129.767C459.862 129.561 459.638 129.27 459.506 128.928C459.377 128.588 459.341 128.213 459.409 127.851C459.476 127.49 459.642 127.158 459.888 126.898C460.132 126.638 460.438 126.461 460.778 126.389C461.117 126.318 461.464 126.354 461.784 126.496C462.101 126.637 462.372 126.877 462.563 127.183C462.751 127.49 462.856 127.85 462.856 128.219C462.856 128.714 462.668 129.188 462.34 129.538C462.017 129.888 461.575 130.084 461.111 130.084ZM461.111 127.47C460.97 127.471 460.84 127.516 460.726 127.599C460.611 127.682 460.523 127.799 460.47 127.936C460.418 128.073 460.403 128.223 460.435 128.368C460.461 128.513 460.529 128.646 460.626 128.75C460.72 128.854 460.846 128.925 460.981 128.953C461.117 128.982 461.258 128.967 461.382 128.91C461.511 128.853 461.622 128.757 461.693 128.634C461.772 128.511 461.814 128.367 461.814 128.219C461.808 128.024 461.731 127.84 461.601 127.705C461.464 127.571 461.293 127.497 461.111 127.498V127.47Z" fill="#0F8BBE"/>
<path d="M471.687 130.084C471.345 130.084 471.005 129.975 470.719 129.77C470.437 129.565 470.214 129.274 470.078 128.933C469.949 128.592 469.917 128.217 469.979 127.855C470.046 127.493 470.214 127.161 470.458 126.9C470.704 126.639 471.01 126.461 471.348 126.389C471.687 126.317 472.036 126.355 472.354 126.495C472.671 126.637 472.942 126.876 473.135 127.183C473.323 127.49 473.426 127.85 473.426 128.219C473.426 128.713 473.239 129.187 472.917 129.536C472.588 129.886 472.151 130.083 471.687 130.084ZM471.687 127.471C471.551 127.471 471.416 127.515 471.301 127.597C471.187 127.679 471.093 127.796 471.042 127.932C470.99 128.069 470.975 128.22 471.005 128.365C471.031 128.511 471.099 128.643 471.193 128.748C471.292 128.853 471.416 128.924 471.551 128.953C471.687 128.982 471.828 128.967 471.953 128.91C472.083 128.854 472.192 128.758 472.265 128.635C472.344 128.512 472.386 128.367 472.386 128.219C472.374 128.026 472.303 127.844 472.171 127.71C472.042 127.576 471.869 127.5 471.687 127.498V127.471Z" fill="#0F8BBE"/>
</g>
<defs>
<clipPath id="clip0_120_754">
<rect width="620" height="540" fill="white"/>
</clipPath>
</defs>
</svg>
