<svg width="620" height="540" viewBox="0 0 620 540" fill="none" xmlns="http://www.w3.org/2000/svg">
<g clip-path="url(#clip0_120_289)">
<mask id="mask0_120_289" style="mask-type:luminance" maskUnits="userSpaceOnUse" x="-12" y="0" width="644" height="540">
<path d="M631.128 0H-11.1282V540H631.128V0Z" fill="white"/>
</mask>
<g mask="url(#mask0_120_289)">
<path d="M146.807 440.127C54.9275 463.789 54.9275 502.14 146.807 525.816C238.687 549.491 387.659 549.473 479.548 525.816C571.438 502.158 571.427 463.804 479.548 440.127C387.669 416.453 238.697 416.467 146.807 440.127Z" fill="#FAFAFA"/>
<path d="M527.604 469.531L541.613 311.582C541.899 308.198 541.57 304.785 540.65 301.547L490.875 128.297C489.59 123.835 487.202 119.874 483.991 116.871C480.78 113.868 476.879 111.948 472.731 111.332L197.685 70.6516C193.909 70.0963 190.068 70.6459 186.537 72.2465C183.007 73.8476 179.905 76.4449 177.535 79.7867L83.042 213.077C79.6525 217.85 77.9647 223.863 78.3054 229.951L91.1505 469.171L527.604 469.531Z" fill="#F4F4F4"/>
<path d="M133.379 391.86H99.7009C99.424 391.86 99.1587 391.737 98.9631 391.517C98.7673 391.298 98.6573 391.001 98.6573 390.69C98.6573 390.38 98.7673 390.083 98.9631 389.864C99.1587 389.644 99.424 389.52 99.7009 389.52H133.379C133.517 389.52 133.653 389.548 133.78 389.607C133.907 389.666 134.022 389.751 134.12 389.86C134.217 389.969 134.294 390.099 134.346 390.241C134.398 390.384 134.424 390.537 134.423 390.69C134.418 390.999 134.306 391.293 134.111 391.512C133.917 391.729 133.655 391.854 133.379 391.86Z" fill="#7B8399"/>
<path d="M131.973 391.859L137.553 468.899H136.429L128.04 391.859H131.973Z" fill="#7B8399"/>
<path d="M100.907 391.859L95.2868 468.899H96.4108L104.8 391.859H100.907Z" fill="#7B8399"/>
<path d="M100.905 391.859L100.745 393.344H102.672L95.928 468.899H96.4097L104.799 391.859H100.905Z" fill="#7B8399"/>
<path d="M133.499 421.379H132.495L128.04 391.859H131.973L137.553 468.899H136.991L133.499 421.379Z" fill="#7B8399"/>
<path d="M114.032 391.859L114.915 468.899H116.039L117.965 391.859H114.032Z" fill="#7B8399"/>
<path d="M121.859 370.482C121.859 370.482 124.308 348.569 129.928 336.598" stroke="#7B8399" stroke-width="0.55" stroke-miterlimit="10"/>
<path d="M117.725 332.818C117.725 332.818 121.538 350.458 120.936 362.654" stroke="#7B8399" stroke-width="0.55" stroke-miterlimit="10"/>
<path d="M129.406 337.683C129.406 337.683 129.446 325.847 138.678 325.172C138.678 325.127 139.441 335.523 129.406 337.683Z" fill="#0F8BBE"/>
<path d="M107.289 335.117C107.289 335.117 104.8 323.866 93.8818 327.062C93.8818 327.062 95.9692 335.297 107.289 335.117Z" fill="#0F8BBE"/>
<path d="M119.13 339.752C119.13 339.752 122.382 330.167 114.835 325.172C114.835 325.127 111.503 334.577 119.13 339.752Z" fill="#0F8BBE"/>
<path d="M107.288 335.115C107.288 335.115 117.323 347.986 117.323 370.486" stroke="#7B8399" stroke-width="0.55" stroke-miterlimit="10"/>
<path d="M124.949 333.361C122.741 343.261 121.777 345.421 120.493 370.486" stroke="#7B8399" stroke-width="0.55" stroke-miterlimit="10"/>
<path d="M98.9785 319.637C103.394 321.886 117.323 338.266 114.995 370.081" stroke="#7B8399" stroke-width="0.55" stroke-miterlimit="10"/>
<path d="M113.308 370.08C113.308 370.08 116.198 348.031 104.035 340.695" stroke="#7B8399" stroke-width="0.55" stroke-miterlimit="10"/>
<path d="M122.261 367.156C123.183 364.6 124.709 362.375 126.677 360.721" stroke="#7B8399" stroke-width="0.55" stroke-miterlimit="10"/>
<path d="M123.345 360.315C123.345 360.315 130.209 353.521 133.661 352.395" stroke="#7B8399" stroke-width="0.55" stroke-miterlimit="10"/>
<path d="M109.496 346.275C109.496 346.275 106.807 334.711 96.0491 337.411C96.0491 337.411 97.8956 347.266 109.496 346.275Z" fill="#0F8BBE"/>
<path opacity="0.4" d="M109.496 346.275C109.496 346.275 106.807 334.711 96.0491 337.411C96.0491 337.411 97.8956 347.266 109.496 346.275Z" fill="white"/>
<path d="M114.996 358.155C114.996 358.155 113.149 349.92 103.315 352.666C103.355 352.62 106.566 360.855 114.996 358.155Z" fill="#0F8BBE"/>
<path d="M121.698 352.801C121.698 352.801 122.621 339.886 134.623 338.311C134.583 338.311 135.185 350.955 121.698 352.801Z" fill="#0F8BBE"/>
<path d="M118.927 313.469C118.927 313.469 118.447 361.213 118.368 370.482" stroke="#7B8399" stroke-width="0.55" stroke-miterlimit="10"/>
<path d="M120.694 349.378C120.694 349.378 110.458 349.964 110.458 337.273C110.458 337.273 120.373 337.409 120.694 349.378Z" fill="#0F8BBE"/>
<path opacity="0.4" d="M120.694 349.378C120.694 349.378 110.458 349.964 110.458 337.273C110.458 337.273 120.373 337.409 120.694 349.378Z" fill="white"/>
<path d="M130.41 354.284C130.41 354.284 133.18 345.555 142.011 347.759C141.971 347.759 140.526 355.139 130.41 354.284Z" fill="#0F8BBE"/>
<path opacity="0.4" d="M130.41 354.284C130.41 354.284 133.18 345.555 142.011 347.759C141.971 347.759 140.526 355.139 130.41 354.284Z" fill="white"/>
<path d="M126.315 370.262H108.171V372.826H126.315V370.262Z" fill="#7B8399"/>
<path d="M124.026 389.477H110.458L109.455 372.781H125.03L124.026 389.477Z" fill="#7B8399"/>
<path d="M124.026 389.477H110.458L109.455 372.781H125.03L124.026 389.477Z" fill="#7B8399"/>
<path d="M126.314 370.262H123.384V372.782H109.455L109.495 373.502H120.654L120.694 389.477H124.026L125.03 372.782H126.314V370.262Z" fill="#7B8399"/>
<path d="M118.809 323.325C118.809 323.325 113.791 314.818 120.334 306.674C120.294 306.674 124.629 314.954 118.809 323.325Z" fill="#0F8BBE"/>
<path opacity="0.4" d="M118.809 323.325C118.809 323.325 113.791 314.818 120.334 306.674C120.294 306.674 124.629 314.954 118.809 323.325Z" fill="white"/>
<path d="M123.344 340.425C123.344 340.425 117.845 327.239 127.679 319.139C127.679 319.139 134.463 331.065 123.344 340.425Z" fill="#0F8BBE"/>
<path opacity="0.4" d="M123.344 340.425C123.344 340.425 117.845 327.239 127.679 319.139C127.679 319.139 134.463 331.065 123.344 340.425Z" fill="white"/>
<path d="M124.669 362.969C124.669 362.969 125.994 357.209 133.018 358.424C133.018 358.424 131.854 364.273 124.669 362.969Z" fill="#0F8BBE"/>
<path d="M115.114 365.58C115.114 365.58 113.589 354.465 122.66 353.16C122.66 353.16 124.828 362.836 115.114 365.58Z" fill="#0F8BBE"/>
<path opacity="0.4" d="M115.114 365.58C115.114 365.58 113.589 354.465 122.66 353.16C122.66 353.16 124.828 362.836 115.114 365.58Z" fill="white"/>
<path d="M96.49 317.926C96.49 317.926 101.949 317.295 102.993 323.19C101.532 323.299 100.083 322.832 98.8956 321.872C97.7084 320.909 96.8577 319.514 96.49 317.926Z" fill="#0F8BBE"/>
<path opacity="0.3" d="M96.49 317.926C96.49 317.926 101.949 317.295 102.993 323.19C101.532 323.299 100.083 322.832 98.8956 321.872C97.7084 320.909 96.8577 319.514 96.49 317.926Z" fill="white"/>
<path d="M109.817 317.293C109.817 317.293 103.033 325.213 109.656 333.853C109.656 333.853 116.36 325.393 109.817 317.293Z" fill="#0F8BBE"/>
<path opacity="0.4" d="M109.817 317.293C109.817 317.293 103.033 325.213 109.656 333.853C109.656 333.853 116.36 325.393 109.817 317.293Z" fill="white"/>
<path d="M498.262 345.783H525.919C526.28 345.783 526.63 345.62 526.882 345.334C527.14 345.047 527.285 344.658 527.285 344.252C527.285 343.845 527.14 343.457 526.882 343.17C526.63 342.883 526.28 342.723 525.919 342.723H498.262V345.783Z" fill="#A7B0C1"/>
<path d="M522.345 344.25H494.447V440.595H522.345V344.25Z" fill="#A7B0C1"/>
<path d="M495.291 344.25H374.908V440.595H495.291V344.25Z" fill="#DADDDF"/>
<path d="M490.956 433.26H378.882V357.662L490.956 357.751V433.26ZM379.524 432.587H490.353V358.471H379.524V432.587Z" fill="#A7B0C1"/>
<path d="M371.736 345.783H498.302C498.663 345.783 499.008 345.62 499.265 345.334C499.521 345.047 499.666 344.658 499.666 344.252C499.666 343.845 499.521 343.457 499.265 343.17C499.008 342.883 498.663 342.723 498.302 342.723H371.736C371.375 342.723 371.027 342.883 370.771 343.17C370.515 343.457 370.372 343.845 370.372 344.252C370.372 344.658 370.515 345.047 370.771 345.334C371.027 345.62 371.375 345.783 371.736 345.783Z" fill="#DADDDF"/>
<path d="M378.906 395.681H490.98V394.961H378.906V395.681Z" fill="#A7B0C1"/>
<path d="M433.955 371.429C434.377 371.429 434.787 371.288 435.135 371.026C435.49 370.764 435.761 370.392 435.922 369.957C436.083 369.52 436.124 369.041 436.043 368.579C435.959 368.116 435.758 367.69 435.461 367.357C435.164 367.023 434.782 366.797 434.369 366.704C433.96 366.612 433.529 366.66 433.14 366.84C432.752 367.02 432.421 367.326 432.186 367.718C431.952 368.11 431.828 368.572 431.828 369.044C431.828 369.675 432.053 370.283 432.45 370.73C432.852 371.178 433.389 371.429 433.955 371.429Z" fill="#A7B0C1"/>
<path opacity="0.15" d="M434.758 369.045C434.758 368.547 434.618 368.063 434.358 367.658C434.1 367.255 433.735 366.952 433.313 366.794C433.531 366.701 433.763 366.656 433.997 366.658C434.558 366.658 435.1 366.911 435.502 367.357C435.898 367.804 436.124 368.412 436.124 369.045C436.124 369.677 435.898 370.283 435.502 370.731C435.1 371.178 434.558 371.429 433.997 371.429C433.763 371.433 433.531 371.386 433.313 371.294C433.731 371.128 434.089 370.823 434.35 370.42C434.606 370.019 434.75 369.538 434.758 369.045Z" fill="black"/>
<path d="M433.955 408.6C434.377 408.6 434.787 408.461 435.135 408.199C435.49 407.937 435.761 407.564 435.922 407.128C436.083 406.693 436.124 406.214 436.043 405.75C435.959 405.287 435.758 404.863 435.461 404.529C435.164 404.196 434.782 403.968 434.369 403.875C433.96 403.784 433.529 403.831 433.14 404.013C432.752 404.193 432.421 404.497 432.186 404.891C431.952 405.281 431.828 405.743 431.828 406.215C431.828 406.848 432.053 407.454 432.45 407.901C432.852 408.349 433.389 408.6 433.955 408.6Z" fill="#A7B0C1"/>
<path opacity="0.15" d="M434.758 406.215C434.758 405.718 434.618 405.233 434.358 404.83C434.1 404.426 433.735 404.124 433.313 403.966C433.531 403.873 433.763 403.827 433.997 403.83C434.558 403.83 435.1 404.082 435.502 404.529C435.898 404.976 436.124 405.582 436.124 406.215C436.124 406.848 435.898 407.453 435.502 407.901C435.1 408.348 434.558 408.599 433.997 408.599C433.763 408.603 433.531 408.557 433.313 408.466C433.735 408.309 434.105 408.008 434.361 407.603C434.623 407.2 434.763 406.714 434.758 406.215Z" fill="black"/>
<path d="M499.666 349.019L495.291 345.779H374.908V347.266L499.666 349.019Z" fill="#A7B0C1"/>
<path d="M516.846 440.641L519.015 467.281C519.054 467.511 519.05 467.744 519.002 467.97C518.954 468.195 518.862 468.407 518.729 468.587C518.601 468.767 518.436 468.915 518.247 469.013C518.062 469.118 517.857 469.166 517.649 469.171C517.36 469.175 517.075 469.077 516.838 468.892C516.602 468.708 516.42 468.443 516.325 468.136L510.103 440.641H516.846Z" fill="#DADDDF"/>
<path d="M516.043 456.12L513.435 455.4L510.063 440.596H516.846L519.013 467.236C519.074 467.587 519.026 467.95 518.881 468.269C518.737 468.585 518.5 468.841 518.21 468.989L516.043 456.12Z" fill="#A7B0C1"/>
<path d="M492.561 440.641L494.728 467.281C494.768 467.511 494.765 467.744 494.717 467.97C494.668 468.195 494.576 468.407 494.444 468.587C494.315 468.767 494.151 468.915 493.962 469.013C493.777 469.118 493.572 469.166 493.364 469.171C493.075 469.175 492.79 469.077 492.553 468.892C492.316 468.708 492.135 468.443 492.038 468.136L485.818 440.641H492.561Z" fill="#DADDDF"/>
<path d="M490.313 443.565L486.46 442.756L485.818 440.641H492.601L494.768 467.281C494.828 467.632 494.785 467.997 494.636 468.312C494.491 468.631 494.254 468.888 493.965 469.036L490.313 443.565Z" fill="#A7B0C1"/>
<path d="M404.051 440.641L401.882 467.281C401.843 467.511 401.847 467.744 401.895 467.97C401.943 468.195 402.035 468.407 402.169 468.587C402.297 468.767 402.461 468.915 402.65 469.013C402.835 469.118 403.04 469.166 403.248 469.171C403.537 469.175 403.822 469.077 404.059 468.892C404.296 468.708 404.477 468.443 404.572 468.136L410.795 440.641H404.051Z" fill="#DADDDF"/>
<path d="M405.215 454.816L402.927 454.187L404.011 440.641H410.795L404.572 468.136C404.477 468.443 404.296 468.708 404.059 468.892C403.822 469.077 403.537 469.175 403.248 469.171H403.169L405.215 454.816Z" fill="#A7B0C1"/>
<path d="M379.084 440.641L376.915 467.281C376.874 467.511 376.877 467.744 376.928 467.97C376.976 468.195 377.07 468.407 377.2 468.587C377.33 468.767 377.496 468.915 377.682 469.013C377.869 469.118 378.073 469.166 378.281 469.171C378.57 469.175 378.853 469.077 379.09 468.892C379.329 468.708 379.508 468.443 379.605 468.136L385.828 440.641H379.084Z" fill="#DADDDF"/>
<path d="M381.732 442.936L378.761 442.305L379.082 440.596H385.866L379.645 468.089C379.547 468.396 379.367 468.661 379.13 468.847C378.893 469.03 378.609 469.13 378.319 469.125H378.24L381.732 442.936Z" fill="#A7B0C1"/>
<path d="M239.291 101.82V154.515H299.163V101.82H239.291Z" fill="white"/>
<path d="M245.315 108.842V147.497H293.142V108.842H245.315Z" fill="#DDDDDD"/>
<path d="M300.485 101.834H299.12V154.484H300.485V101.834Z" fill="#DADDDF"/>
<path d="M270.101 130.142C271.577 130.142 273.021 129.651 274.248 128.732C275.476 127.812 276.433 126.505 276.999 124.975C277.563 123.446 277.711 121.763 277.423 120.139C277.135 118.516 276.423 117.024 275.379 115.854C274.336 114.683 273.005 113.886 271.557 113.563C270.109 113.24 268.608 113.406 267.242 114.04C265.878 114.673 264.713 115.746 263.893 117.122C263.072 118.499 262.634 120.117 262.634 121.772C262.634 123.992 263.421 126.121 264.821 127.691C266.22 129.26 268.12 130.142 270.101 130.142Z" fill="#0F8BBE"/>
<path opacity="0.2" d="M250.47 144.089L262.632 135.359L250.59 126.674L250.47 144.089Z" fill="black"/>
<path opacity="0.2" d="M271.743 123.701V141.791H287.879V123.701H271.743Z" fill="black"/>
<path d="M388.958 468.495H218.399C216.835 468.492 215.334 467.793 214.229 466.556C213.123 465.314 212.499 463.635 212.498 461.88V191.115C212.499 189.362 213.123 187.681 214.229 186.441C215.334 185.2 216.835 184.504 218.399 184.5H388.958C390.522 184.504 392.02 185.2 393.128 186.441C394.236 187.681 394.857 189.362 394.857 191.115V461.835C394.862 462.709 394.71 463.573 394.415 464.379C394.12 465.184 393.686 465.917 393.14 466.533C392.59 467.155 391.94 467.645 391.222 467.982C390.506 468.321 389.735 468.492 388.958 468.495Z" fill="#0F8BBE"/>
<path opacity="0.5" d="M388.958 468.495H218.399C216.835 468.492 215.334 467.793 214.229 466.556C213.123 465.314 212.499 463.635 212.498 461.88V191.115C212.499 189.362 213.123 187.681 214.229 186.441C215.334 185.2 216.835 184.504 218.399 184.5H388.958C390.522 184.504 392.02 185.2 393.128 186.441C394.236 187.681 394.857 189.362 394.857 191.115V461.835C394.862 462.709 394.71 463.573 394.415 464.379C394.12 465.184 393.686 465.917 393.14 466.533C392.59 467.155 391.94 467.645 391.222 467.982C390.506 468.321 389.735 468.492 388.958 468.495Z" fill="white"/>
<path d="M383.82 468.495H213.259C211.695 468.492 210.196 467.793 209.089 466.556C207.983 465.314 207.361 463.635 207.36 461.88V191.115C207.361 189.362 207.983 187.681 209.089 186.441C210.196 185.2 211.695 184.504 213.259 184.5H383.82C385.384 184.504 386.883 185.2 387.99 186.441C389.095 187.681 389.718 189.362 389.719 191.115V461.835C389.722 462.709 389.571 463.573 389.277 464.379C388.982 465.184 388.548 465.917 387.999 466.533C387.452 467.155 386.801 467.645 386.084 467.982C385.367 468.321 384.597 468.492 383.82 468.495Z" fill="#0F8BBE"/>
<path opacity="0.7" d="M383.82 468.495H213.259C211.695 468.492 210.196 467.793 209.089 466.556C207.983 465.314 207.361 463.635 207.36 461.88V191.115C207.361 189.362 207.983 187.681 209.089 186.441C210.196 185.2 211.695 184.504 213.259 184.5H383.82C385.384 184.504 386.883 185.2 387.99 186.441C389.095 187.681 389.718 189.362 389.719 191.115V461.835C389.722 462.709 389.571 463.573 389.277 464.379C388.982 465.184 388.548 465.917 387.999 466.533C387.452 467.155 386.801 467.645 386.084 467.982C385.367 468.321 384.597 468.492 383.82 468.495Z" fill="white"/>
<path d="M357.567 233.098H302.814C301.985 233.098 301.188 232.729 300.6 232.072C300.013 231.412 299.684 230.519 299.684 229.589C299.684 228.659 300.013 227.766 300.6 227.106C301.188 226.449 301.985 226.078 302.814 226.078H357.567C358.397 226.078 359.193 226.449 359.781 227.106C360.368 227.766 360.699 228.659 360.699 229.589C360.699 230.519 360.368 231.412 359.781 232.072C359.193 232.729 358.397 233.098 357.567 233.098Z" fill="white"/>
<path d="M359.012 249.749H301.33C300.892 249.749 300.474 249.555 300.166 249.209C299.857 248.862 299.684 248.393 299.684 247.905C299.684 247.415 299.857 246.946 300.166 246.6C300.474 246.253 300.892 246.059 301.33 246.059H359.012C359.449 246.059 359.867 246.253 360.175 246.6C360.484 246.946 360.657 247.415 360.657 247.905C360.657 248.393 360.484 248.862 360.175 249.209C359.867 249.555 359.449 249.749 359.012 249.749Z" fill="white"/>
<path d="M335.409 264.961H301.33C300.892 264.961 300.474 264.767 300.166 264.421C299.857 264.075 299.684 263.605 299.684 263.116C299.684 262.626 299.857 262.157 300.166 261.812C300.474 261.466 300.892 261.272 301.33 261.272H335.409C335.627 261.268 335.841 261.314 336.042 261.407C336.242 261.498 336.425 261.633 336.577 261.806C336.732 261.977 336.852 262.182 336.933 262.407C337.016 262.631 337.057 262.874 337.054 263.116C337.053 263.605 336.879 264.071 336.571 264.417C336.263 264.763 335.844 264.959 335.409 264.961Z" fill="white"/>
<path d="M357.567 325.352H302.814C301.985 325.352 301.188 324.983 300.6 324.324C300.013 323.666 299.684 322.773 299.684 321.843C299.684 320.911 300.013 320.02 300.6 319.36C301.188 318.703 301.985 318.332 302.814 318.332H357.567C358.397 318.332 359.193 318.703 359.781 319.36C360.368 320.02 360.699 320.911 360.699 321.843C360.699 322.773 360.368 323.666 359.781 324.324C359.193 324.983 358.397 325.352 357.567 325.352Z" fill="white"/>
<path d="M359.012 342.047H301.33C300.892 342.047 300.474 341.852 300.166 341.507C299.857 341.161 299.684 340.69 299.684 340.202C299.684 339.712 299.857 339.243 300.166 338.898C300.474 338.552 300.892 338.358 301.33 338.358H359.012C359.23 338.354 359.444 338.4 359.645 338.493C359.845 338.584 360.028 338.719 360.18 338.89C360.334 339.063 360.455 339.268 360.536 339.493C360.619 339.717 360.66 339.958 360.657 340.202C360.656 340.69 360.482 341.157 360.174 341.503C359.866 341.849 359.447 342.045 359.012 342.047Z" fill="white"/>
<path d="M335.409 357.254H301.33C300.892 357.254 300.474 357.059 300.166 356.714C299.857 356.368 299.684 355.899 299.684 355.409C299.684 354.921 299.857 354.45 300.166 354.105C300.474 353.759 300.892 353.565 301.33 353.565H335.409C335.627 353.561 335.841 353.607 336.042 353.7C336.242 353.791 336.425 353.928 336.577 354.099C336.732 354.27 336.852 354.475 336.933 354.7C337.016 354.926 337.057 355.167 337.054 355.409C337.046 355.896 336.87 356.359 336.563 356.703C336.256 357.047 335.843 357.243 335.409 357.254Z" fill="white"/>
<path d="M489.231 408.24L502.758 425.431L493.124 433.8L481.804 422.191L489.231 408.24Z" fill="#FC9D9D"/>
<path d="M500.952 422.595L509.581 430.02C510.044 430.412 510.368 430.977 510.492 431.611C510.618 432.248 510.537 432.912 510.265 433.486L493.685 467.82C493.509 468.185 493.219 468.469 492.874 468.608C492.526 468.752 492.14 468.743 491.8 468.586C491.065 468.28 490.463 467.672 490.113 466.884C489.763 466.102 489.692 465.196 489.913 464.355L490.113 463.546C491.064 459.816 491.566 455.954 491.598 452.071L491.84 433.935C491.848 433.392 492.016 432.866 492.324 432.442C492.63 432.018 493.051 431.72 493.525 431.595C495.07 431.205 496.467 430.284 497.528 428.961C498.583 427.639 499.245 425.981 499.426 424.215L499.507 423.315C499.518 423.135 499.575 422.961 499.667 422.813C499.763 422.665 499.887 422.547 500.036 422.474C500.184 422.399 500.349 422.372 500.51 422.394C500.671 422.415 500.823 422.485 500.952 422.595Z" fill="#7B8399"/>
<path d="M496.777 417.6L454.187 360.811L454.71 310.32L455.191 281.386L430.504 281.34L433.194 366.346C433.205 368.143 433.542 369.919 434.181 371.568C434.824 373.215 435.758 374.699 436.927 375.931L487.544 427.951L496.777 417.6Z" fill="#0F8BBE"/>
<path opacity="0.2" d="M496.777 417.6L454.187 360.811L455.07 281.431L430.504 281.387L433.194 366.391C433.205 368.189 433.542 369.965 434.181 371.613C434.824 373.26 435.758 374.744 436.927 375.976L487.544 427.996L496.777 417.6Z" fill="white"/>
<path d="M481.001 443.115L468.556 443.384L469.198 454.14L480.68 455.311L481.001 443.115Z" fill="#FC9D9D"/>
<path d="M474.939 448.785C473.346 448.789 471.812 449.484 470.667 450.724C469.524 451.966 468.854 453.659 468.798 455.445L468.757 457.156C468.722 457.839 468.629 458.519 468.477 459.181L466.75 466.245C466.682 466.529 466.674 466.826 466.726 467.119C466.774 467.407 466.887 467.676 467.043 467.91C467.203 468.145 467.405 468.338 467.641 468.469C467.874 468.599 468.132 468.671 468.396 468.676H482.525C482.802 468.68 483.08 468.608 483.325 468.464C483.573 468.316 483.783 468.104 483.939 467.847C484.094 467.587 484.191 467.29 484.215 466.979C484.244 466.668 484.199 466.354 484.091 466.065L481.643 459.27C481.314 458.322 481.125 457.318 481.08 456.301L481.04 455.49C481.017 453.699 480.362 451.99 479.219 450.733C478.079 449.477 476.537 448.778 474.939 448.785Z" fill="#7B8399"/>
<path d="M480.479 281.432L481.203 448.067H468.679L457.398 309.647C457.395 309.253 457.25 308.877 456.997 308.605C456.744 308.328 456.407 308.179 456.053 308.184C455.705 308.191 455.368 308.353 455.123 308.635C454.878 308.918 454.745 309.298 454.749 309.692L454.428 322.472L451.417 281.432H480.479Z" fill="#0F8BBE"/>
<path opacity="0.2" d="M480.479 281.432L481.203 448.067H468.679L457.398 309.647C457.395 309.253 457.25 308.877 456.997 308.605C456.744 308.328 456.407 308.179 456.053 308.184C455.705 308.191 455.368 308.353 455.123 308.635C454.878 308.918 454.745 309.298 454.749 309.692L454.428 322.472L451.417 281.432H480.479Z" fill="white"/>
<path opacity="0.4" d="M431.307 286.516H480.519L480.479 281.432H430.504L431.307 286.516Z" fill="black"/>
<path d="M466.442 286.926H468.048V281.436H466.442V286.926Z" fill="#7B8399"/>
<path d="M444.473 286.926H446.079V281.436H444.473V286.926Z" fill="#7B8399"/>
<path opacity="0.5" d="M477.548 455.805C477.592 455.801 477.64 455.787 477.681 455.764C477.721 455.742 477.758 455.71 477.789 455.669C477.826 455.598 477.837 455.512 477.821 455.427C477.81 455.347 477.769 455.27 477.708 455.22C477.669 455.22 474.939 453.196 472.209 455.22C472.178 455.242 472.149 455.274 472.13 455.309C472.109 455.347 472.093 455.386 472.085 455.427C472.077 455.468 472.077 455.512 472.085 455.553C472.093 455.593 472.109 455.634 472.13 455.669C472.149 455.707 472.178 455.737 472.209 455.76C472.241 455.781 472.275 455.801 472.314 455.81C472.351 455.819 472.391 455.819 472.427 455.81C472.462 455.801 472.499 455.781 472.531 455.76C474.939 453.96 477.387 455.76 477.387 455.76C477.436 455.792 477.492 455.805 477.548 455.805Z" fill="black"/>
<path opacity="0.5" d="M477.548 457.604C477.592 457.599 477.64 457.586 477.681 457.563C477.721 457.54 477.758 457.51 477.789 457.469C477.826 457.398 477.837 457.312 477.821 457.226C477.81 457.144 477.769 457.068 477.708 457.02C477.669 457.02 474.939 454.993 472.209 457.02C472.178 457.041 472.149 457.073 472.13 457.109C472.109 457.145 472.093 457.185 472.085 457.226C472.077 457.266 472.077 457.312 472.085 457.351C472.093 457.392 472.109 457.433 472.13 457.469C472.149 457.505 472.178 457.537 472.209 457.56C472.241 457.581 472.275 457.599 472.314 457.608C472.351 457.617 472.391 457.617 472.427 457.608C472.462 457.599 472.499 457.581 472.531 457.56C474.939 455.76 477.387 457.56 477.387 457.56C477.436 457.59 477.492 457.604 477.548 457.604Z" fill="black"/>
<path opacity="0.5" d="M477.548 459.45C477.592 459.445 477.64 459.432 477.681 459.409C477.721 459.388 477.758 459.356 477.789 459.315C477.826 459.243 477.837 459.158 477.821 459.072C477.81 458.99 477.769 458.915 477.708 458.865C477.669 458.865 474.939 456.839 472.209 458.865C472.178 458.887 472.149 458.919 472.13 458.955C472.109 458.99 472.093 459.028 472.085 459.072C472.077 459.113 472.077 459.158 472.085 459.199C472.093 459.238 472.109 459.279 472.13 459.315C472.149 459.35 472.178 459.382 472.209 459.405C472.241 459.427 472.275 459.445 472.314 459.455C472.351 459.459 472.391 459.459 472.427 459.455C472.462 459.445 472.499 459.427 472.531 459.405C474.939 457.605 477.387 459.405 477.387 459.405C477.468 459.405 477.508 459.45 477.548 459.45Z" fill="black"/>
<path opacity="0.5" d="M494.73 438.482C494.793 438.471 494.854 438.439 494.906 438.393C494.954 438.345 494.991 438.282 495.01 438.211C495.051 438.031 494.93 437.895 494.77 437.851L491.84 437.402C491.679 437.355 491.558 437.491 491.518 437.671C491.477 437.851 491.598 437.986 491.759 438.031L494.688 438.482H494.73Z" fill="black"/>
<path opacity="0.5" d="M494.649 440.729C494.712 440.72 494.773 440.688 494.825 440.64C494.873 440.592 494.909 440.53 494.93 440.46C494.97 440.28 494.849 440.145 494.688 440.1L491.759 439.649C491.598 439.605 491.477 439.74 491.437 439.92C491.398 440.1 491.517 440.236 491.677 440.28L494.609 440.729H494.649Z" fill="black"/>
<path opacity="0.5" d="M494.649 443.159C494.712 443.149 494.773 443.117 494.825 443.07C494.873 443.022 494.909 442.96 494.93 442.889C494.97 442.709 494.849 442.573 494.688 442.529L491.759 442.079C491.598 442.033 491.477 442.169 491.437 442.349C491.398 442.529 491.517 442.664 491.677 442.709L494.609 443.159H494.649Z" fill="black"/>
<path opacity="0.5" d="M510.263 433.484L493.685 467.82C493.509 468.185 493.22 468.468 492.875 468.607C492.525 468.752 492.14 468.743 491.798 468.584C491.654 468.536 491.517 468.463 491.396 468.36L509.581 430.02C510.047 430.406 510.376 430.971 510.5 431.609C510.624 432.245 510.54 432.912 510.263 433.484Z" fill="black"/>
<path opacity="0.5" d="M482.565 468.676H468.435C468.179 468.671 467.927 468.605 467.698 468.482C467.464 468.357 467.264 468.172 467.103 467.951C466.943 467.726 466.827 467.466 466.766 467.186C466.706 466.908 466.698 466.619 466.75 466.336H484.212C484.268 466.616 484.268 466.903 484.212 467.182C484.155 467.461 484.043 467.723 483.886 467.947C483.726 468.168 483.525 468.352 483.299 468.478C483.072 468.605 482.818 468.671 482.565 468.676Z" fill="black"/>
<g opacity="0.2">
<path opacity="0.2" d="M464.582 404.457L465.184 405.224L462.455 371.833L461.854 371.068L464.582 404.457Z" fill="black"/>
</g>
<path d="M440.499 281.522C444.152 227.702 448.166 194.716 448.166 194.716L448.527 194.582C448.527 194.582 455.471 204.976 464.463 196.876L465.668 195.211L466.711 195.527H466.671C466.671 195.527 467.113 240.707 471.167 281.476L440.499 281.522Z" fill="white"/>
<path d="M499.186 235.575L482.767 239.895L481.282 234.268L480.64 306.539H471.046C470.175 306.541 469.34 306.176 468.698 305.518C468.06 304.859 467.666 303.953 467.594 302.984C463.339 246.195 466.671 195.568 466.671 195.568L473.656 197.595L486.501 201.284C488.403 201.82 490.134 202.945 491.495 204.527C492.855 206.11 493.798 208.088 494.208 210.239L499.186 235.575Z" fill="#06214E"/>
<path d="M448.085 175.366L448.206 196.335C448.211 196.788 448.335 197.228 448.567 197.595L448.727 197.866C453.344 203.042 460.609 202.635 465.989 197.642C466.257 197.394 466.463 197.073 466.591 196.711C466.715 196.35 466.76 195.956 466.711 195.571L463.82 173.926L448.085 175.366Z" fill="#FC9D9D"/>
<path d="M465.467 166.457C465.467 166.457 468.679 190.083 457.037 191.027C445.677 191.972 445.356 168.077 445.356 168.077L445.034 161.237L459.646 158.357L463.339 160.472L465.467 166.457Z" fill="#FC9D9D"/>
<path opacity="0.15" d="M465.747 189.044L464.905 182.564C463.862 186.751 461.654 190.215 457.84 190.935H457.88L457.037 191.071C453.986 191.34 451.498 189.764 449.572 186.391C449.535 186.325 449.475 186.279 449.406 186.261C449.338 186.245 449.269 186.259 449.209 186.3C449.153 186.343 449.109 186.409 449.098 186.483C449.08 186.56 449.093 186.64 449.13 186.704C451.136 190.26 453.826 191.924 457.077 191.655C457.76 191.613 458.434 191.475 459.085 191.251C461.477 191.523 463.873 190.732 465.747 189.044Z" fill="black"/>
<path d="M462.736 161.144C462.736 161.144 466.429 158.399 468.195 163.079C469.64 167.039 467.192 171.359 467.192 171.359L465.065 171.134C464.181 171.089 463.539 170.639 463.46 169.649L462.736 161.144Z" fill="#06214E"/>
<path d="M465.501 158.957C465.822 163.457 462.371 164.627 460.965 164.763L449.486 165.843C449.039 165.881 448.626 166.115 448.328 166.494C448.036 166.873 447.891 167.367 447.92 167.867L448.12 171.963C448.136 172.228 448.06 172.49 447.912 172.698C447.762 172.906 447.551 173.045 447.317 173.087L446.596 173.177L445.793 174.303C441.297 173.087 439.41 158.777 447.678 155.853C448.562 155.537 449.301 154.841 449.726 153.917C450.931 151.127 455.867 150.407 458.356 153.513C458.593 153.837 458.894 154.092 459.236 154.256C459.581 154.421 459.954 154.49 460.323 154.457C463.374 154.367 465.3 156.483 465.501 158.957Z" fill="#06214E"/>
<path d="M446.48 173.972C446.448 173.594 446.324 173.233 446.122 172.927C445.922 172.621 445.648 172.381 445.335 172.234C445.022 172.086 444.681 172.036 444.344 172.089C444.011 172.141 443.694 172.294 443.429 172.532L443.389 172.577C441.423 174.467 442.666 180.541 447.042 179.957L446.48 173.972Z" fill="#FC9D9D"/>
<path d="M468.156 170.776C468.144 170.776 468.137 170.771 468.129 170.763C468.121 170.754 468.116 170.743 468.116 170.731C467.823 170.54 467.49 170.441 467.153 170.445C466.811 170.45 466.482 170.557 466.194 170.755C465.905 170.954 465.671 171.237 465.515 171.573C465.358 171.909 465.286 172.287 465.305 172.666L465.547 178.426C469.882 178.246 470.324 172.351 468.156 170.776Z" fill="#FC9D9D"/>
<path d="M447.042 174.733C447.082 175.003 446.84 175.273 446.559 175.318C446.427 175.339 446.295 175.305 446.182 175.222C446.069 175.139 445.99 175.013 445.958 174.868L445.476 170.998L446.88 171.043L447.042 174.733Z" fill="#21252B"/>
<path d="M466.188 173.116C466.229 173.386 465.987 173.656 465.706 173.701C465.574 173.722 465.437 173.688 465.329 173.605C465.216 173.522 465.137 173.396 465.105 173.251L464.623 169.381L466.027 169.426L466.188 173.116Z" fill="#21252B"/>
<path d="M460.89 164.7C460.69 164.725 460.49 164.725 460.288 164.7C460.224 164.7 460.164 164.671 460.119 164.621C460.072 164.57 460.048 164.501 460.048 164.43C460.048 164.358 460.072 164.289 460.119 164.238C460.164 164.188 460.224 164.16 460.288 164.16C460.329 164.16 462.617 164.295 463.58 162.585C463.612 162.525 463.665 162.482 463.725 162.465C463.785 162.448 463.849 162.459 463.901 162.495C463.954 162.53 463.994 162.588 464.01 162.656C464.022 162.723 464.013 162.795 463.981 162.855C463.259 164.295 461.733 164.61 460.89 164.7Z" fill="#FC9D9D"/>
<path d="M452.3 177.301C452.497 177.301 452.694 177.235 452.858 177.111C453.023 176.988 453.15 176.812 453.226 176.606C453.303 176.401 453.323 176.174 453.284 175.956C453.247 175.738 453.15 175.538 453.01 175.38C452.87 175.223 452.689 175.116 452.497 175.072C452.3 175.029 452.099 175.051 451.915 175.136C451.734 175.222 451.578 175.366 451.465 175.551C451.357 175.736 451.296 175.953 451.296 176.176C451.296 176.474 451.401 176.76 451.589 176.971C451.778 177.182 452.034 177.301 452.3 177.301Z" fill="#21252B"/>
<path d="M451.817 176.31C451.858 176.31 451.898 176.297 451.929 176.273C451.961 176.248 451.985 176.212 452 176.172C452.018 176.131 452.021 176.085 452.013 176.042C452.005 175.998 451.985 175.958 451.958 175.927C451.929 175.896 451.898 175.875 451.858 175.866C451.817 175.857 451.777 175.861 451.741 175.879C451.706 175.896 451.673 175.924 451.654 175.961C451.63 175.998 451.618 176.041 451.618 176.086C451.618 176.145 451.638 176.203 451.678 176.244C451.714 176.286 451.765 176.31 451.817 176.31Z" fill="white"/>
<path d="M460.046 176.67C460.247 176.67 460.441 176.604 460.604 176.48C460.77 176.357 460.897 176.181 460.973 175.975C461.05 175.77 461.07 175.544 461.03 175.325C460.994 175.107 460.897 174.907 460.757 174.749C460.617 174.592 460.436 174.485 460.243 174.442C460.046 174.398 459.846 174.421 459.662 174.506C459.48 174.591 459.325 174.735 459.212 174.92C459.104 175.105 459.043 175.322 459.043 175.545C459.043 175.843 459.148 176.13 459.336 176.34C459.525 176.551 459.782 176.67 460.046 176.67Z" fill="#21252B"/>
<path d="M459.564 175.634C459.605 175.634 459.644 175.621 459.676 175.597C459.708 175.572 459.736 175.537 459.747 175.496C459.765 175.455 459.768 175.41 459.76 175.366C459.752 175.323 459.736 175.283 459.708 175.251C459.681 175.22 459.644 175.199 459.605 175.19C459.564 175.181 459.524 175.186 459.488 175.203C459.453 175.22 459.42 175.249 459.401 175.285C459.377 175.322 459.364 175.366 459.364 175.41C459.364 175.469 459.385 175.527 459.424 175.568C459.461 175.611 459.513 175.634 459.564 175.634Z" fill="white"/>
<g opacity="0.3">
<path opacity="0.3" d="M456.675 181.531L457.477 181.442C457.558 181.434 457.63 181.393 457.682 181.326C457.738 181.258 457.764 181.171 457.759 181.082C457.754 180.991 457.714 180.909 457.654 180.848C457.593 180.789 457.519 180.761 457.438 180.766L456.635 180.855C456.555 180.862 456.474 180.853 456.398 180.825C456.326 180.796 456.253 180.752 456.193 180.693C456.132 180.634 456.085 180.563 456.048 180.483C456.016 180.403 455.997 180.315 455.993 180.226C455.98 180.137 455.988 180.044 456.013 179.959C456.037 179.871 456.077 179.793 456.129 179.724C456.182 179.656 456.245 179.601 456.322 179.563C456.395 179.526 456.474 179.506 456.555 179.506C456.635 179.501 456.706 179.458 456.759 179.392C456.816 179.324 456.84 179.235 456.835 179.146C456.832 179.057 456.792 178.973 456.732 178.914C456.671 178.856 456.595 178.825 456.514 178.831C456.353 178.843 456.201 178.889 456.056 178.968C455.916 179.046 455.787 179.155 455.684 179.289C455.579 179.422 455.498 179.579 455.45 179.747C455.398 179.916 455.379 180.094 455.39 180.271C455.398 180.449 455.443 180.622 455.511 180.78C455.582 180.941 455.679 181.083 455.8 181.201C455.916 181.317 456.056 181.406 456.206 181.463C456.358 181.52 456.514 181.543 456.675 181.531Z" fill="black"/>
</g>
<path d="M463.483 172.877L459.108 173.147L458.506 173.192L454.652 173.417H454.613L449.675 173.732C449.487 173.742 449.298 173.796 449.125 173.887C448.956 173.98 448.801 174.109 448.677 174.268C448.548 174.427 448.451 174.612 448.387 174.814C448.327 175.015 448.298 175.229 448.311 175.442L448.39 176.702C448.403 177.296 448.524 177.882 448.743 178.423C448.961 178.964 449.274 179.453 449.664 179.855C450.056 180.258 450.514 180.57 451.012 180.77C451.514 180.971 452.044 181.058 452.573 181.025C453.104 180.991 453.621 180.839 454.094 180.577C454.573 180.315 454.997 179.95 455.344 179.499C455.692 179.05 455.958 178.528 456.118 177.962C456.282 177.396 456.342 176.799 456.298 176.207L456.218 174.947C456.206 174.592 456.078 174.254 455.857 174.002L457.382 173.912C457.202 174.2 457.113 174.55 457.142 174.902L457.221 176.162C457.234 176.756 457.355 177.342 457.574 177.883C457.792 178.424 458.105 178.913 458.495 179.315C458.887 179.718 459.345 180.03 459.843 180.23C460.345 180.431 460.875 180.518 461.404 180.485C461.935 180.451 462.452 180.299 462.925 180.037C463.404 179.775 463.828 179.408 464.175 178.959C464.523 178.51 464.789 177.987 464.949 177.422C465.113 176.856 465.173 176.259 465.129 175.667L465.049 174.407C465.037 174.19 464.989 173.978 464.905 173.783C464.82 173.588 464.7 173.413 464.555 173.271C464.407 173.129 464.239 173.02 464.054 172.952C463.87 172.885 463.676 172.859 463.483 172.877ZM455.656 174.992L455.737 176.252C455.784 177.248 455.476 178.225 454.881 178.968C454.287 179.711 453.452 180.158 452.565 180.212C451.675 180.265 450.804 179.921 450.141 179.255C449.479 178.588 449.082 177.653 449.033 176.657L448.953 175.397C448.945 175.135 449.025 174.879 449.185 174.686C449.343 174.492 449.564 174.376 449.796 174.362L454.733 174.047H454.773C454.997 174.054 455.215 174.154 455.376 174.329C455.54 174.503 455.64 174.74 455.656 174.992ZM464.528 175.667C464.576 176.663 464.267 177.64 463.673 178.383C463.078 179.125 462.243 179.572 461.356 179.627C460.465 179.681 459.593 179.335 458.932 178.669C458.269 178.003 457.872 177.068 457.824 176.072L457.743 174.812C457.735 174.55 457.816 174.294 457.977 174.101C458.132 173.907 458.353 173.791 458.587 173.777L459.188 173.732L463.565 173.462C463.797 173.452 464.026 173.545 464.199 173.722C464.371 173.899 464.475 174.145 464.487 174.407L464.528 175.667Z" fill="#21252B"/>
<path d="M454.187 183.329L459.124 182.924C459.153 182.922 459.185 182.929 459.213 182.944C459.24 182.958 459.266 182.978 459.282 183.004C459.301 183.031 459.317 183.061 459.321 183.093C459.329 183.127 459.329 183.161 459.325 183.193C459.174 183.815 458.856 184.371 458.41 184.783C457.969 185.196 457.423 185.446 456.849 185.501C456.279 185.555 455.7 185.41 455.202 185.086C454.705 184.762 454.307 184.273 454.067 183.689V183.644C454.047 183.616 454.035 183.584 454.035 183.548C454.031 183.514 454.035 183.478 454.047 183.448C454.059 183.416 454.078 183.387 454.102 183.366C454.128 183.346 454.155 183.332 454.187 183.329Z" fill="white"/>
<g opacity="0.3">
<path opacity="0.3" d="M445.395 177.075C445.324 177.081 445.251 177.057 445.19 177.007C445.13 176.958 445.09 176.886 445.074 176.805L444.993 176.13C444.914 175.41 444.753 174.87 444.432 174.6C444.368 174.534 444.292 174.485 444.208 174.454C444.127 174.423 444.039 174.411 443.95 174.42C443.914 174.43 443.874 174.431 443.834 174.423C443.794 174.415 443.758 174.398 443.726 174.372C443.693 174.348 443.666 174.315 443.645 174.277C443.621 174.24 443.608 174.198 443.605 174.154C443.597 174.11 443.6 174.065 443.608 174.022C443.621 173.98 443.642 173.94 443.666 173.906C443.689 173.871 443.721 173.843 443.758 173.824C443.793 173.803 443.829 173.792 443.869 173.79C444.2 173.746 444.529 173.842 444.793 174.06C445.235 174.42 445.475 175.095 445.596 176.04L445.677 176.715C445.68 176.804 445.653 176.891 445.6 176.958C445.548 177.025 445.475 177.067 445.395 177.075Z" fill="black"/>
</g>
<g opacity="0.3">
<path opacity="0.3" d="M466.792 175.32C466.827 175.322 466.863 175.315 466.9 175.299C466.936 175.284 466.968 175.261 466.992 175.231C467.021 175.202 467.04 175.167 467.052 175.128C467.068 175.089 467.071 175.047 467.071 175.005V174.285C467.032 173.565 467.153 172.98 467.434 172.71C467.634 172.485 467.874 172.44 467.874 172.485C467.951 172.485 468.019 172.453 468.071 172.393C468.127 172.334 468.156 172.254 468.156 172.17C468.156 172.087 468.127 172.007 468.071 171.948C468.019 171.889 467.951 171.855 467.874 171.855C467.537 171.871 467.224 172.033 466.992 172.305C466.59 172.755 466.429 173.43 466.47 174.375V175.05C466.47 175.185 466.59 175.32 466.792 175.32Z" fill="black"/>
</g>
<g opacity="0.3">
<path opacity="0.3" d="M489.792 210.6L494.849 236.745L499.224 235.576L494.688 212.31C493.806 206.01 491.116 203.04 487.182 201.42L482.204 199.98C486.781 202.276 488.829 205.92 489.792 210.6Z" fill="black"/>
</g>
<path opacity="0.3" d="M481.282 234.271L480.64 306.542H475.581L476.263 220.726C476.273 220.577 476.324 220.432 476.413 220.322C476.505 220.21 476.626 220.138 476.758 220.115C476.894 220.096 477.026 220.126 477.142 220.204C477.26 220.283 477.344 220.404 477.387 220.546L481.282 234.271Z" fill="black"/>
<path d="M466.389 193.498L469.24 196.243L473.054 211.858L466.389 208.303L466.671 195.749L466.389 193.498Z" fill="#21252B"/>
<path opacity="0.3" d="M469.761 196.379L469.199 196.199L473.052 211.859L466.389 208.304L466.308 211.588L473.615 212.444L469.761 196.379Z" fill="black"/>
<path opacity="0.15" d="M451.296 281.518H445.837L448.166 196.514C448.166 196.514 453.384 239.083 451.296 281.518Z" fill="black"/>
<path opacity="0.15" d="M451.176 281.432H433.555L433.995 306.496H445.918C446.953 306.498 447.953 306.065 448.719 305.283C449.483 304.498 449.959 303.424 450.052 302.267C450.533 295.787 450.896 288.767 451.176 281.432Z" fill="black"/>
<path d="M371.455 264.915L411.556 260.055C413.359 259.831 415.08 259.102 416.565 257.94C418.052 256.776 419.255 255.213 420.066 253.395L428.255 234.946L418.781 211.455L405.173 244.935L370.291 255.781L371.455 264.915Z" fill="#FC9D9D"/>
<path opacity="0.15" d="M423.64 235.801L415.451 254.25C414.174 257.1 411.955 259.279 409.268 260.325L411.558 260.056C413.359 259.83 415.082 259.101 416.567 257.939C418.056 256.775 419.257 255.214 420.067 253.396L428.256 234.945L423.64 235.801Z" fill="black"/>
<path d="M442.947 306.497H431.026L429.62 228.466L424.04 236.973L417.899 212.446C418.902 208.397 419.665 206.373 421.673 204.302C422.997 202.988 424.558 202.006 426.248 201.422L448.166 194.762C448.166 194.762 450.212 260.777 447.082 302.266C446.993 303.426 446.519 304.506 445.753 305.291C444.987 306.075 443.987 306.506 442.947 306.497Z" fill="#06214E"/>
<path d="M409.912 232.695L424.724 243L431.628 228.195L420.91 207.631L419.023 208.711L409.912 232.695Z" fill="#06214E"/>
<path d="M448.165 193.004L445.637 195.524L441.823 211.184L448.486 207.628L448.165 193.004Z" fill="#21252B"/>
<path opacity="0.3" d="M445.114 195.705L445.677 195.525L441.823 211.185L448.486 207.63L448.567 210.915L441.26 211.77L445.114 195.705Z" fill="black"/>
<path d="M502.516 252.585L499.226 235.529L482.807 239.849L486.099 250.649L458.643 257.489L457.116 257.849C456.595 257.985 456.153 258.029 455.792 257.625L455.19 256.949C454.64 256.468 454.013 256.103 453.344 255.869C451.726 255.324 450.362 254.098 449.53 252.449L448.206 249.84C448.193 249.808 448.174 249.78 448.149 249.758C448.125 249.735 448.093 249.721 448.064 249.712C448.033 249.703 448.001 249.701 447.972 249.708C447.94 249.715 447.912 249.73 447.885 249.749L447.684 249.84C447.222 250.042 446.845 250.434 446.627 250.934C446.416 251.435 446.375 252.007 446.519 252.54L447.524 256.14C447.58 256.326 447.567 256.527 447.491 256.703C447.419 256.88 447.287 257.015 447.122 257.085L440.659 260.054C439.294 260.64 439.775 262.709 441.02 262.394C441.702 262.214 441.823 262.169 441.823 262.169L440.539 262.889C439.094 263.654 439.775 265.86 441.02 265.545C442.265 265.229 443.871 264.734 443.871 264.734L442.265 265.454C442.02 265.62 441.836 265.878 441.744 266.181C441.65 266.486 441.659 266.815 441.767 267.113C441.871 267.412 442.073 267.657 442.325 267.808C442.578 267.956 442.871 268.001 443.147 267.929C444.071 267.66 445.556 267.165 445.556 267.165L444.592 267.705C443.349 268.154 443.79 270.314 444.955 270.045C445.958 269.82 455.471 267.209 460.369 266.22L496.736 261.809C497.676 261.672 498.575 261.317 499.386 260.769C500.192 260.22 500.89 259.489 501.437 258.621C501.979 257.755 502.356 256.769 502.54 255.73C502.729 254.691 502.721 253.62 502.516 252.585Z" fill="#FC9D9D"/>
<g opacity="0.2">
<path opacity="0.2" d="M462.456 371.881L454.187 360.855L454.749 309.69C454.76 309.318 454.905 308.965 455.142 308.707C455.384 308.446 455.7 308.3 456.034 308.295C454.492 308.311 453.023 309.004 451.935 310.225C450.848 311.444 450.23 313.094 450.214 314.821L449.772 363.466L463.178 380.701L462.456 371.881Z" fill="black"/>
<path opacity="0.2" d="M481.001 396.586L481.042 403.606L494.208 420.526L496.777 417.601L481.001 396.586Z" fill="black"/>
</g>
<path opacity="0.15" d="M496.655 261.809L460.288 266.22C455.39 267.209 445.877 269.82 444.874 270.045C444.732 270.064 444.589 270.048 444.453 270.002C444.316 269.954 444.192 269.874 444.082 269.767C443.979 269.662 443.895 269.53 443.834 269.384C443.779 269.237 443.75 269.079 443.75 268.92C443.863 269.089 444.023 269.211 444.208 269.259C444.392 269.309 444.585 269.284 444.753 269.189C445.155 269.054 450.975 266.669 454.668 265.094C456.659 264.26 458.714 263.641 460.809 263.249C468.758 261.765 489.39 257.849 494.93 256.454C496.536 256.049 498.302 254.7 497.9 252.314L494.809 236.7L499.184 235.529L502.477 252.54C502.688 253.581 502.704 254.663 502.52 255.712C502.335 256.76 501.958 257.755 501.408 258.63C500.863 259.505 500.152 260.239 499.334 260.788C498.513 261.335 497.602 261.683 496.655 261.809Z" fill="black"/>
<path d="M458.603 257.535L460.007 266.264L462.456 265.995L461.051 256.904L458.603 257.535Z" fill="#001B34"/>
<path d="M460.649 264.824C461.134 264.824 461.607 264.663 462.01 264.362C462.41 264.059 462.723 263.632 462.909 263.129C463.097 262.628 463.145 262.076 463.049 261.543C462.957 261.01 462.723 260.522 462.379 260.138C462.038 259.754 461.599 259.493 461.126 259.386C460.652 259.281 460.159 259.335 459.709 259.543C459.264 259.75 458.883 260.103 458.614 260.554C458.345 261.005 458.201 261.536 458.201 262.079C458.201 262.806 458.457 263.505 458.919 264.02C459.375 264.535 459.999 264.824 460.649 264.824Z" fill="#0F8BBE"/>
<path d="M460.649 264.373C461.054 264.373 461.448 264.239 461.785 263.986C462.123 263.735 462.388 263.375 462.541 262.956C462.696 262.537 462.736 262.076 462.657 261.63C462.576 261.185 462.383 260.777 462.099 260.456C461.809 260.135 461.444 259.916 461.046 259.827C460.649 259.739 460.24 259.784 459.867 259.959C459.493 260.131 459.172 260.425 458.948 260.803C458.722 261.181 458.603 261.625 458.603 262.078C458.603 262.687 458.819 263.27 459.201 263.701C459.585 264.131 460.107 264.373 460.649 264.373Z" fill="white"/>
<path d="M462.014 262.307L460.609 262.216L459.606 261.407C459.566 261.361 459.525 261.271 459.566 261.227C459.606 261.181 459.687 261.136 459.727 261.181L460.69 261.947L462.014 262.036C462.03 262.034 462.046 262.036 462.062 262.043C462.078 262.048 462.091 262.057 462.103 262.072C462.115 262.084 462.123 262.1 462.131 262.118C462.135 262.134 462.135 262.154 462.135 262.171C462.135 262.207 462.119 262.239 462.099 262.264C462.075 262.289 462.046 262.303 462.014 262.307Z" fill="#001B34"/>
<path opacity="0.3" d="M429.7 232.29L429.46 224.506C429.479 224.386 429.46 224.263 429.399 224.162C429.339 224.06 429.247 223.99 429.139 223.965C429.034 223.942 428.921 223.967 428.833 224.033C428.741 224.101 428.676 224.206 428.657 224.326L421.432 240.75L424.683 243.001L429.7 232.29Z" fill="black"/>
<path opacity="0.2" d="M475.623 306.498L476.626 448.067H481.242L480.64 306.498H475.623Z" fill="black"/>
<path d="M481.201 444.104L481.242 448.064H468.677L468.356 444.104H481.201Z" fill="#0F8BBE"/>
<path opacity="0.2" d="M476.624 444.104V448.064H481.241L481.201 444.104H476.624Z" fill="black"/>
<path d="M494.649 414.496L497.458 417.592L487.524 428.73L484.473 425.886L494.649 414.496Z" fill="#0F8BBE"/>
<path opacity="0.2" d="M491.037 418.548L493.846 421.698L497.459 417.598L494.649 414.502L491.037 418.548Z" fill="black"/>
<path d="M256.693 313.156H252.357V313.652C247.377 314.771 242.895 317.792 239.676 322.195C236.457 326.601 234.697 332.12 234.697 337.816C234.697 343.51 236.457 349.031 239.676 353.435C242.895 357.841 247.377 360.862 252.357 361.981V362.476H256.693C262.527 362.476 268.123 359.878 272.247 355.253C276.372 350.628 278.69 344.357 278.69 337.816C278.69 331.276 276.372 325.004 272.247 320.379C268.123 315.755 262.527 313.156 256.693 313.156Z" fill="#0F8BBE"/>
<path d="M252.399 362.431C256.74 362.431 260.987 360.988 264.597 358.282C268.209 355.577 271.023 351.733 272.684 347.236C274.347 342.738 274.781 337.789 273.933 333.015C273.086 328.238 270.996 323.852 267.924 320.411C264.854 316.968 260.942 314.624 256.682 313.674C252.423 312.725 248.008 313.211 243.995 315.075C239.983 316.938 236.554 320.092 234.142 324.141C231.729 328.188 230.441 332.947 230.441 337.816C230.441 344.344 232.754 350.605 236.872 355.221C240.991 359.838 246.576 362.431 252.399 362.431Z" fill="#0F8BBE"/>
<path opacity="0.4" d="M252.399 362.431C256.74 362.431 260.987 360.988 264.597 358.282C268.209 355.577 271.023 351.733 272.684 347.236C274.347 342.738 274.781 337.789 273.933 333.015C273.086 328.238 270.996 323.852 267.924 320.411C264.854 316.968 260.942 314.624 256.682 313.674C252.423 312.725 248.008 313.211 243.995 315.075C239.983 316.938 236.554 320.092 234.142 324.141C231.729 328.188 230.441 332.947 230.441 337.816C230.441 344.344 232.754 350.605 236.872 355.221C240.991 359.838 246.576 362.431 252.399 362.431Z" fill="white"/>
<path d="M248.302 348.121L240.876 339.794C240.781 339.689 240.706 339.563 240.654 339.424C240.603 339.285 240.576 339.135 240.576 338.985C240.576 338.836 240.603 338.686 240.654 338.547C240.706 338.408 240.781 338.281 240.876 338.174L242.803 336.014C242.899 335.909 243.01 335.824 243.134 335.767C243.258 335.708 243.391 335.679 243.525 335.679C243.66 335.679 243.792 335.708 243.916 335.767C244.04 335.824 244.153 335.909 244.248 336.014L249.025 341.37L260.505 328.501C260.6 328.394 260.712 328.308 260.836 328.249C260.96 328.192 261.093 328.162 261.228 328.162C261.362 328.162 261.495 328.192 261.619 328.249C261.743 328.308 261.856 328.394 261.95 328.501L263.877 330.661C263.972 330.766 264.047 330.892 264.099 331.031C264.15 331.17 264.177 331.32 264.177 331.47C264.177 331.621 264.15 331.769 264.099 331.908C264.047 332.047 263.972 332.174 263.877 332.281L249.747 348.121C249.547 348.315 249.291 348.424 249.025 348.424C248.76 348.424 248.502 348.315 248.302 348.121Z" fill="white"/>
<path d="M338.58 436.41H264.921C264.177 436.41 263.462 436.079 262.936 435.487C262.408 434.897 262.112 434.095 262.112 433.259V411.706C262.112 410.87 262.408 410.068 262.936 409.478C263.462 408.886 264.177 408.555 264.921 408.555H338.62C339.366 408.555 340.081 408.886 340.607 409.478C341.135 410.068 341.431 410.87 341.431 411.706V433.259C341.42 434.099 341.114 434.899 340.58 435.489C340.048 436.079 339.329 436.408 338.58 436.41Z" fill="#0F8BBE"/>
<path opacity="0.5" d="M338.58 436.41H264.921C264.177 436.41 263.462 436.079 262.936 435.487C262.408 434.897 262.112 434.095 262.112 433.259V411.706C262.112 410.87 262.408 410.068 262.936 409.478C263.462 408.886 264.177 408.555 264.921 408.555H338.62C339.366 408.555 340.081 408.886 340.607 409.478C341.135 410.068 341.431 410.87 341.431 411.706V433.259C341.42 434.099 341.114 434.899 340.58 435.489C340.048 436.079 339.329 436.408 338.58 436.41Z" fill="white"/>
<path d="M335.811 436.41H262.112C261.367 436.41 260.653 436.079 260.125 435.487C259.599 434.897 259.301 434.095 259.301 433.259V411.706C259.301 410.87 259.599 410.068 260.125 409.478C260.653 408.886 261.367 408.555 262.112 408.555H335.811C336.557 408.555 337.27 408.886 337.798 409.478C338.324 410.068 338.62 410.87 338.62 411.706V433.259C338.62 434.095 338.324 434.897 337.798 435.487C337.27 436.079 336.557 436.41 335.811 436.41Z" fill="white"/>
<path d="M367.522 206.417L360.498 198.542L353.473 206.417C353.362 206.561 353.212 206.661 353.047 206.704C352.88 206.747 352.707 206.729 352.551 206.654C352.395 206.577 352.263 206.449 352.177 206.285C352.09 206.121 352.052 205.932 352.068 205.742V184.682H368.967V205.742C368.965 205.929 368.916 206.111 368.822 206.266C368.73 206.421 368.598 206.542 368.444 206.615C368.29 206.686 368.121 206.706 367.957 206.67C367.792 206.636 367.641 206.547 367.522 206.417Z" fill="#06214E"/>
<path d="M388.796 168.121L373.181 195.661L398.873 199.217L388.796 168.121Z" fill="#A7B0C1"/>
<path d="M357.327 420.256L348.777 419.04L373.183 195.66L381.732 196.831L357.327 420.256Z" fill="#0F8BBE"/>
<path d="M374.426 422.594L365.875 421.425L390.241 198.045L398.871 199.216L374.426 422.594Z" fill="#0F8BBE"/>
<path d="M365.876 421.426L357.327 420.256L381.732 196.83L390.242 198.046L365.876 421.426Z" fill="#0F8BBE"/>
<path opacity="0.3" d="M365.876 421.426L357.327 420.256L381.732 196.83L390.242 198.046L365.876 421.426Z" fill="black"/>
<path d="M384.662 175.411L388.797 168.121L391.446 176.356L384.662 175.411Z" fill="#06214E"/>
<path d="M364.632 250.787C365.143 250.787 365.633 251.016 365.994 251.42C366.356 251.825 366.558 252.374 366.558 252.947V255.872L372.901 256.592C373.14 256.622 373.361 256.749 373.523 256.947C373.685 257.146 373.777 257.403 373.784 257.672C373.785 257.945 373.695 258.207 373.531 258.406C373.367 258.606 373.143 258.729 372.901 258.752L366.8 259.203C366.752 259.208 366.709 259.237 366.679 259.278C366.649 259.32 366.635 259.374 366.639 259.427C366.647 259.477 366.665 259.524 366.693 259.563C366.722 259.602 366.759 259.632 366.8 259.652L372.82 260.103C373.081 260.133 373.323 260.272 373.496 260.493C373.671 260.712 373.765 260.999 373.758 261.293C373.754 261.587 373.65 261.869 373.469 262.081C373.288 262.295 373.043 262.423 372.781 262.443L366.719 262.667L372.62 262.443C372.913 262.446 373.191 262.575 373.401 262.801C373.612 263.027 373.736 263.336 373.752 263.662C373.768 263.988 373.672 264.309 373.483 264.558C373.296 264.808 373.03 264.968 372.741 265.007L366.719 265.636L371.215 265.187C371.348 265.177 371.482 265.196 371.607 265.244C371.733 265.294 371.849 265.371 371.946 265.473C372.045 265.574 372.122 265.697 372.176 265.834C372.231 265.97 372.258 266.118 372.259 266.267C372.258 266.524 372.178 266.772 372.03 266.97C371.884 267.166 371.681 267.299 371.456 267.347L367.643 268.203C367.153 268.31 366.646 268.271 366.174 268.089C365.703 267.907 365.282 267.588 364.953 267.167C363.652 265.497 362.837 263.423 362.614 261.22C362.393 259.017 362.775 256.79 363.71 254.836L364.392 251.056C364.39 251.021 364.396 250.985 364.407 250.953C364.419 250.919 364.436 250.889 364.46 250.864C364.482 250.837 364.509 250.818 364.538 250.805C364.568 250.793 364.6 250.786 364.632 250.787Z" fill="#FC9D9D"/>
<g opacity="0.15">
<path opacity="0.15" d="M372.191 262.053L366.611 262.259L366.631 262.89L372.207 262.684L372.191 262.053Z" fill="black"/>
</g>
<g opacity="0.15">
<path opacity="0.15" d="M371.525 264.814L367.045 265.233L367.089 265.859L371.572 265.44L371.525 264.814Z" fill="black"/>
</g>
<path opacity="0.2" d="M366.558 255.825V252.898L365.032 254.698C364.961 254.78 364.911 254.882 364.892 254.994C364.872 255.107 364.881 255.222 364.921 255.328C364.959 255.434 365.024 255.525 365.108 255.588C365.193 255.654 365.293 255.688 365.393 255.689L366.558 255.825Z" fill="black"/>
<path d="M365.555 468.539L347.411 466.019C346.416 465.88 345.513 465.304 344.896 464.417C344.28 463.531 344 462.41 344.119 461.295L348.775 419.039L374.426 422.594L369.77 464.85C369.709 465.402 369.552 465.934 369.307 466.42C369.062 466.907 368.735 467.329 368.344 467.671C367.953 468.017 367.504 468.27 367.026 468.418C366.547 468.566 366.048 468.607 365.555 468.539Z" fill="#7B8399"/>
<path opacity="0.4" d="M366.558 421.514L361.902 463.769C361.776 464.885 361.263 465.897 360.474 466.585C359.684 467.278 358.683 467.594 357.688 467.458L365.555 468.538C366.549 468.668 367.549 468.355 368.337 467.661C369.126 466.972 369.641 465.959 369.77 464.849L374.426 422.594L366.558 421.514Z" fill="#06214E"/>
<path d="M374.431 422.632L348.772 419.08L347.938 426.672L373.596 430.222L374.431 422.632Z" fill="#A7B0C1"/>
<path d="M91.1502 469.529H538.683C538.723 469.529 538.767 469.511 538.796 469.476C538.828 469.444 538.844 469.399 538.844 469.349C538.844 469.3 538.828 469.255 538.796 469.223C538.767 469.188 538.723 469.17 538.683 469.17H91.1502C91.1076 469.17 91.067 469.188 91.0368 469.223C91.0068 469.255 90.9896 469.3 90.9896 469.349C90.9896 469.399 91.0068 469.444 91.0368 469.476C91.067 469.511 91.1076 469.529 91.1502 469.529Z" fill="#A7B0C1"/>
<path d="M264.118 222.932L260.065 221.266L259.904 221.717C254.887 220.854 249.758 221.966 245.39 224.862C241.021 227.756 237.681 232.258 235.937 237.601C234.191 242.942 234.15 248.797 235.819 254.17C237.489 259.543 240.763 264.104 245.091 267.077L244.93 267.526L248.986 269.192C254.442 271.368 260.445 271.042 265.687 268.283C270.932 265.526 274.991 260.559 276.986 254.462C278.979 248.365 278.747 241.634 276.337 235.73C273.927 229.825 269.536 225.226 264.118 222.932Z" fill="#0F8BBE"/>
<path d="M252.52 269.009C256.863 269.009 261.107 267.566 264.718 264.86C268.33 262.155 271.144 258.311 272.805 253.815C274.468 249.316 274.902 244.367 274.054 239.593C273.207 234.817 271.116 230.431 268.045 226.989C264.975 223.546 261.063 221.202 256.802 220.253C252.544 219.303 248.129 219.789 244.116 221.653C240.105 223.516 236.676 226.67 234.263 230.719C231.85 234.767 230.562 239.525 230.562 244.394C230.562 250.922 232.875 257.183 236.994 261.799C241.112 266.416 246.696 269.009 252.52 269.009Z" fill="#0F8BBE"/>
<path opacity="0.4" d="M254.698 268.888C259.019 268.404 263.115 266.495 266.468 263.403C269.822 260.309 272.282 256.171 273.538 251.51C274.794 246.85 274.787 241.876 273.522 237.219C272.256 232.562 269.786 228.431 266.427 225.346C263.066 222.263 258.964 220.367 254.644 219.895C250.321 219.424 245.97 220.401 242.143 222.7C238.315 225.001 235.184 228.522 233.141 232.819C231.098 237.114 230.238 241.994 230.67 246.838C230.956 250.054 231.804 253.177 233.166 256.025C234.529 258.874 236.379 261.394 238.609 263.442C240.841 265.49 243.41 267.024 246.17 267.958C248.932 268.894 251.828 269.209 254.698 268.888Z" fill="white"/>
<path d="M246.843 254.083L240.646 244.602C240.488 244.356 240.423 244.051 240.461 243.752C240.5 243.454 240.638 243.183 240.851 242.996L243.062 241.17C243.28 240.993 243.552 240.917 243.819 240.959C244.086 241.002 244.328 241.157 244.495 241.394L248.485 247.473L261.591 236.732C261.81 236.556 262.082 236.481 262.349 236.523C262.616 236.566 262.858 236.723 263.025 236.962L264.654 239.441C264.812 239.685 264.878 239.99 264.84 240.287C264.802 240.587 264.662 240.858 264.449 241.043L248.316 254.304C248.21 254.404 248.084 254.479 247.951 254.522C247.816 254.564 247.676 254.577 247.537 254.556C247.399 254.534 247.266 254.482 247.146 254.4C247.027 254.32 246.924 254.212 246.843 254.083Z" fill="white"/>
<path d="M145.1 175.95C145.1 175.95 138.517 178.829 139.841 188.684C140.363 192.375 137.152 192.824 135.386 194.4C130.81 198.449 132.977 207.495 135.386 207.675L164.969 225.449C164.969 225.449 176.53 207.675 172.637 199.035C170.91 195.209 171.352 194.715 172.516 191.024C174.323 185.4 170.91 182.7 170.91 182.7L169.104 182.249L162.481 165.6L149.837 175.275L147.91 175.365L145.1 175.95Z" fill="#06214E"/>
<path d="M142.933 445.498C143.314 446.834 143.464 448.24 143.374 449.638L143.415 461.293C143.368 463.323 142.856 465.308 141.929 467.053L141.729 467.458C141.468 467.962 141.094 468.386 140.643 468.678C140.192 468.971 139.681 469.124 139.16 469.124H136.189C135.526 469.128 134.88 468.88 134.356 468.422C133.832 467.967 133.46 467.324 133.299 466.604C132.905 464.884 132.85 463.084 133.138 461.338L135.667 448.829C135.832 447.661 136.143 446.524 136.591 445.453H142.933V445.498Z" fill="#0F8BBE"/>
<path d="M183.313 418.094L185.161 440.369C185.28 442.98 185.882 444.6 186.564 445.68L193.79 462.149L191.783 465.254L183.916 460.845L176.931 446.669C176.931 444.24 176.73 442.8 176.33 439.56L172.877 415.529L183.313 418.094Z" fill="#956363"/>
<path opacity="0.15" d="M185.363 447.839C184.56 446.535 183.555 443.384 183.315 441.944L180.906 433.664C180.867 433.382 180.747 433.12 180.568 432.919C180.388 432.716 180.155 432.584 179.903 432.539L175.126 431.819L175.045 430.65H184.358L185.161 440.37C185.321 442.035 185.684 444.239 186.566 445.679L193.791 462.15L192.547 464.444L185.363 447.839Z" fill="black"/>
<path d="M197.925 464.986L193.791 462.197C192.322 462.46 190.817 462.295 189.423 461.71C188.03 461.129 186.796 460.149 185.843 458.866L176.891 446.715C175.29 450.591 174.719 454.906 175.245 459.137L176.53 469.215H177.574L177.854 458.866C177.859 458.7 177.908 458.541 177.997 458.406C178.085 458.276 178.205 458.178 178.345 458.123C178.484 458.069 178.635 458.066 178.776 458.105C178.918 458.151 179.045 458.246 179.139 458.37L184.598 465.841C185.37 466.889 186.339 467.736 187.434 468.32C188.531 468.901 189.728 469.206 190.941 469.215H199.451C199.603 469.22 199.756 469.179 199.891 469.099C200.028 469.017 200.142 468.901 200.227 468.757C200.311 468.612 200.362 468.447 200.373 468.276C200.384 468.105 200.357 467.933 200.293 467.777C199.864 466.529 199.012 465.531 197.925 464.986Z" fill="#0F8BBE"/>
<path d="M143.375 440.233C142.927 444.428 142.739 448.654 142.813 452.878L142.893 457.918C142.858 458.98 142.458 459.983 141.778 460.721C141.097 461.459 140.188 461.874 139.241 461.878H138.598C138.074 461.883 137.555 461.756 137.077 461.514C136.599 461.27 136.174 460.915 135.831 460.47C135.487 460.024 135.234 459.502 135.088 458.939C134.942 458.372 134.907 457.779 134.986 457.198L136.029 451.213C136.558 448.176 136.747 445.077 136.591 441.988L135.588 421.648L144.941 421.828L143.375 440.233Z" fill="#956363"/>
<path d="M178.058 276.074L179.382 294.03L180.585 309.059C181.228 317.07 181.63 325.079 181.83 333.134L184.962 430.694H174.726L157.184 301.994C157.127 301.577 156.937 301.198 156.649 300.923C156.361 300.65 155.995 300.504 155.618 300.51C155.221 300.503 154.838 300.666 154.547 300.969C154.255 301.271 154.078 301.686 154.053 302.13L144.82 430.65L135.548 430.559L130.931 337.814C129.96 318.039 131.296 298.207 134.905 278.819L135.427 276.074H178.058Z" fill="#06214E"/>
<path opacity="0.15" d="M144.137 430.65C144.137 430.65 143.013 443.699 142.932 445.455V445.499C142.812 447.975 142.732 450.404 142.772 452.879L142.852 457.919C142.819 458.95 142.442 459.932 141.795 460.664C141.148 461.398 140.279 461.83 139.36 461.879C141.086 460.395 140.925 457.964 140.966 456.164L141.246 434.07C141.249 433.719 141.143 433.379 140.945 433.106C140.747 432.835 140.47 432.65 140.163 432.584L135.988 431.73L135.948 430.695L144.137 430.65Z" fill="black"/>
<path opacity="0.2" d="M155.537 300.465C155.14 300.47 154.757 300.629 154.453 300.914C154.305 301.062 154.186 301.242 154.103 301.443C154.019 301.645 153.975 301.862 153.972 302.085L144.82 430.649H141.327L148.151 309.465C148.874 301.468 151.041 300.465 155.537 300.465Z" fill="black"/>
<path opacity="0.2" d="M178.377 280.484L179.38 294.029L180.104 303.389C181.027 315.18 181.628 326.999 181.91 338.849L184.921 430.694H180.344L174.444 302.804L173.4 280.62H178.016L178.217 280.573L178.377 280.484Z" fill="black"/>
<path d="M178.779 210.465L191.222 238.454L218.8 237.509L218.157 245.249L190.62 251.325C189.102 251.633 187.536 251.45 186.107 250.797C184.677 250.143 183.445 249.047 182.552 247.634L173.118 232.874" fill="#0F8BBE"/>
<path d="M228.955 234.269L233.411 233.594L238.749 235.305C238.848 235.331 238.94 235.383 239.018 235.458C239.094 235.531 239.156 235.625 239.194 235.731C239.234 235.836 239.25 235.95 239.242 236.062C239.236 236.176 239.204 236.287 239.152 236.385C239.053 236.524 238.921 236.629 238.772 236.684C238.622 236.739 238.46 236.746 238.307 236.7L233.169 235.62L237.625 237.06C237.705 237.08 237.778 237.121 237.842 237.176C237.905 237.233 237.956 237.306 237.991 237.388C238.026 237.472 238.043 237.561 238.042 237.652C238.042 237.743 238.023 237.832 237.986 237.914C237.907 238.051 237.789 238.156 237.651 238.213C237.514 238.268 237.365 238.276 237.225 238.229L232.729 237.24L235.899 238.68C235.953 238.703 235.999 238.741 236.036 238.789C236.072 238.837 236.098 238.896 236.11 238.958C236.121 239.02 236.12 239.085 236.104 239.147C236.088 239.208 236.059 239.263 236.02 239.309C235.956 239.389 235.873 239.45 235.781 239.48C235.689 239.512 235.59 239.516 235.498 239.489L231.805 238.454L227.43 239.669L228.955 234.269Z" fill="#956363"/>
<path opacity="0.15" d="M228.955 234.269L233.411 233.594L238.749 235.305C238.848 235.331 238.94 235.383 239.018 235.458C239.094 235.531 239.156 235.625 239.194 235.731C239.234 235.836 239.25 235.95 239.242 236.062C239.236 236.176 239.204 236.287 239.152 236.385C239.053 236.524 238.921 236.629 238.772 236.684C238.622 236.739 238.46 236.746 238.307 236.7L233.169 235.62L237.625 237.06C237.705 237.08 237.778 237.121 237.842 237.176C237.905 237.233 237.956 237.306 237.991 237.388C238.026 237.472 238.043 237.561 238.042 237.652C238.042 237.743 238.023 237.832 237.986 237.914C237.907 238.051 237.789 238.156 237.651 238.213C237.514 238.268 237.365 238.276 237.225 238.229L232.729 237.24L235.899 238.68C235.953 238.703 235.999 238.741 236.036 238.789C236.072 238.837 236.098 238.896 236.11 238.958C236.121 239.02 236.12 239.085 236.104 239.147C236.088 239.208 236.059 239.263 236.02 239.309C235.956 239.389 235.873 239.45 235.781 239.48C235.689 239.512 235.59 239.516 235.498 239.489L231.805 238.454L227.43 239.669L228.955 234.269Z" fill="black"/>
<path d="M229.238 232.695L222.655 236.97C222.281 237.232 221.85 237.373 221.41 237.375L218.841 237.51L218.199 245.25L220.326 244.755C220.683 244.666 221.052 244.666 221.41 244.755L221.971 244.89C224.162 245.555 226.496 245.233 228.475 243.99H228.515C228.786 243.819 229.087 243.711 229.398 243.675C230.522 243.54 233.331 243.226 233.331 243.226C233.368 243.226 233.406 243.219 233.441 243.204C233.475 243.188 233.506 243.165 233.533 243.135C233.559 243.106 233.579 243.071 233.594 243.032C233.606 242.994 233.614 242.951 233.613 242.91C233.587 242.49 233.428 242.094 233.161 241.795C232.896 241.497 232.543 241.317 232.168 241.29L230.201 240.975C229.157 240.795 228.554 239.715 229.036 238.815L231.004 234.946C231.139 234.7 231.355 234.522 231.605 234.45L238.59 232.426C238.729 232.401 238.853 232.317 238.935 232.191C239.018 232.064 239.053 231.905 239.032 231.75C238.989 231.558 238.881 231.389 238.733 231.282C238.584 231.173 238.404 231.132 238.229 231.166C236.463 231.435 231.044 232.29 229.759 232.515C229.572 232.504 229.387 232.568 229.238 232.695Z" fill="#956363"/>
<path opacity="0.15" d="M191.224 238.41L189.016 238.499C188.761 238.507 188.513 238.423 188.304 238.261C188.094 238.1 187.936 237.869 187.852 237.599L184.199 222.57L191.224 238.41Z" fill="black"/>
<path d="M134.503 205.426L146.706 202.635L166.577 202.859L173.881 205.066C178.419 206.686 180.706 211.139 180.666 216.495L179.983 220.366L181.91 227.699C182.994 232.426 181.588 235.17 178.619 238.995C177.695 240.21 177.213 240.706 176.853 242.999C176.853 242.999 175.086 250.515 174.765 253.619C174.017 260.696 173.748 267.827 173.962 274.95L136.43 274.859C134.704 274.859 133.941 272.79 134.785 271.079C134.785 271.079 137.354 265.366 137.795 260.55C139.361 244.846 135.346 226.17 135.346 226.17L127.479 216.406C127.238 211.319 130.208 206.55 134.503 205.426Z" fill="#0F8BBE"/>
<path d="M160.152 259.469L164.648 258.479L165.651 259.603L164.488 261.179L160.152 259.469Z" fill="#956363"/>
<path opacity="0.15" d="M219.882 243.272C220.402 243.145 220.943 243.176 221.448 243.363C222.772 243.856 225.744 244.712 228.553 243.903C228.513 243.903 228.473 243.947 228.432 243.947H228.392C227.419 244.584 226.341 244.992 225.224 245.147C224.106 245.302 222.971 245.2 221.89 244.847L221.327 244.712C220.971 244.623 220.601 244.623 220.243 244.712L209.727 247.052L219.722 244.847L219.882 243.272Z" fill="black"/>
<path opacity="0.15" d="M160.957 268.11L154.694 266.625L136.47 264.914L136.269 265.005C135.386 267.84 135.025 268.83 134.343 270.674L137.032 270.765C141.189 270.856 145.346 270.63 149.476 270.09C153.306 269.594 157.177 269.64 160.997 270.225V268.11H160.957Z" fill="black"/>
<path d="M174.002 279.721L173.602 275.132L135.748 275.041L134.704 279.721H174.002Z" fill="#21252B"/>
<path opacity="0.6" d="M156.622 259.38L155.056 258.887L152.367 266.356L154.173 266.536L156.622 259.38Z" fill="black"/>
<path opacity="0.6" d="M147.99 206.73L143.173 203.444L145.983 202.814L165.853 203.039L167.78 203.624L163.003 206.819C160.731 208.339 158.132 209.136 155.486 209.12C152.84 209.104 150.248 208.277 147.99 206.73Z" fill="black"/>
<path d="M149.477 185.536L148.473 199.981C148.458 200.569 148.274 201.136 147.948 201.597C147.623 202.061 147.174 202.392 146.667 202.545L145.142 202.996L148.634 205.425C150.653 206.837 152.981 207.596 155.361 207.619C157.74 207.644 160.079 206.931 162.122 205.561L165.895 203.041L163.968 202.456C163.497 202.312 163.076 202.011 162.76 201.594C162.445 201.177 162.249 200.66 162.202 200.116L161.559 183.736L149.477 185.536Z" fill="#956363"/>
<path d="M157.705 196.741L157.063 196.65C154.889 196.459 152.87 195.309 151.448 193.454C150.027 191.599 149.318 189.189 149.476 186.75L150.359 173.835C150.413 173.024 150.752 172.269 151.301 171.737C151.851 171.206 152.566 170.941 153.29 171L164.047 171.945C164.988 172.027 165.863 172.522 166.478 173.323C167.095 174.124 167.405 175.165 167.34 176.22L166.495 188.236C166.419 189.441 166.13 190.619 165.646 191.699C165.162 192.781 164.492 193.743 163.675 194.534C162.858 195.324 161.911 195.926 160.887 196.304C159.863 196.684 158.781 196.831 157.705 196.741Z" fill="#956363"/>
<path d="M158.347 183.779C158.521 183.779 158.692 183.721 158.837 183.612C158.982 183.503 159.095 183.348 159.164 183.168C159.23 182.986 159.248 182.789 159.213 182.596C159.179 182.404 159.095 182.227 158.971 182.088C158.848 181.951 158.69 181.857 158.519 181.817C158.348 181.78 158.17 181.799 158.009 181.874C157.848 181.949 157.71 182.076 157.613 182.24C157.516 182.402 157.464 182.593 157.464 182.789C157.463 182.919 157.486 183.049 157.53 183.168C157.574 183.289 157.639 183.398 157.721 183.491C157.803 183.582 157.901 183.655 158.008 183.705C158.116 183.755 158.231 183.779 158.347 183.779Z" fill="#21252B"/>
<path d="M158.828 183.285C158.868 183.285 158.906 183.272 158.939 183.247C158.972 183.222 158.998 183.187 159.012 183.146C159.028 183.105 159.031 183.061 159.023 183.016C159.017 182.974 158.998 182.933 158.969 182.902C158.941 182.87 158.906 182.849 158.867 182.84C158.828 182.831 158.788 182.837 158.752 182.853C158.715 182.87 158.684 182.899 158.662 182.936C158.64 182.974 158.628 183.016 158.628 183.061C158.628 183.119 158.649 183.178 158.687 183.219C158.724 183.261 158.775 183.285 158.828 183.285Z" fill="white"/>
<path d="M165.213 184.5C165.387 184.5 165.557 184.443 165.702 184.332C165.848 184.223 165.961 184.07 166.028 183.888C166.095 183.708 166.112 183.509 166.077 183.316C166.044 183.124 165.96 182.949 165.836 182.81C165.713 182.671 165.556 182.577 165.384 182.539C165.213 182.5 165.036 182.52 164.874 182.595C164.713 182.669 164.575 182.798 164.478 182.96C164.381 183.122 164.329 183.315 164.329 183.511C164.329 183.641 164.351 183.769 164.395 183.888C164.438 184.01 164.503 184.12 164.586 184.211C164.669 184.304 164.766 184.377 164.874 184.425C164.98 184.475 165.095 184.5 165.213 184.5Z" fill="#21252B"/>
<path d="M165.612 184.002C165.652 184.002 165.69 183.989 165.723 183.965C165.756 183.94 165.781 183.906 165.797 183.865C165.812 183.822 165.816 183.778 165.808 183.735C165.8 183.691 165.781 183.652 165.753 183.62C165.726 183.588 165.69 183.566 165.652 183.559C165.612 183.55 165.573 183.554 165.536 183.572C165.5 183.588 165.468 183.616 165.446 183.654C165.424 183.691 165.413 183.734 165.413 183.778C165.413 183.838 165.433 183.895 165.471 183.938C165.508 183.979 165.558 184.002 165.612 184.002Z" fill="white"/>
<g opacity="0.3">
<path opacity="0.3" d="M161.397 188.867L160.194 188.822C160.033 188.822 159.952 188.687 159.952 188.507C159.952 188.327 160.073 188.236 160.233 188.236L161.437 188.282C161.508 188.286 161.58 188.274 161.647 188.247C161.713 188.218 161.775 188.175 161.828 188.122C161.88 188.067 161.923 188.001 161.952 187.93C161.982 187.856 161.998 187.776 162 187.696C162.006 187.616 161.996 187.536 161.974 187.459C161.95 187.382 161.912 187.311 161.863 187.252C161.814 187.194 161.755 187.145 161.688 187.113C161.621 187.083 161.55 187.065 161.478 187.067C161.318 187.067 161.237 186.932 161.237 186.752C161.237 186.572 161.357 186.482 161.518 186.482C161.658 186.488 161.796 186.525 161.923 186.593C162.051 186.661 162.165 186.755 162.259 186.873C162.351 186.99 162.424 187.129 162.469 187.277C162.513 187.427 162.532 187.586 162.521 187.742C162.496 188.054 162.367 188.345 162.157 188.553C161.949 188.762 161.677 188.874 161.397 188.867Z" fill="black"/>
</g>
<path d="M170.951 182.702C169.748 181.531 170.43 179.642 170.43 179.642V179.687C172.638 169.382 166.777 162.812 161.478 161.597C158.468 160.922 150.4 161.327 147.871 171.632C147.51 173.117 147.389 174.737 145.061 175.952C145.061 175.952 146.466 181.351 146.827 183.331C146.988 184.187 148.674 180.991 149.356 180.676C149.436 180.631 149.918 181.622 150.239 182.251C150.28 182.344 150.343 182.421 150.421 182.474C150.499 182.529 150.589 182.558 150.681 182.558C150.772 182.558 150.862 182.529 150.94 182.474C151.018 182.421 151.081 182.344 151.122 182.251L151.203 182.116C151.77 180.676 152.122 179.14 152.246 177.572C156.14 176.537 156.14 172.127 156.14 172.127C159.593 181.127 167.259 178.876 167.259 178.876L166.858 183.691C167.505 183.098 168.084 182.419 168.584 181.667L169.828 182.927L170.951 182.702Z" fill="#06214E"/>
<path d="M150.038 187.335C150.038 187.335 146.104 187.515 145.422 183.149C144.74 178.785 149.557 178.155 150.119 182.565L150.48 187.38L150.038 187.335Z" fill="#956363"/>
<path opacity="0.3" d="M146.706 180.898C146.877 180.758 147.073 180.658 147.279 180.603C147.486 180.549 147.701 180.542 147.91 180.583C148.113 180.651 148.3 180.767 148.459 180.922C148.618 181.077 148.746 181.269 148.834 181.483C149.092 182.007 149.23 182.595 149.235 183.194V183.689C149.235 184.049 148.713 184.138 148.713 183.734V183.238C148.706 182.738 148.596 182.244 148.392 181.798C148.336 181.652 148.254 181.52 148.15 181.412C148.047 181.303 147.924 181.221 147.79 181.169C147.506 181.123 147.218 181.203 146.987 181.394C146.958 181.413 146.926 181.43 146.892 181.435C146.858 181.442 146.823 181.442 146.79 181.433C146.756 181.424 146.724 181.408 146.696 181.387C146.668 181.364 146.644 181.337 146.626 181.303C146.545 181.123 146.586 180.943 146.706 180.898Z" fill="black"/>
<path d="M165.774 180.63C165.24 180.608 164.709 180.719 164.216 180.952C163.723 181.186 163.283 181.535 162.923 181.981C162.238 181.603 161.458 181.507 160.717 181.71C160.353 180.826 159.714 180.12 158.918 179.73C158.123 179.338 157.227 179.288 156.4 179.589C155.574 179.89 154.875 180.521 154.436 181.361C153.997 182.202 153.849 183.193 154.019 184.148C154.19 185.103 154.667 185.955 155.361 186.541C156.054 187.128 156.915 187.407 157.781 187.329C158.647 187.251 159.458 186.818 160.057 186.114C160.658 185.41 161.006 184.483 161.036 183.51C161.043 183.054 160.989 182.599 160.876 182.161C161.47 182.006 162.095 182.084 162.642 182.385C162.333 182.899 162.133 183.487 162.06 184.1C161.987 184.715 162.041 185.34 162.219 185.928C162.397 186.515 162.694 187.047 163.087 187.484C163.48 187.921 163.958 188.249 164.483 188.445C165.007 188.639 165.565 188.694 166.114 188.609C166.661 188.521 167.184 188.291 167.638 187.94C168.095 187.589 168.471 187.124 168.74 186.581C169.009 186.039 169.161 185.435 169.185 184.814C169.209 184.289 169.139 183.763 168.98 183.266C168.821 182.77 168.576 182.314 168.258 181.924C167.942 181.535 167.559 181.22 167.131 180.999C166.705 180.776 166.244 180.651 165.774 180.63ZM157.344 186.885C156.729 186.855 156.135 186.62 155.639 186.21C155.142 185.802 154.765 185.237 154.555 184.586C154.346 183.938 154.312 183.232 154.46 182.562C154.607 181.892 154.928 181.284 155.383 180.819C155.838 180.354 156.406 180.049 157.015 179.945C157.624 179.84 158.247 179.942 158.805 180.234C159.364 180.528 159.831 180.999 160.149 181.59C160.469 182.182 160.623 182.865 160.596 183.554C160.578 184.014 160.481 184.463 160.308 184.88C160.135 185.296 159.89 185.67 159.588 185.98C159.286 186.288 158.932 186.529 158.547 186.684C158.162 186.839 157.753 186.908 157.344 186.885ZM165.492 188.145C164.877 188.115 164.284 187.88 163.788 187.47C163.291 187.062 162.914 186.497 162.704 185.846C162.494 185.198 162.461 184.492 162.609 183.822C162.755 183.152 163.076 182.544 163.531 182.079C163.987 181.614 164.554 181.309 165.163 181.205C165.772 181.1 166.395 181.202 166.953 181.494C167.511 181.788 167.979 182.259 168.298 182.85C168.618 183.442 168.772 184.125 168.745 184.814C168.727 185.274 168.629 185.723 168.457 186.14C168.284 186.556 168.039 186.93 167.737 187.24C167.435 187.548 167.08 187.787 166.696 187.944C166.311 188.099 165.901 188.168 165.492 188.145Z" fill="white"/>
<path d="M149.036 186.613C149.186 186.613 149.334 186.563 149.459 186.471C149.585 186.376 149.682 186.243 149.74 186.086C149.798 185.931 149.813 185.758 149.784 185.592C149.754 185.426 149.682 185.275 149.575 185.154C149.468 185.034 149.332 184.954 149.184 184.92C149.037 184.888 148.883 184.904 148.744 184.968C148.604 185.034 148.485 185.143 148.402 185.284C148.318 185.425 148.273 185.59 148.273 185.76C148.273 185.986 148.353 186.204 148.496 186.364C148.639 186.524 148.834 186.613 149.036 186.613Z" fill="#0F8BBE"/>
<path opacity="0.15" d="M149.276 186.526C149.164 186.524 149.054 186.495 148.952 186.444C148.851 186.392 148.76 186.317 148.685 186.224C148.61 186.132 148.552 186.023 148.516 185.905C148.479 185.786 148.465 185.661 148.473 185.536C148.484 185.358 148.539 185.185 148.633 185.041C148.524 185.118 148.433 185.223 148.37 185.349C148.307 185.476 148.273 185.617 148.272 185.761C148.268 185.877 148.285 185.993 148.321 186.101C148.357 186.21 148.412 186.308 148.484 186.392C148.555 186.476 148.64 186.543 148.735 186.59C148.83 186.636 148.932 186.661 149.035 186.661C149.191 186.665 149.344 186.618 149.476 186.526C149.396 186.481 149.356 186.526 149.276 186.526Z" fill="black"/>
<path opacity="0.15" d="M149.277 187.289L150.561 187.425L148.876 190.258L149.277 187.289Z" fill="black"/>
<path opacity="0.15" d="M162.041 195.752L161.88 195.841C160.515 196.438 159.041 196.656 157.585 196.472L156.622 196.337C156.501 196.292 156.381 196.292 156.261 196.246H156.18C155.988 196.207 155.8 196.148 155.618 196.066C155.538 196.021 155.458 196.021 155.377 195.977C154.378 195.64 153.44 195.107 152.608 194.401C152.559 194.36 152.499 194.341 152.439 194.35C152.378 194.359 152.324 194.393 152.286 194.446C152.249 194.499 152.232 194.569 152.24 194.637C152.248 194.704 152.279 194.765 152.327 194.806C153.402 195.699 154.633 196.328 155.939 196.652C156.727 197.494 157.673 198.13 158.708 198.511C159.742 198.893 160.839 199.01 161.92 198.857L162.202 198.812L162.041 195.752Z" fill="black"/>
<path d="M161.919 190.486C162.039 190.486 162.079 190.666 162.039 190.756C161.777 191.203 161.408 191.561 160.977 191.791C160.547 192.021 160.067 192.115 159.591 192.062C159.117 191.989 158.671 191.768 158.302 191.427C157.933 191.085 157.657 190.634 157.504 190.126C157.464 189.991 157.544 189.856 157.664 189.902L161.919 190.486Z" fill="white"/>
<path opacity="0.6" d="M220.485 237.42L218.8 237.509L218.157 245.249L219.722 244.889L220.485 237.42Z" fill="black"/>
<path opacity="0.15" d="M177.935 239.218C180.867 235.393 181.348 231.613 180.224 226.888L179.019 221.984L178.016 216.673V216.584C178.024 216.534 178.042 216.488 178.07 216.448C178.099 216.409 178.136 216.377 178.177 216.358C178.206 216.35 178.236 216.347 178.266 216.352C178.296 216.356 178.325 216.366 178.35 216.382C178.377 216.4 178.399 216.422 178.419 216.448C178.436 216.475 178.45 216.505 178.458 216.538L179.701 222.793L180.304 224.908C180.304 224.908 185.081 232.558 183.596 238.364C183.034 240.478 182.712 241.873 183.876 243.673L185.963 247.138C187.85 249.073 190.661 248.578 190.661 248.578L218.237 243.584L218.076 245.293L192.346 251.008H192.386L190.54 251.368C189.23 251.638 187.882 251.539 186.615 251.085C185.348 250.629 184.2 249.83 183.275 248.758C182.976 248.43 182.708 248.068 182.472 247.678L177.535 239.758C177.655 239.578 177.816 239.398 177.935 239.218Z" fill="black"/>
<path d="M166.335 180.451C159.551 180.362 156.902 173.522 156.862 173.432C156.822 173.252 156.862 173.072 157.022 173.027C157.056 173.005 157.093 172.993 157.132 172.991C157.17 172.988 157.209 172.996 157.244 173.014C157.279 173.032 157.31 173.058 157.334 173.091C157.359 173.125 157.376 173.164 157.384 173.207C157.424 173.252 159.952 179.731 166.335 179.822C166.41 179.822 166.481 179.854 166.534 179.913C166.586 179.972 166.616 180.052 166.616 180.136C166.616 180.22 166.586 180.3 166.534 180.359C166.481 180.418 166.41 180.451 166.335 180.451Z" fill="#21252B"/>
<g opacity="0.3">
<path opacity="0.3" d="M156.661 213.662C147.026 213.689 137.408 212.755 127.92 210.872L128.402 209.927L129.004 208.982C132.335 209.656 154.534 213.932 178.458 209.702L179.341 211.682L179.059 211.772C171.649 213.056 164.16 213.689 156.661 213.662Z" fill="white"/>
</g>
<g opacity="0.3">
<path opacity="0.3" d="M164.529 244.847C155.306 244.811 146.101 243.984 136.992 242.371L136.791 240.258C136.992 240.302 158.106 244.218 176.369 242.147L175.929 244.218C172.142 244.672 168.336 244.883 164.529 244.847Z" fill="white"/>
</g>
<g opacity="0.3">
<path opacity="0.3" d="M164.489 258.256C155.416 258.238 146.357 257.441 137.393 255.871L137.433 253.756C137.634 253.8 155.698 257.76 173.962 255.691L174.163 257.76C170.309 258.256 168.382 258.256 164.489 258.256Z" fill="white"/>
</g>
<g opacity="0.3">
<path opacity="0.3" d="M163.526 270.719C148.914 270.719 135.427 268.199 135.226 268.199L135.949 266.039C136.149 266.085 156.782 270.135 175.086 268.065L175.287 270.135C171.393 270.539 167.419 270.719 163.526 270.719Z" fill="white"/>
</g>
<path opacity="0.15" d="M138.196 255.061L153.851 258.481" stroke="black" stroke-width="1.18" stroke-miterlimit="10" stroke-linecap="round"/>
<path opacity="0.15" d="M160.152 259.469L164.648 258.479L165.651 259.603L164.488 261.179L160.152 259.469Z" fill="black"/>
<path d="M127.238 212.715L131.052 213.03C134.102 218.701 135.909 223.201 135.748 229.815L136.029 232.426L128.643 253.35L155.538 259.11L152.366 266.31L120.254 263.746C116.801 263.521 114.353 259.335 115.637 255.466L127.238 212.715Z" fill="#0F8BBE"/>
<path d="M155.016 277.066L168.824 250.335C168.983 250.048 169.225 249.829 169.508 249.715C169.793 249.601 170.104 249.597 170.39 249.706L189.858 257.086C190.032 257.147 190.192 257.25 190.326 257.389C190.459 257.528 190.563 257.699 190.628 257.89C190.695 258.081 190.72 258.286 190.706 258.49C190.69 258.694 190.634 258.89 190.54 259.066L177.535 284.402C177.387 284.68 177.161 284.895 176.892 285.018C176.625 285.139 176.33 285.161 176.05 285.075L155.778 279.091C155.598 279.032 155.432 278.928 155.292 278.789C155.151 278.649 155.041 278.476 154.968 278.282C154.894 278.087 154.861 277.877 154.869 277.668C154.878 277.458 154.927 277.251 155.016 277.066Z" fill="#7B8399"/>
<path opacity="0.8" d="M155.016 277.066L168.824 250.335C168.983 250.048 169.225 249.829 169.508 249.715C169.793 249.601 170.104 249.597 170.39 249.706L189.858 257.086C190.032 257.147 190.192 257.25 190.326 257.389C190.459 257.528 190.563 257.699 190.628 257.89C190.695 258.081 190.72 258.286 190.706 258.49C190.69 258.694 190.634 258.89 190.54 259.066L177.535 284.402C177.387 284.68 177.161 284.895 176.892 285.018C176.625 285.139 176.33 285.161 176.05 285.075L155.778 279.091C155.598 279.032 155.432 278.928 155.292 278.789C155.151 278.649 155.041 278.476 154.968 278.282C154.894 278.087 154.861 277.877 154.869 277.668C154.878 277.458 154.927 277.251 155.016 277.066Z" fill="black"/>
<path d="M155.698 277.289L169.506 250.558C169.665 250.271 169.907 250.052 170.192 249.938C170.476 249.824 170.786 249.82 171.072 249.929L190.54 257.309C190.715 257.369 190.874 257.473 191.008 257.612C191.141 257.751 191.245 257.922 191.311 258.113C191.377 258.303 191.402 258.508 191.388 258.713C191.372 258.916 191.316 259.112 191.222 259.289L178.217 284.624C178.069 284.902 177.843 285.118 177.576 285.241C177.307 285.362 177.012 285.383 176.732 285.298L156.461 279.313C156.279 279.256 156.111 279.155 155.97 279.016C155.828 278.877 155.717 278.702 155.643 278.508C155.57 278.314 155.537 278.101 155.547 277.891C155.556 277.681 155.608 277.474 155.698 277.289Z" fill="#21252B"/>
<path d="M175.808 263.384C175.931 263.264 176.023 263.108 176.072 262.933C176.121 262.758 176.128 262.571 176.09 262.395C176.657 262.165 177.272 262.133 177.856 262.304C178.738 262.664 178.938 263.519 178.296 264.284C177.932 264.667 177.485 264.938 177 265.071C176.516 265.205 176.008 265.198 175.527 265.048C175.309 264.986 175.115 264.847 174.972 264.653C174.827 264.46 174.741 264.22 174.724 263.968C175.134 263.915 175.516 263.71 175.808 263.384Z" fill="#7B8399"/>
<path opacity="0.4" d="M188.89 260.407C189.396 260.095 189.648 259.507 189.456 259.133C189.264 258.759 188.698 258.682 188.192 258.989C187.687 259.295 187.437 259.889 187.629 260.266C187.823 260.644 188.372 260.721 188.89 260.407Z" fill="black"/>
<path d="M189.051 260.494C189.551 260.179 189.804 259.594 189.612 259.216C189.42 258.838 188.854 258.767 188.351 259.077C187.85 259.387 187.593 259.977 187.785 260.35C187.979 260.724 188.545 260.804 189.051 260.494Z" fill="#7B8399"/>
<path opacity="0.5" d="M188.93 260.264C189.259 260.061 189.42 259.683 189.292 259.423C189.192 259.289 189.051 259.206 188.897 259.186C188.744 259.166 188.588 259.214 188.466 259.318C188.132 259.526 187.971 259.899 188.1 260.161C188.2 260.293 188.342 260.378 188.496 260.398C188.652 260.417 188.806 260.369 188.93 260.264Z" fill="black"/>
<path opacity="0.4" d="M189.097 259.786C189.122 259.727 189.137 259.663 189.135 259.597C189.135 259.532 189.119 259.468 189.092 259.41C189.065 259.353 189.025 259.304 188.976 259.267C188.928 259.231 188.873 259.208 188.815 259.199H188.936C189.257 259.199 189.458 259.47 189.337 259.786C189.262 259.953 189.148 260.096 189.006 260.199C188.865 260.302 188.703 260.361 188.534 260.37H188.415C188.564 260.351 188.706 260.285 188.827 260.183C188.947 260.08 189.04 259.942 189.097 259.786Z" fill="black"/>
<path d="M156.621 259.381L157.183 259.516C157.314 259.556 157.449 259.572 157.584 259.561L164.248 259.425C164.945 259.429 165.639 259.566 166.295 259.832L173.962 262.981C174.118 263.049 174.25 263.175 174.33 263.341C174.411 263.505 174.438 263.697 174.403 263.881C174.354 264.077 174.237 264.241 174.08 264.342C173.923 264.442 173.737 264.471 173.56 264.421L166.214 262.261L173.199 266.536C173.284 266.583 173.358 266.649 173.419 266.731C173.479 266.811 173.524 266.905 173.551 267.007C173.578 267.108 173.584 267.215 173.573 267.32C173.56 267.424 173.528 267.525 173.481 267.616C173.393 267.795 173.253 267.934 173.085 268.008C172.916 268.083 172.729 268.087 172.557 268.021L165.453 264.872L171.875 267.705C171.959 267.741 172.037 267.795 172.102 267.864C172.169 267.932 172.222 268.016 172.26 268.106C172.296 268.199 172.317 268.299 172.32 268.4C172.323 268.5 172.308 268.602 172.276 268.696C172.215 268.894 172.091 269.06 171.928 269.16C171.765 269.259 171.573 269.286 171.393 269.236L164.85 267.256L170.47 268.965C170.541 268.985 170.61 269.021 170.669 269.071C170.727 269.119 170.778 269.181 170.815 269.252C170.853 269.325 170.877 269.404 170.886 269.486C170.896 269.568 170.891 269.652 170.87 269.732C170.858 269.816 170.829 269.896 170.786 269.965C170.745 270.036 170.689 270.097 170.626 270.143C170.562 270.19 170.489 270.222 170.414 270.236C170.339 270.25 170.263 270.247 170.188 270.225L155.176 266.672L154.132 266.581L156.621 259.381Z" fill="#956363"/>
<path opacity="0.15" d="M171.875 267.704L165.895 265.051" stroke="black" stroke-width="1.18" stroke-miterlimit="10" stroke-linecap="round"/>
<path opacity="0.15" d="M164.848 267.213L170.51 268.922" stroke="black" stroke-width="1.18" stroke-miterlimit="10" stroke-linecap="round"/>
<path opacity="0.15" d="M170.912 269.684C170.897 269.77 170.869 269.848 170.826 269.92C170.785 269.991 170.729 270.052 170.665 270.098C170.602 270.144 170.53 270.176 170.455 270.189C170.379 270.205 170.303 270.201 170.228 270.18L155.216 266.624L154.173 266.535L154.694 265.051L170.912 269.684Z" fill="black"/>
<path opacity="0.15" d="M127.039 253.034L128.644 253.394L135.267 234.539L135.829 232.963C135.308 230.263 134.625 226.754 134.224 224.594C134.199 224.487 134.145 224.391 134.068 224.32C133.991 224.25 133.896 224.209 133.797 224.204C133.698 224.198 133.6 224.229 133.518 224.291C133.435 224.353 133.373 224.444 133.341 224.549L125.915 250.963C125.859 251.182 125.844 251.412 125.872 251.637C125.899 251.863 125.968 252.081 126.073 252.275C126.179 252.469 126.319 252.637 126.485 252.767C126.651 252.899 126.839 252.989 127.039 253.034Z" fill="black"/>
<path opacity="0.15" d="M153.851 258.479L147.991 257.219" stroke="black" stroke-width="1.18" stroke-miterlimit="10" stroke-linecap="round"/>
<path opacity="0.15" d="M146.104 256.816L138.196 255.061" stroke="black" stroke-width="1.18" stroke-miterlimit="10" stroke-linecap="round"/>
<path opacity="0.15" d="M160.152 259.469L164.648 258.479L165.651 259.603L164.488 261.179L160.152 259.469Z" fill="black"/>
<path d="M155.016 277.068L168.824 250.337C168.983 250.05 169.225 249.831 169.508 249.717C169.793 249.603 170.104 249.599 170.39 249.708L189.858 257.088C190.032 257.149 190.192 257.252 190.326 257.391C190.459 257.53 190.563 257.701 190.628 257.892C190.695 258.083 190.72 258.287 190.706 258.492C190.69 258.696 190.634 258.892 190.54 259.068L177.535 284.403C177.387 284.682 177.161 284.897 176.892 285.02C176.625 285.141 176.33 285.163 176.05 285.077L155.778 279.093C155.598 279.034 155.432 278.93 155.292 278.791C155.151 278.651 155.041 278.478 154.968 278.284C154.894 278.089 154.861 277.879 154.869 277.67C154.878 277.46 154.927 277.253 155.016 277.068Z" fill="#7B8399"/>
<path opacity="0.8" d="M155.016 277.066L168.824 250.335C168.983 250.048 169.225 249.829 169.508 249.715C169.793 249.601 170.104 249.597 170.39 249.706L189.858 257.086C190.032 257.147 190.192 257.25 190.326 257.389C190.459 257.528 190.563 257.699 190.628 257.89C190.695 258.081 190.72 258.286 190.706 258.49C190.69 258.694 190.634 258.89 190.54 259.066L177.535 284.402C177.387 284.68 177.161 284.895 176.892 285.018C176.625 285.139 176.33 285.161 176.05 285.075L155.778 279.091C155.598 279.032 155.432 278.928 155.292 278.789C155.151 278.649 155.041 278.476 154.968 278.282C154.894 278.087 154.861 277.877 154.869 277.668C154.878 277.458 154.927 277.251 155.016 277.066Z" fill="black"/>
<path d="M155.698 277.289L169.506 250.558C169.665 250.271 169.907 250.052 170.192 249.938C170.476 249.824 170.786 249.82 171.072 249.929L190.54 257.309C190.715 257.369 190.874 257.473 191.008 257.612C191.141 257.751 191.245 257.922 191.311 258.113C191.377 258.303 191.402 258.508 191.388 258.713C191.372 258.916 191.316 259.112 191.222 259.289L178.217 284.624C178.069 284.902 177.843 285.118 177.576 285.241C177.307 285.362 177.012 285.383 176.732 285.298L156.461 279.313C156.279 279.256 156.111 279.155 155.97 279.016C155.828 278.877 155.717 278.702 155.643 278.508C155.57 278.314 155.537 278.101 155.547 277.891C155.556 277.681 155.608 277.474 155.698 277.289Z" fill="#21252B"/>
<path d="M175.808 263.384C175.931 263.264 176.023 263.108 176.072 262.933C176.121 262.758 176.128 262.571 176.09 262.395C176.657 262.165 177.272 262.133 177.856 262.304C178.738 262.664 178.938 263.519 178.296 264.284C177.932 264.667 177.485 264.938 177 265.071C176.516 265.205 176.008 265.198 175.527 265.048C175.309 264.986 175.115 264.847 174.972 264.653C174.827 264.46 174.741 264.22 174.724 263.968C175.134 263.915 175.516 263.71 175.808 263.384Z" fill="#7B8399"/>
<path opacity="0.4" d="M188.89 260.407C189.396 260.095 189.648 259.507 189.456 259.133C189.264 258.759 188.698 258.682 188.192 258.989C187.687 259.295 187.437 259.889 187.629 260.266C187.823 260.644 188.372 260.721 188.89 260.407Z" fill="black"/>
<path d="M189.051 260.494C189.551 260.179 189.804 259.594 189.612 259.216C189.42 258.838 188.854 258.767 188.351 259.077C187.85 259.387 187.593 259.977 187.785 260.35C187.979 260.724 188.545 260.804 189.051 260.494Z" fill="#7B8399"/>
<path opacity="0.5" d="M188.93 260.264C189.259 260.061 189.42 259.683 189.292 259.423C189.192 259.289 189.051 259.206 188.897 259.186C188.744 259.166 188.588 259.214 188.466 259.318C188.132 259.526 187.971 259.899 188.1 260.161C188.2 260.293 188.342 260.378 188.496 260.398C188.652 260.417 188.806 260.369 188.93 260.264Z" fill="black"/>
<path opacity="0.4" d="M189.097 259.786C189.122 259.727 189.137 259.663 189.135 259.597C189.135 259.532 189.119 259.468 189.092 259.41C189.065 259.353 189.025 259.304 188.976 259.267C188.928 259.231 188.873 259.208 188.815 259.199H188.936C189.257 259.199 189.458 259.47 189.337 259.786C189.262 259.953 189.148 260.096 189.006 260.199C188.865 260.302 188.703 260.361 188.534 260.37H188.415C188.564 260.351 188.706 260.285 188.827 260.183C188.947 260.08 189.04 259.942 189.097 259.786Z" fill="black"/>
<path d="M156.621 259.381L157.183 259.516C157.314 259.556 157.449 259.572 157.584 259.561L164.248 259.425C164.945 259.429 165.639 259.566 166.295 259.832L173.962 262.981C174.118 263.049 174.25 263.175 174.33 263.341C174.411 263.505 174.438 263.697 174.403 263.881C174.354 264.077 174.237 264.241 174.08 264.342C173.923 264.442 173.737 264.471 173.56 264.421L166.214 262.261L173.199 266.536C173.284 266.583 173.358 266.649 173.419 266.731C173.479 266.811 173.524 266.905 173.551 267.007C173.578 267.108 173.584 267.215 173.573 267.32C173.56 267.424 173.528 267.525 173.481 267.616C173.393 267.795 173.253 267.934 173.085 268.008C172.916 268.083 172.729 268.087 172.557 268.021L165.453 264.872L171.875 267.705C171.959 267.741 172.037 267.795 172.102 267.864C172.169 267.932 172.222 268.016 172.26 268.106C172.296 268.199 172.317 268.299 172.32 268.4C172.323 268.5 172.308 268.602 172.276 268.696C172.215 268.894 172.091 269.06 171.928 269.16C171.765 269.259 171.573 269.286 171.393 269.236L164.85 267.256L170.47 268.965C170.541 268.985 170.61 269.021 170.669 269.071C170.727 269.119 170.778 269.181 170.815 269.252C170.853 269.325 170.877 269.404 170.886 269.486C170.896 269.568 170.891 269.652 170.87 269.732C170.858 269.816 170.829 269.896 170.786 269.965C170.745 270.036 170.689 270.097 170.626 270.143C170.562 270.19 170.489 270.222 170.414 270.236C170.339 270.25 170.263 270.247 170.188 270.225L155.176 266.672L154.132 266.581L156.621 259.381Z" fill="#956363"/>
<path opacity="0.15" d="M171.875 267.704L165.895 265.051" stroke="black" stroke-width="1.18" stroke-miterlimit="10" stroke-linecap="round"/>
<path opacity="0.15" d="M164.848 267.213L170.51 268.922" stroke="black" stroke-width="1.18" stroke-miterlimit="10" stroke-linecap="round"/>
<path opacity="0.15" d="M170.912 269.684C170.897 269.77 170.869 269.848 170.826 269.92C170.785 269.991 170.729 270.052 170.665 270.098C170.602 270.144 170.53 270.176 170.455 270.189C170.379 270.205 170.303 270.201 170.228 270.18L155.216 266.624L154.173 266.535L154.694 265.051L170.912 269.684Z" fill="black"/>
<path opacity="0.15" d="M135.828 232.918L135.266 234.494L131.814 244.349L129.646 250.514L129.125 251.954L128.844 252.765L128.643 253.349L127.479 253.078L127.037 252.989C126.702 252.921 126.4 252.72 126.186 252.422C125.972 252.125 125.861 251.75 125.873 251.369C125.873 251.234 125.913 251.098 125.913 250.918L128.161 242.998L128.723 241.018L132.256 228.418L132.777 226.485L133.339 224.505C133.372 224.398 133.434 224.309 133.517 224.246C133.599 224.184 133.697 224.153 133.796 224.159C133.895 224.162 133.99 224.203 134.067 224.275C134.144 224.344 134.198 224.44 134.223 224.549C134.463 225.765 134.785 227.385 135.106 229.049L135.186 229.365C135.387 230.625 135.627 231.838 135.828 232.918Z" fill="black"/>
<g opacity="0.3">
<path opacity="0.3" d="M135.145 229.411L134.423 229.231C130.65 228.06 124.95 225.091 124.026 224.595L124.307 223.606L124.588 222.615C125.391 223.066 131.131 226.126 134.744 227.251L135.145 229.411Z" fill="white"/>
</g>
<g opacity="0.3">
<path opacity="0.3" d="M132.456 242.415L131.814 244.35C128.483 243.315 122.18 240.524 119.932 239.535L120.494 237.555C122.582 238.455 129.165 241.379 132.456 242.415Z" fill="white"/>
</g>
<g opacity="0.3">
<path opacity="0.3" d="M129.648 250.561L129.126 252.001L128.845 252.81C128.403 252.901 127.962 252.99 127.48 253.125C123.265 254.161 117.445 256.05 115.357 256.725C115.418 256.297 115.511 255.875 115.638 255.465L115.919 254.341C118.248 253.576 122.382 252.27 125.874 251.37C127.279 251.01 128.604 250.741 129.648 250.561Z" fill="white"/>
</g>
<g opacity="0.3">
<path opacity="0.3" d="M135.426 254.836C134.142 257.356 132.094 261.676 130.73 264.645L128.723 264.465C129.967 261.721 132.054 257.265 133.5 254.432L135.426 254.836Z" fill="white"/>
</g>
<g opacity="0.3">
<path opacity="0.3" d="M147.869 257.491C146.705 260.055 145.26 263.386 144.297 265.726L142.29 265.546C143.213 263.341 144.698 259.921 145.983 257.086C146.023 257.086 145.983 257.086 147.869 257.491Z" fill="white"/>
</g>
<g opacity="0.3">
<path opacity="0.3" d="M180.504 228.242L180.064 226.126L184.439 223.291L185.363 225.091L180.504 228.242Z" fill="white"/>
</g>
<g opacity="0.3">
<path opacity="0.3" d="M190.82 237.51L182.11 246.961L181.026 245.25L189.938 235.576L190.82 237.51Z" fill="white"/>
</g>
<g opacity="0.3">
<path opacity="0.3" d="M199.894 238.141V249.301L198.047 249.705V238.185L199.894 238.141Z" fill="white"/>
</g>
<g opacity="0.3">
<path opacity="0.3" d="M212.016 237.736L210.692 246.872L208.845 247.323L210.169 237.783L212.016 237.736Z" fill="white"/>
</g>
<g opacity="0.3">
<path opacity="0.3" d="M159.873 229.275C151.456 229.246 143.049 228.614 134.704 227.386L134.343 225.315C134.624 225.359 162.442 229.635 179.862 225.135L180.264 227.159C174.163 228.735 166.856 229.275 159.873 229.275Z" fill="white"/>
</g>
<path d="M233.571 242.866C233.573 242.907 233.565 242.948 233.552 242.987C233.538 243.026 233.517 243.062 233.492 243.09C233.465 243.121 233.433 243.144 233.4 243.158C233.365 243.174 233.327 243.181 233.29 243.179L229.357 243.63C229.176 243.632 228.998 243.678 228.834 243.766V239.49C228.864 239.873 229.012 240.232 229.255 240.504C229.497 240.775 229.818 240.943 230.16 240.975L232.126 241.29C232.505 241.338 232.859 241.529 233.13 241.83C233.392 242.098 233.551 242.468 233.571 242.866Z" fill="#956363"/>
</g>
</g>
<defs>
<clipPath id="clip0_120_289">
<rect width="620" height="540" fill="white"/>
</clipPath>
</defs>
</svg>
