<svg width="45" height="45" viewBox="0 0 45 45" fill="none" xmlns="http://www.w3.org/2000/svg">
<path d="M30.0476 38.5702L30.0482 32.5444C30.0485 29.216 27.3503 26.5175 24.0218 26.5175H10.527C7.19903 26.5175 4.50105 29.2152 4.50068 32.5432L4.5 38.5702M40.4995 38.5706L40.5 32.5448C40.5003 29.2163 37.8021 26.5179 34.4736 26.5179M28.8869 7.61358C30.3668 8.71165 31.3259 10.472 31.3259 12.4564C31.3259 14.4407 30.3668 16.2011 28.8869 17.2992M23.4259 12.456C23.4259 15.7843 20.7278 18.4824 17.3995 18.4824C14.0713 18.4824 11.3732 15.7843 11.3732 12.456C11.3732 9.12778 14.0713 6.42969 17.3995 6.42969C20.7278 6.42969 23.4259 9.12778 23.4259 12.456Z" stroke="#243B60" stroke-width="2" stroke-linecap="round" stroke-linejoin="round"/>
</svg>